<svg version="1.2" xmlns="http://www.w3.org/2000/svg" viewBox="0 0 195 195" width="195" height="195"><defs><clipPath clipPathUnits="userSpaceOnUse" id="cp1"><path d="m-67-1645h1920v9844h-1920z"/></clipPath></defs><style>.a{opacity:.5}</style><g clip-path="url(#cp1)"><path class="a" d="m108.3 97.5c0 0.1 0 0.1-0.1 0.1-0.1 0-0.1 0-0.1-0.1 0-0.1 0-0.2 0.1-0.2 0.1 0 0.1 0.1 0.1 0.2z"/><path class="a" d="m100.9 107.8c0 0.1-0.1 0.1-0.2 0.1-0.1 0-0.1 0-0.1-0.1 0-0.1 0-0.2 0.1-0.2 0.1 0 0.2 0.1 0.2 0.2z"/><path class="a" d="m88.8 103.9c0 0.1-0.1 0.2-0.2 0.2-0.1 0-0.2-0.1-0.2-0.2 0-0.2 0.1-0.3 0.2-0.3 0.1 0 0.2 0.1 0.2 0.3z"/><path class="a" d="m88.3 91.1c0-0.1 0.2-0.3 0.3-0.3 0.1 0 0.3 0.2 0.3 0.3 0 0.2-0.2 0.3-0.3 0.3-0.2 0-0.3-0.1-0.3-0.3z"/><path class="a" d="m101 87.2c0 0.1-0.1 0.2-0.3 0.2-0.1 0-0.2-0.1-0.2-0.2 0-0.2 0.1-0.3 0.2-0.3 0.2 0 0.3 0.1 0.3 0.3z"/><path class="a" d="m121.3 97.5c0 1.2-1 2.2-2.3 2.2-1.2 0-2.2-1-2.2-2.2 0-1.2 1-2.2 2.2-2.2 1.3 0 2.3 1 2.3 2.2z"/><path class="a" d="m117.1 110.2c0 1.2-1 2.2-2.2 2.2-1.2 0-2.2-1-2.2-2.2 0-1.2 1-2.2 2.2-2.2 1.2 0 2.2 1 2.2 2.2z"/><path class="a" d="m106.3 118.1c0 1.2-1 2.2-2.2 2.2-1.3 0-2.3-1-2.3-2.2 0-1.2 1-2.2 2.3-2.2 1.2 0 2.2 1 2.2 2.2z"/><path class="a" d="m88.4 118.1c0-1.2 1-2.3 2.3-2.3 1.2 0 2.2 1 2.2 2.3 0 1.2-1 2.3-2.2 2.3-1.3 0-2.3-1.1-2.3-2.3z"/><path class="a" d="m82.2 110.2c0 1.3-1.1 2.4-2.4 2.4-1.3 0-2.3-1.1-2.3-2.4 0-1.3 1-2.4 2.3-2.4 1.3 0 2.4 1.1 2.4 2.4z"/><path class="a" d="m78.1 97.5c0 1.3-1.1 2.4-2.4 2.4-1.4 0-2.5-1.1-2.5-2.4 0-1.4 1.1-2.5 2.5-2.5 1.3 0 2.4 1.1 2.4 2.5z"/><path class="a" d="m77.3 84.8c0-1.4 1.2-2.5 2.5-2.5 1.4 0 2.5 1.1 2.5 2.5 0 1.3-1.1 2.4-2.5 2.4-1.3 0-2.5-1.1-2.5-2.4z"/><path class="a" d="m93.2 76.9c0 1.4-1.2 2.5-2.5 2.5-1.4 0-2.5-1.1-2.5-2.5 0-1.4 1.1-2.5 2.5-2.5 1.3 0 2.5 1.1 2.5 2.5z"/><path class="a" d="m106.5 76.9c0 1.3-1.1 2.4-2.4 2.4-1.4 0-2.5-1.1-2.5-2.4 0-1.4 1.1-2.5 2.5-2.5 1.3 0 2.4 1.1 2.4 2.5z"/><path class="a" d="m117.2 84.8c0 1.2-1 2.3-2.3 2.3-1.3 0-2.3-1.1-2.3-2.3 0-1.3 1-2.4 2.3-2.4 1.3 0 2.3 1.1 2.3 2.4z"/><path class="a" d="m126.2 97.5c0-2.1 1.6-3.7 3.7-3.7 2 0 3.7 1.6 3.7 3.7 0 2-1.7 3.7-3.7 3.7-2.1 0-3.7-1.7-3.7-3.7z"/><path class="a" d="m123.4 110.7c0-2 1.6-3.7 3.7-3.7 2 0 3.7 1.7 3.7 3.7 0 2-1.7 3.7-3.7 3.7-2.1 0-3.7-1.7-3.7-3.7z"/><path class="a" d="m115.4 121.6c0-2 1.7-3.7 3.7-3.7 2.1 0 3.7 1.7 3.7 3.7 0 2.1-1.6 3.7-3.7 3.7-2 0-3.7-1.6-3.7-3.7z"/><path class="a" d="m103.7 128.4c0-2.1 1.7-3.7 3.7-3.7 2 0 3.7 1.6 3.7 3.7 0 2-1.7 3.7-3.7 3.7-2 0-3.7-1.7-3.7-3.7z"/><path class="a" d="m90.3 129.8c0-2 1.6-3.7 3.7-3.7 2 0 3.7 1.7 3.7 3.7 0 2-1.7 3.7-3.7 3.7-2.1 0-3.7-1.7-3.7-3.7z"/><path class="a" d="m77.4 125.6c0-2 1.7-3.6 3.7-3.6 2 0 3.7 1.6 3.7 3.6 0 2-1.7 3.7-3.7 3.7-2 0-3.7-1.7-3.7-3.7z"/><path class="a" d="m74.7 116.6c0 2-1.6 3.6-3.6 3.6-2.1 0-3.7-1.6-3.7-3.6 0-2 1.6-3.7 3.7-3.7 2 0 3.6 1.7 3.6 3.7z"/><path class="a" d="m69.2 104.2c0 2.1-1.6 3.7-3.6 3.7-2.1 0-3.7-1.6-3.7-3.7 0-2 1.6-3.6 3.7-3.6 2 0 3.6 1.6 3.6 3.6z"/><path class="a" d="m69.2 90.7c0 2.1-1.6 3.7-3.6 3.7-2.1 0-3.7-1.6-3.7-3.7 0-2 1.6-3.6 3.7-3.6 2 0 3.6 1.6 3.6 3.6z"/><path class="a" d="m67.4 78.4c0-2 1.6-3.7 3.7-3.7 2 0 3.6 1.7 3.6 3.7 0 2-1.6 3.6-3.6 3.6-2.1 0-3.7-1.6-3.7-3.6z"/><path class="a" d="m84.8 69.3c0 2.1-1.7 3.7-3.7 3.7-2 0-3.7-1.6-3.7-3.7 0-2 1.7-3.6 3.7-3.6 2 0 3.7 1.6 3.7 3.6z"/><path class="a" d="m97.6 65.2c0 2-1.6 3.6-3.6 3.6-2.1 0-3.7-1.6-3.7-3.6 0-2.1 1.6-3.7 3.7-3.7 2 0 3.6 1.6 3.6 3.7z"/><path class="a" d="m111.1 66.6c0 2-1.7 3.6-3.7 3.6-2 0-3.7-1.6-3.7-3.6 0-2 1.7-3.7 3.7-3.7 2 0 3.7 1.7 3.7 3.7z"/><path class="a" d="m115.4 73.3c0-2 1.7-3.7 3.7-3.7 2.1 0 3.7 1.7 3.7 3.7 0 2.1-1.6 3.7-3.7 3.7-2 0-3.7-1.6-3.7-3.7z"/><path class="a" d="m123.4 84.3c0-2.1 1.6-3.7 3.7-3.7 2 0 3.7 1.6 3.7 3.7 0 2-1.7 3.7-3.7 3.7-2.1 0-3.7-1.7-3.7-3.7z"/><path class="a" d="m143.8 97.5c0 1.7-1.4 3.1-3.1 3.1-1.7 0-3.1-1.4-3.1-3.1 0-1.7 1.4-3.1 3.1-3.1 1.7 0 3.1 1.4 3.1 3.1z"/><path class="a" d="m135.5 110.9c0-1.8 1.4-3.1 3.1-3.1 1.7 0 3.1 1.3 3.1 3.1 0 1.7-1.4 3.1-3.1 3.1-1.7 0-3.1-1.4-3.1-3.1z"/><path class="a" d="m129.3 123c0-1.8 1.4-3.2 3.1-3.2 1.8 0 3.2 1.4 3.2 3.2 0 1.7-1.4 3.1-3.2 3.1-1.7 0-3.1-1.4-3.1-3.1z"/><path class="a" d="m119.7 132.5c0-1.7 1.4-3.1 3.2-3.1 1.7 0 3.1 1.4 3.1 3.1 0 1.8-1.4 3.2-3.1 3.2-1.8 0-3.2-1.4-3.2-3.2z"/><path class="a" d="m107.6 138.7c0-1.7 1.4-3.1 3.2-3.1 1.7 0 3.1 1.4 3.1 3.1 0 1.7-1.4 3.1-3.1 3.1-1.8 0-3.2-1.4-3.2-3.1z"/><path class="a" d="m100.5 140.8c0 1.7-1.4 3.1-3.1 3.1-1.8 0-3.2-1.4-3.2-3.1 0-1.7 1.4-3.1 3.2-3.1 1.7 0 3.1 1.4 3.1 3.1z"/><path class="a" d="m87.1 138.7c0 1.7-1.4 3.1-3.1 3.1-1.7 0-3.1-1.4-3.1-3.1 0-1.7 1.4-3.1 3.1-3.1 1.7 0 3.1 1.4 3.1 3.1z"/><path class="a" d="m68.8 132.5c0-1.7 1.4-3 3.1-3 1.7 0 3.1 1.3 3.1 3 0 1.7-1.4 3.1-3.1 3.1-1.7 0-3.1-1.4-3.1-3.1z"/><path class="a" d="m59.2 122.9c0-1.7 1.4-3 3.1-3 1.7 0 3.1 1.3 3.1 3 0 1.7-1.4 3.1-3.1 3.1-1.7 0-3.1-1.4-3.1-3.1z"/><path class="a" d="m53.1 110.9c0-1.7 1.3-3.1 3-3.1 1.7 0 3.1 1.4 3.1 3.1 0 1.7-1.4 3-3.1 3-1.7 0-3-1.3-3-3z"/><path class="a" d="m50.9 97.5c0-1.7 1.4-3.1 3.1-3.1 1.7 0 3.1 1.4 3.1 3.1 0 1.7-1.4 3.1-3.1 3.1-1.7 0-3.1-1.4-3.1-3.1z"/><path class="a" d="m53.1 84.1c0-1.7 1.4-3 3-3 1.7 0 3.1 1.3 3.1 3 0 1.7-1.4 3-3.1 3-1.6 0-3-1.3-3-3z"/><path class="a" d="m59.3 72c0-1.7 1.3-3 3-3 1.7 0 3 1.3 3 3 0 1.7-1.3 3-3 3-1.7 0-3.1-1.3-3-3z"/><path class="a" d="m68.8 62.4c0-1.7 1.4-3 3.1-3 1.7 0 3 1.3 3 3 0 1.7-1.3 3.1-3 3.1-1.7 0-3.1-1.4-3.1-3.1z"/><path class="a" d="m87 56.3c0 1.6-1.3 3-3 3-1.7 0-3.1-1.4-3.1-3 0-1.7 1.4-3.1 3.1-3.1 1.7 0 3 1.4 3 3.1z"/><path class="a" d="m94.3 54.2c0-1.7 1.4-3.1 3.1-3.1 1.7 0 3 1.4 3 3.1 0 1.7-1.3 3-3 3-1.7 0-3.1-1.3-3.1-3z"/><path class="a" d="m107.7 56.3c0-1.7 1.4-3.1 3.1-3.1 1.7 0 3 1.4 3 3.1 0 1.7-1.3 3-3 3-1.7 0-3.1-1.3-3.1-3z"/><path class="a" d="m119.8 62.4c0-1.7 1.4-3 3.1-3 1.7 0 3 1.3 3 3 0 1.7-1.3 3.1-3 3.1-1.7 0-3.1-1.4-3.1-3.1z"/><path class="a" d="m135.5 72c0 1.7-1.3 3.1-3.1 3.1-1.7 0-3-1.4-3-3.1 0-1.7 1.3-3.1 3-3.1 1.8 0 3.1 1.4 3.1 3.1z"/><path class="a" d="m135.5 84.1c0-1.7 1.4-3.1 3.1-3.1 1.7 0 3.1 1.4 3.1 3.1 0 1.7-1.4 3.1-3.1 3.1-1.7 0-3.1-1.4-3.1-3.1z"/><path class="a" d="m149.1 97.5c0-1.4 1.1-2.5 2.5-2.5 1.3 0 2.4 1.1 2.4 2.5 0 1.4-1.1 2.5-2.4 2.5-1.4 0-2.5-1.1-2.5-2.5z"/><path class="a" d="m147.4 110.9c0-1.3 1.1-2.4 2.5-2.4 1.3 0 2.5 1.1 2.5 2.4 0 1.4-1.2 2.5-2.5 2.5-1.4 0-2.5-1.1-2.5-2.5z"/><path class="a" d="m147.3 123.6c0 1.3-1.1 2.5-2.4 2.5-1.4 0-2.5-1.2-2.5-2.5 0-1.4 1.1-2.5 2.5-2.5 1.3 0 2.4 1.1 2.4 2.5z"/><path class="a" d="m134.4 134.6c0-1.4 1.1-2.5 2.5-2.5 1.3 0 2.5 1.1 2.5 2.5 0 1.3-1.2 2.5-2.5 2.5-1.4 0-2.5-1.2-2.5-2.5z"/><path class="a" d="m123.9 143.2c0-1.4 1.1-2.5 2.5-2.5 1.4 0 2.5 1.1 2.5 2.5 0 1.4-1.1 2.5-2.5 2.5-1.4 0-2.5-1.1-2.5-2.5z"/><path class="a" d="m111.6 149c0-1.4 1.1-2.5 2.5-2.5 1.4 0 2.5 1.1 2.5 2.5 0 1.4-1.1 2.5-2.5 2.5-1.4 0-2.5-1.1-2.5-2.5z"/><path class="a" d="m98.3 151.5c0-1.3 1.1-2.5 2.5-2.5 1.4 0 2.5 1.2 2.5 2.5 0 1.4-1.1 2.5-2.5 2.5-1.4 0-2.5-1.1-2.5-2.5z"/><path class="a" d="m84.7 150.7c0-1.4 1.1-2.5 2.5-2.5 1.4 0 2.5 1.1 2.5 2.5 0 1.4-1.1 2.5-2.5 2.5-1.4 0-2.5-1.1-2.5-2.5z"/><path class="a" d="m71.8 146.5c0-1.4 1.1-2.5 2.5-2.5 1.4 0 2.5 1.1 2.5 2.5 0 1.4-1.1 2.5-2.5 2.5-1.4 0-2.5-1.1-2.5-2.5z"/><path class="a" d="m65.3 139.2c0 1.4-1.1 2.5-2.5 2.5-1.3 0-2.4-1.1-2.4-2.5 0-1.3 1.1-2.4 2.4-2.4 1.4 0 2.5 1.1 2.5 2.4z"/><path class="a" d="m56 129.3c0 1.4-1.1 2.5-2.5 2.5-1.3 0-2.4-1.1-2.4-2.5 0-1.3 1.1-2.4 2.4-2.4 1.4 0 2.5 1.1 2.5 2.4z"/><path class="a" d="m49.4 117.4c0 1.4-1.1 2.5-2.4 2.5-1.4 0-2.5-1.1-2.5-2.5 0-1.3 1.1-2.4 2.5-2.4 1.3 0 2.4 1.1 2.4 2.4z"/><path class="a" d="m41.2 104.3c0-1.4 1.1-2.5 2.4-2.5 1.4 0 2.4 1.1 2.4 2.5 0 1.3-1.1 2.4-2.4 2.4-1.3 0-2.4-1.1-2.4-2.4z"/><path class="a" d="m41.2 90.7c0-1.4 1.1-2.4 2.4-2.4 1.4 0 2.4 1.1 2.4 2.4 0 1.3-1.1 2.4-2.4 2.4-1.3 0-2.4-1.1-2.4-2.4z"/><path class="a" d="m44.5 77.5c0-1.3 1.1-2.4 2.5-2.4 1.3 0 2.4 1.1 2.4 2.4 0 1.4-1.1 2.5-2.4 2.5-1.4 0-2.5-1.1-2.5-2.5z"/><path class="a" d="m51.1 65.6c0-1.3 1.1-2.4 2.4-2.4 1.4 0 2.5 1.1 2.5 2.4 0 1.4-1.1 2.5-2.5 2.5-1.3 0-2.4-1.1-2.4-2.5z"/><path class="a" d="m60.4 55.7c0-1.3 1.1-2.4 2.4-2.4 1.4 0 2.5 1.1 2.5 2.4 0 1.4-1.1 2.5-2.5 2.5-1.3 0-2.4-1.1-2.4-2.5z"/><path class="a" d="m71.9 48.5c0-1.4 1-2.5 2.4-2.5 1.4 0 2.4 1.1 2.4 2.5 0 1.3-1.1 2.4-2.4 2.4-1.4 0-2.4-1.1-2.4-2.4z"/><path class="a" d="m84.8 44.3c0-1.4 1.1-2.5 2.4-2.5 1.4 0 2.5 1.1 2.5 2.5 0 1.3-1.2 2.4-2.5 2.4-1.3 0-2.4-1.1-2.4-2.4z"/><path class="a" d="m98.3 43.4c0-1.3 1.1-2.4 2.5-2.4 1.3 0 2.4 1.1 2.4 2.4 0 1.4-1.1 2.5-2.4 2.5-1.4 0-2.5-1.1-2.5-2.5z"/><path class="a" d="m116.6 46c0 1.3-1.1 2.4-2.5 2.4-1.3 0-2.4-1.1-2.4-2.4 0-1.4 1.1-2.5 2.4-2.5 1.4 0 2.5 1.1 2.5 2.5z"/><path class="a" d="m128.9 51.8c0 1.3-1.1 2.4-2.5 2.4-1.3 0-2.4-1.1-2.4-2.4 0-1.4 1.1-2.5 2.4-2.5 1.4 0 2.5 1.1 2.5 2.5z"/><path class="a" d="m139.3 60.4c0 1.4-1.1 2.5-2.4 2.5-1.4 0-2.5-1.1-2.5-2.5 0-1.4 1.1-2.5 2.5-2.5 1.3 0 2.4 1.1 2.4 2.5z"/><path class="a" d="m147.3 71.4c0 1.4-1.1 2.5-2.4 2.5-1.4 0-2.5-1.1-2.5-2.5 0-1.4 1.1-2.5 2.5-2.5 1.3 0 2.4 1.1 2.4 2.5z"/><path class="a" d="m152.4 84c0 1.4-1.2 2.5-2.5 2.5-1.4 0-2.5-1.1-2.5-2.5 0-1.4 1.1-2.5 2.5-2.5 1.3 0 2.5 1.1 2.5 2.5z"/><path class="a" d="m164.3 97.5c0 1-0.9 1.9-1.9 1.9-1.1 0-1.9-0.9-1.9-1.9 0-1.1 0.8-1.9 1.9-1.9 1 0 1.9 0.8 1.9 1.9z"/><path class="a" d="m162.9 111c0 1-0.9 1.9-1.9 1.9-1.1 0-1.9-0.9-1.9-1.9 0-1 0.8-1.9 1.9-1.9 1 0 1.9 0.9 1.9 1.9z"/><path class="a" d="m158.7 123.9c0 1.1-0.9 1.9-1.9 1.9-1.1 0-1.9-0.8-1.9-1.9 0-1 0.8-1.9 1.9-1.9 1 0 1.9 0.9 1.9 1.9z"/><path class="a" d="m148.1 135.7c0-1.1 0.8-1.9 1.9-1.9 1 0 1.9 0.8 1.9 1.9 0 1-0.9 1.9-1.9 1.9-1.1 0-1.9-0.9-1.9-1.9z"/><path class="a" d="m142.8 145.8c0 1-0.9 1.9-1.9 1.9-1.1 0-1.9-0.9-1.9-1.9 0-1.1 0.8-1.9 1.9-1.9 1 0 1.9 0.8 1.9 1.9z"/><path class="a" d="m131.8 153.8c0 1-0.9 1.9-1.9 1.9-1.1 0-1.9-0.9-1.9-1.9 0-1.1 0.8-1.9 1.9-1.9 1 0 1.9 0.8 1.9 1.9z"/><path class="a" d="m119.4 159.3c0 1-0.9 1.9-1.9 1.9-1.1 0-1.9-0.9-1.9-1.9 0-1.1 0.8-1.9 1.9-1.9 1 0 1.9 0.8 1.9 1.9z"/><path class="a" d="m106.1 162.1c0 1.1-0.9 1.9-1.9 1.9-1.1 0-1.9-0.8-1.9-1.9 0-1 0.8-1.9 1.9-1.9 1 0 1.9 0.9 1.9 1.9z"/><path class="a" d="m88.7 162.1c0-1 0.8-1.9 1.9-1.9 1 0 1.8 0.9 1.8 1.9 0 1-0.8 1.9-1.8 1.9-1.1 0-1.9-0.9-1.9-1.9z"/><path class="a" d="m75.4 159.3c0-1 0.8-1.9 1.9-1.9 1 0 1.8 0.9 1.8 1.9 0 1-0.8 1.9-1.8 1.9-1.1 0-1.9-0.9-1.9-1.9z"/><path class="a" d="m66.7 153.8c0 1-0.8 1.8-1.9 1.8-1 0-1.8-0.8-1.8-1.8 0-1.1 0.8-1.9 1.8-1.9 1.1 0 1.9 0.8 1.9 1.9z"/><path class="a" d="m52 145.8c0-1 0.8-1.9 1.8-1.9 1.1 0 1.9 0.9 1.9 1.9 0 1-0.8 1.8-1.9 1.8-1 0-1.8-0.8-1.8-1.8z"/><path class="a" d="m42.9 135.7c0-1 0.9-1.8 1.9-1.8 1 0 1.8 0.8 1.8 1.8 0 1-0.8 1.8-1.8 1.8-1 0-1.9-0.8-1.9-1.8z"/><path class="a" d="m39.8 123.9c0 1-0.8 1.8-1.8 1.8-1.1 0-1.9-0.8-1.9-1.8 0-1 0.8-1.8 1.9-1.8 1 0 1.8 0.8 1.8 1.8z"/><path class="a" d="m35.6 111c0 1-0.8 1.8-1.8 1.8-1 0-1.9-0.8-1.9-1.8 0-1 0.9-1.8 1.9-1.8 1 0 1.8 0.8 1.8 1.8z"/><path class="a" d="m34.2 97.5c0 1-0.9 1.8-1.9 1.8-1 0-1.8-0.8-1.8-1.8 0-1 0.8-1.8 1.8-1.8 1 0 1.9 0.8 1.9 1.8z"/><path class="a" d="m35.6 84c0 1-0.8 1.8-1.8 1.8-1 0-1.9-0.8-1.9-1.8 0-1 0.9-1.8 1.9-1.8 1 0 1.8 0.8 1.8 1.8z"/><path class="a" d="m36.1 71.1c0-1 0.9-1.9 1.9-1.9 0.9 0 1.8 0.9 1.8 1.9 0 0.9-0.9 1.8-1.8 1.8-1 0-1.8-0.9-1.9-1.8z"/><path class="a" d="m46.6 59.3c0 1-0.8 1.8-1.8 1.8-1 0-1.8-0.8-1.8-1.8 0-1 0.8-1.8 1.8-1.8 1 0 1.8 0.8 1.8 1.8z"/><path class="a" d="m52 49.2c0-1 0.9-1.8 1.8-1.8 1 0 1.9 0.8 1.9 1.8 0 1-0.9 1.8-1.9 1.8-0.9 0-1.8-0.8-1.8-1.8z"/><path class="a" d="m63 41.2c0-1 0.9-1.8 1.8-1.8 1 0 1.9 0.8 1.9 1.8 0 1-0.9 1.8-1.9 1.8-0.9 0-1.8-0.8-1.8-1.8z"/><path class="a" d="m75.5 35.7c0-1 0.8-1.8 1.8-1.8 1 0 1.8 0.8 1.8 1.8 0 1-0.8 1.8-1.8 1.8-1 0-1.8-0.8-1.8-1.8z"/><path class="a" d="m92.4 32.9c0 1-0.8 1.8-1.8 1.8-1 0-1.9-0.8-1.9-1.8 0-1.1 0.9-1.9 1.9-1.9 1 0 1.8 0.8 1.8 1.9z"/><path class="a" d="m106 32.9c0 1-0.8 1.8-1.8 1.8-1.1 0-1.9-0.8-1.9-1.8 0-1.1 0.8-1.9 1.9-1.9 1 0 1.8 0.8 1.8 1.9z"/><path class="a" d="m115.6 35.7c0-1 0.9-1.8 1.9-1.8 1 0 1.8 0.8 1.8 1.8 0 1-0.8 1.8-1.8 1.8-1 0-1.9-0.8-1.9-1.8z"/><path class="a" d="m131.7 41.2c0 1-0.8 1.8-1.8 1.8-1 0-1.8-0.8-1.8-1.8 0-1 0.8-1.8 1.8-1.8 1 0 1.8 0.8 1.8 1.8z"/><path class="a" d="m139 49.2c0-1 0.9-1.9 1.9-1.9 1 0 1.8 0.9 1.8 1.9 0 1-0.8 1.9-1.8 1.9-1 0-1.9-0.9-1.9-1.9z"/><path class="a" d="m148.1 59.3c0-1 0.9-1.9 1.9-1.9 1 0 1.8 0.9 1.8 1.9 0 1-0.8 1.8-1.8 1.8-1 0-1.9-0.8-1.9-1.8z"/><path class="a" d="m154.9 71.1c0-1.1 0.8-1.9 1.9-1.9 1 0 1.8 0.8 1.8 1.9 0 1-0.8 1.8-1.8 1.8-1.1 0-1.9-0.8-1.9-1.8z"/><path class="a" d="m159.1 84c0-1.1 0.8-1.9 1.9-1.9 1 0 1.8 0.8 1.8 1.9 0 1-0.8 1.8-1.8 1.8-1 0-1.9-0.8-1.9-1.8z"/><path class="a" d="m174.5 97.5c0 0.7-0.6 1.2-1.3 1.2-0.7 0-1.2-0.5-1.2-1.2 0-0.7 0.5-1.3 1.2-1.3 0.7 0 1.3 0.6 1.3 1.3z"/><path class="a" d="m173.3 111c0 0.7-0.6 1.3-1.3 1.3-0.7 0-1.2-0.6-1.2-1.3 0-0.7 0.5-1.2 1.2-1.2 0.7 0 1.3 0.5 1.3 1.2z"/><path class="a" d="m167.1 124.1c0-0.7 0.6-1.2 1.3-1.2 0.7 0 1.3 0.5 1.3 1.2 0 0.7-0.6 1.3-1.3 1.3-0.7 0-1.3-0.6-1.3-1.3z"/><path class="a" d="m161.2 136.4c0-0.7 0.6-1.3 1.3-1.3 0.7 0 1.3 0.6 1.3 1.3 0 0.7-0.6 1.2-1.3 1.2-0.7 0-1.3-0.5-1.3-1.2z"/><path class="a" d="m155.8 147.4c0 0.7-0.6 1.2-1.3 1.2-0.7 0-1.3-0.5-1.3-1.2 0-0.7 0.6-1.3 1.3-1.3 0.7 0 1.3 0.6 1.3 1.3z"/><path class="a" d="m145.9 156.8c0 0.7-0.5 1.2-1.2 1.2-0.7 0-1.3-0.5-1.3-1.2 0-0.7 0.6-1.3 1.3-1.3 0.7 0 1.2 0.6 1.2 1.3z"/><path class="a" d="m134.6 164.3c0 0.7-0.6 1.2-1.3 1.2-0.7 0-1.3-0.5-1.3-1.2 0-0.7 0.6-1.3 1.3-1.3 0.7 0 1.3 0.6 1.3 1.3z"/><path class="a" d="m119.5 169.6c0-0.7 0.6-1.3 1.3-1.3 0.7 0 1.3 0.6 1.3 1.3 0 0.7-0.6 1.2-1.3 1.2-0.7 0-1.3-0.5-1.3-1.2z"/><path class="a" d="m108.8 172.6c0 0.7-0.5 1.3-1.2 1.3-0.7 0-1.3-0.6-1.3-1.3 0-0.7 0.6-1.2 1.3-1.2 0.7 0 1.2 0.5 1.2 1.2z"/><path class="a" d="m95.2 173.2c0 0.7-0.5 1.3-1.2 1.3-0.7 0-1.3-0.6-1.3-1.3 0-0.7 0.6-1.2 1.3-1.2 0.7 0 1.2 0.5 1.2 1.2z"/><path class="a" d="m79.2 171.4c0-0.7 0.6-1.3 1.3-1.3 0.7 0 1.3 0.6 1.3 1.3 0 0.7-0.6 1.3-1.3 1.3-0.7 0-1.3-0.6-1.3-1.3z"/><path class="a" d="m66.3 167.2c0-0.7 0.6-1.2 1.2-1.2 0.7 0 1.3 0.5 1.3 1.2 0 0.7-0.6 1.2-1.3 1.2-0.6 0-1.2-0.5-1.2-1.2z"/><path class="a" d="m54.3 160.8c0-0.7 0.6-1.3 1.3-1.3 0.6 0 1.2 0.6 1.2 1.3 0 0.6-0.5 1.2-1.2 1.2-0.7 0-1.3-0.6-1.3-1.2z"/><path class="a" d="m43.7 152.3c0-0.7 0.6-1.2 1.2-1.2 0.7 0 1.3 0.5 1.3 1.2 0 0.7-0.6 1.2-1.3 1.2-0.6 0-1.2-0.5-1.2-1.2z"/><path class="a" d="m34.8 142.1c0-0.7 0.5-1.3 1.2-1.3 0.7 0 1.2 0.6 1.2 1.3 0 0.6-0.5 1.2-1.2 1.2-0.7 0-1.2-0.6-1.2-1.2z"/><path class="a" d="m27.8 130.4c0-0.7 0.5-1.2 1.2-1.2 0.7 0 1.2 0.5 1.2 1.2 0 0.7-0.5 1.2-1.2 1.2-0.7 0-1.2-0.5-1.2-1.2z"/><path class="a" d="m23 117.6c0-0.6 0.6-1.2 1.2-1.2 0.7 0 1.3 0.6 1.3 1.2 0 0.7-0.6 1.3-1.3 1.3-0.6 0-1.2-0.6-1.2-1.3z"/><path class="a" d="m23 104.3c0 0.7-0.5 1.2-1.2 1.2-0.7 0-1.2-0.5-1.2-1.2 0-0.7 0.5-1.2 1.2-1.2 0.7 0 1.2 0.5 1.2 1.2z"/><path class="a" d="m23 90.7c0 0.7-0.5 1.2-1.2 1.2-0.7 0-1.2-0.5-1.2-1.2 0-0.7 0.5-1.2 1.2-1.2 0.7 0 1.2 0.5 1.2 1.2z"/><path class="a" d="m23 77.3c0-0.7 0.6-1.2 1.2-1.2 0.7 0 1.3 0.5 1.3 1.2 0 0.7-0.6 1.2-1.3 1.2-0.6 0-1.2-0.5-1.2-1.2z"/><path class="a" d="m30.2 64.6c0 0.7-0.5 1.2-1.2 1.2-0.7 0-1.2-0.5-1.2-1.2 0-0.7 0.5-1.2 1.2-1.2 0.7 0 1.2 0.5 1.2 1.2z"/><path class="a" d="m37.2 52.9c0 0.7-0.5 1.2-1.2 1.2-0.7 0-1.2-0.5-1.2-1.2 0-0.7 0.5-1.2 1.2-1.2 0.7 0 1.2 0.5 1.2 1.2z"/><path class="a" d="m46.2 42.7c0 0.6-0.6 1.2-1.3 1.2-0.6 0-1.2-0.6-1.2-1.2 0-0.7 0.6-1.2 1.2-1.2 0.7 0 1.3 0.5 1.3 1.2z"/><path class="a" d="m56.8 34.2c0 0.7-0.6 1.2-1.2 1.2-0.7 0-1.2-0.5-1.2-1.2 0-0.7 0.5-1.2 1.2-1.2 0.6 0 1.2 0.5 1.2 1.2z"/><path class="a" d="m66.3 27.8c0-0.7 0.6-1.2 1.2-1.2 0.7 0 1.3 0.5 1.3 1.2 0 0.6-0.6 1.2-1.3 1.2-0.6 0-1.2-0.6-1.2-1.2z"/><path class="a" d="m81.7 23.6c0 0.6-0.5 1.2-1.2 1.2-0.7 0-1.2-0.6-1.2-1.2 0-0.7 0.5-1.3 1.2-1.3 0.7 0 1.2 0.6 1.2 1.3z"/><path class="a" d="m95.2 21.7c0 0.7-0.6 1.2-1.2 1.2-0.7 0-1.2-0.5-1.2-1.2 0-0.6 0.5-1.2 1.2-1.2 0.6 0 1.2 0.6 1.2 1.2z"/><path class="a" d="m108.8 22.3c0 0.7-0.6 1.3-1.2 1.3-0.7 0-1.3-0.6-1.3-1.3 0-0.6 0.6-1.2 1.3-1.2 0.6 0 1.2 0.6 1.2 1.2z"/><path class="a" d="m122 25.4c0 0.6-0.5 1.2-1.2 1.2-0.7 0-1.2-0.6-1.2-1.2 0-0.7 0.5-1.2 1.2-1.2 0.7 0 1.2 0.5 1.2 1.2z"/><path class="a" d="m132.1 30.7c0-0.6 0.5-1.2 1.2-1.2 0.7 0 1.2 0.5 1.2 1.2 0 0.7-0.5 1.3-1.2 1.3-0.7 0-1.2-0.6-1.2-1.3z"/><path class="a" d="m143.4 38.2c0-0.7 0.6-1.2 1.3-1.2 0.6 0 1.2 0.5 1.2 1.2 0 0.7-0.5 1.2-1.2 1.2-0.7 0-1.3-0.5-1.3-1.2z"/><path class="a" d="m153.3 47.6c0-0.7 0.5-1.2 1.2-1.2 0.7 0 1.2 0.5 1.2 1.2 0 0.7-0.5 1.2-1.2 1.2-0.7 0-1.2-0.5-1.2-1.2z"/><path class="a" d="m161.3 58.6c0-0.7 0.5-1.2 1.2-1.2 0.7 0 1.2 0.5 1.2 1.2 0 0.7-0.5 1.2-1.2 1.2-0.7 0-1.2-0.5-1.2-1.2z"/><path class="a" d="m167.1 70.8c0-0.7 0.6-1.2 1.3-1.2 0.7 0 1.3 0.5 1.3 1.2 0 0.7-0.6 1.3-1.3 1.3-0.7 0-1.3-0.6-1.3-1.3z"/><path class="a" d="m173.3 83.9c0 0.7-0.6 1.3-1.3 1.3-0.7 0-1.2-0.6-1.2-1.3 0-0.7 0.5-1.2 1.2-1.2 0.7 0 1.3 0.5 1.3 1.2z"/><path class="a" d="m184.7 97.5c0 0.4-0.3 0.6-0.6 0.6-0.4 0-0.7-0.2-0.7-0.6 0-0.4 0.3-0.7 0.7-0.7 0.3 0 0.6 0.3 0.6 0.7z"/><path class="a" d="m182.3 111c0-0.3 0.3-0.6 0.7-0.6 0.4 0 0.7 0.3 0.7 0.6 0 0.4-0.3 0.7-0.7 0.7-0.4 0-0.7-0.3-0.7-0.7z"/><path class="a" d="m180.5 124.3c0 0.3-0.3 0.6-0.7 0.6-0.3 0-0.6-0.3-0.6-0.6 0-0.4 0.3-0.7 0.6-0.7 0.4 0 0.7 0.3 0.7 0.7z"/><path class="a" d="m174 136.8c0-0.4 0.3-0.7 0.6-0.7 0.4 0 0.7 0.4 0.7 0.7 0 0.4-0.3 0.7-0.7 0.7-0.3 0-0.6-0.3-0.6-0.7z"/><path class="a" d="m168.1 148.4c0 0.4-0.2 0.6-0.6 0.6-0.3 0-0.6-0.2-0.6-0.6 0-0.3 0.3-0.6 0.6-0.6 0.4 0 0.6 0.3 0.6 0.6z"/><path class="a" d="m158 158.8c0-0.4 0.3-0.7 0.7-0.7 0.4 0 0.6 0.3 0.6 0.7 0 0.3-0.3 0.6-0.6 0.6-0.4 0-0.7-0.3-0.7-0.6z"/><path class="a" d="m149 167.6c0 0.3-0.3 0.6-0.7 0.6-0.3 0-0.6-0.3-0.6-0.6 0-0.4 0.3-0.7 0.6-0.7 0.4 0 0.7 0.3 0.7 0.7z"/><path class="a" d="m136.1 174.7c0-0.4 0.3-0.7 0.6-0.7 0.4 0 0.7 0.3 0.7 0.7 0 0.4-0.3 0.6-0.7 0.6-0.3 0-0.6-0.2-0.6-0.6z"/><path class="a" d="m124.8 179.9c0 0.3-0.3 0.6-0.6 0.6-0.4 0-0.7-0.3-0.7-0.6 0-0.4 0.3-0.6 0.7-0.6 0.3 0 0.6 0.2 0.6 0.6z"/><path class="a" d="m110.3 183.1c0-0.4 0.3-0.7 0.6-0.7 0.4 0 0.7 0.3 0.7 0.7 0 0.3-0.3 0.6-0.7 0.6-0.3 0-0.6-0.3-0.6-0.6z"/><path class="a" d="m98 184.1c0 0.4-0.3 0.7-0.6 0.7-0.4 0-0.7-0.3-0.7-0.7 0-0.3 0.3-0.6 0.7-0.6 0.3 0 0.6 0.3 0.6 0.6z"/><path class="a" d="m84.4 183.1c0 0.3-0.3 0.6-0.6 0.6-0.4 0-0.6-0.3-0.6-0.6 0-0.4 0.2-0.7 0.6-0.7 0.3 0 0.6 0.3 0.6 0.7z"/><path class="a" d="m71.2 179.9c0 0.3-0.3 0.6-0.6 0.6-0.4 0-0.7-0.3-0.7-0.6 0-0.4 0.3-0.6 0.7-0.6 0.3 0 0.6 0.2 0.6 0.6z"/><path class="a" d="m57.4 174.7c0-0.4 0.3-0.6 0.6-0.6 0.3 0 0.6 0.2 0.6 0.6 0 0.3-0.3 0.6-0.6 0.6-0.3 0-0.6-0.3-0.6-0.6z"/><path class="a" d="m47 167.6c0 0.3-0.3 0.6-0.6 0.6-0.3 0-0.6-0.3-0.6-0.6 0-0.4 0.3-0.6 0.6-0.6 0.3 0 0.6 0.2 0.6 0.6z"/><path class="a" d="m35.5 158.8c0-0.4 0.2-0.6 0.6-0.6 0.3 0 0.6 0.2 0.6 0.6 0 0.3-0.3 0.5-0.6 0.5-0.4 0-0.6-0.2-0.6-0.5z"/><path class="a" d="m26.6 148.4c0-0.3 0.3-0.6 0.6-0.6 0.3 0 0.6 0.3 0.6 0.6 0 0.4-0.3 0.6-0.6 0.6-0.3 0-0.6-0.2-0.6-0.6z"/><path class="a" d="m19.5 136.8c0-0.3 0.3-0.6 0.6-0.6 0.3 0 0.6 0.3 0.6 0.6 0 0.3-0.3 0.6-0.6 0.6-0.3 0-0.6-0.2-0.6-0.6z"/><path class="a" d="m14.3 124.3c0-0.4 0.3-0.6 0.6-0.6 0.3 0 0.6 0.2 0.6 0.6 0 0.3-0.3 0.6-0.6 0.6-0.3 0-0.6-0.3-0.6-0.6z"/><path class="a" d="m11.1 111c0-0.3 0.3-0.6 0.6-0.6 0.3 0 0.6 0.3 0.6 0.6 0 0.4-0.3 0.6-0.6 0.6-0.3 0-0.6-0.2-0.6-0.6z"/><path class="a" d="m10.1 97.5c0-0.3 0.2-0.6 0.6-0.6 0.3 0 0.6 0.3 0.6 0.6 0 0.3-0.3 0.6-0.6 0.6-0.4 0-0.6-0.3-0.6-0.6z"/><path class="a" d="m11.1 83.9c0-0.3 0.3-0.6 0.6-0.6 0.3 0 0.6 0.3 0.6 0.6 0 0.3-0.3 0.6-0.6 0.6-0.3 0-0.6-0.2-0.6-0.6z"/><path class="a" d="m15.5 70.7c0 0.3-0.3 0.6-0.6 0.6-0.3 0-0.6-0.3-0.6-0.6 0-0.3 0.3-0.6 0.6-0.6 0.3 0 0.6 0.3 0.6 0.6z"/><path class="a" d="m19.5 58.1c0-0.3 0.3-0.5 0.6-0.5 0.3 0 0.6 0.2 0.6 0.5 0 0.4-0.3 0.6-0.6 0.6-0.3 0-0.6-0.2-0.6-0.6z"/><path class="a" d="m27.8 46.6c0 0.3-0.3 0.5-0.6 0.5-0.3 0-0.6-0.2-0.6-0.5 0-0.4 0.3-0.6 0.6-0.6 0.3 0 0.6 0.2 0.6 0.6z"/><path class="a" d="m35.5 36.2c0-0.3 0.2-0.6 0.6-0.6 0.3 0 0.5 0.3 0.5 0.6 0 0.3-0.2 0.6-0.5 0.6-0.4 0-0.6-0.3-0.6-0.6z"/><path class="a" d="m47 27.4c0 0.3-0.3 0.6-0.6 0.6-0.3 0-0.6-0.3-0.6-0.6 0-0.3 0.3-0.6 0.6-0.6 0.3 0 0.6 0.3 0.6 0.6z"/><path class="a" d="m57.4 20.3c0-0.4 0.3-0.6 0.6-0.6 0.3 0 0.6 0.3 0.6 0.6 0 0.3-0.3 0.6-0.6 0.6-0.3 0-0.6-0.3-0.6-0.6z"/><path class="a" d="m71.2 15.1c0 0.3-0.3 0.6-0.6 0.6-0.3 0-0.6-0.3-0.6-0.6 0-0.3 0.3-0.6 0.6-0.6 0.3 0 0.6 0.3 0.6 0.6z"/><path class="a" d="m83.2 11.9c0-0.3 0.3-0.6 0.6-0.6 0.3 0 0.6 0.3 0.6 0.6 0 0.3-0.3 0.6-0.6 0.6-0.3 0-0.6-0.3-0.6-0.6z"/><path class="a" d="m96.8 10.8c0-0.3 0.2-0.6 0.6-0.6 0.3 0 0.6 0.3 0.6 0.6 0 0.4-0.3 0.6-0.6 0.6-0.4 0-0.6-0.2-0.6-0.6z"/><path class="a" d="m110.3 11.9c0-0.3 0.3-0.6 0.6-0.6 0.4 0 0.6 0.3 0.6 0.6 0 0.3-0.2 0.6-0.6 0.6-0.3 0-0.6-0.3-0.6-0.6z"/><path class="a" d="m123.6 15.1c0-0.4 0.2-0.6 0.6-0.6 0.3 0 0.5 0.2 0.5 0.6 0 0.3-0.2 0.6-0.5 0.6-0.4 0-0.6-0.3-0.6-0.6z"/><path class="a" d="m136.1 20.3c0-0.4 0.3-0.6 0.6-0.6 0.4 0 0.6 0.2 0.6 0.6 0 0.3-0.2 0.6-0.6 0.6-0.3 0-0.6-0.3-0.6-0.6z"/><path class="a" d="m147.7 27.4c0-0.3 0.3-0.6 0.6-0.6 0.4 0 0.6 0.3 0.6 0.6 0 0.3-0.2 0.6-0.6 0.6-0.3 0-0.6-0.3-0.6-0.6z"/><path class="a" d="m158.1 36.2c0-0.3 0.2-0.6 0.6-0.6 0.3 0 0.6 0.3 0.6 0.6 0 0.3-0.3 0.6-0.6 0.6-0.4 0-0.6-0.3-0.6-0.6z"/><path class="a" d="m166.9 46.6c0-0.4 0.3-0.6 0.6-0.6 0.3 0 0.6 0.2 0.6 0.6 0 0.3-0.3 0.6-0.6 0.6-0.3 0-0.6-0.3-0.6-0.6z"/><path class="a" d="m175.3 58.1c0 0.4-0.3 0.7-0.7 0.7-0.3 0-0.6-0.3-0.6-0.7 0-0.3 0.3-0.6 0.6-0.6 0.4 0 0.7 0.3 0.7 0.6z"/><path class="a" d="m180.5 70.7c0 0.4-0.3 0.6-0.7 0.6-0.3 0-0.6-0.2-0.6-0.6 0-0.3 0.3-0.6 0.6-0.6 0.4 0 0.7 0.3 0.7 0.6z"/><path class="a" d="m183.6 83.9c0 0.4-0.2 0.7-0.6 0.7-0.3 0-0.6-0.3-0.6-0.7 0-0.3 0.3-0.6 0.6-0.6 0.4 0 0.6 0.3 0.6 0.6z"/><path class="a" d="m195 97.5q0 0.1-0.1 0.1-0.1 0-0.1-0.1 0-0.1 0.1-0.1 0.1 0 0.1 0.1z"/><path class="a" d="m194.1 111.1q0 0-0.1 0-0.1 0-0.1 0 0-0.1 0.1-0.1 0.1 0 0.1 0.1z"/><path class="a" d="m191.2 124.3q0 0.1-0.1 0.1 0 0-0.1-0.1 0.1 0 0.1 0 0.1 0 0.1 0z"/><path class="a" d="m186.4 137.1q0-0.1 0.1-0.1 0.1 0 0.1 0.1 0 0.1-0.1 0.1c-0.1 0-0.1 0-0.1-0.1z"/><path class="a" d="m180.2 149.1q0 0.1-0.1 0.1-0.1 0-0.1-0.1 0 0 0.1 0 0.1 0 0.1 0z"/><path class="a" d="m172.2 160.1q0 0.1-0.1 0.1-0.1 0-0.1-0.1 0 0 0.1 0 0.1 0 0.1 0z"/><path class="a" d="m162.5 169.9q0-0.1 0.1-0.1 0.1 0 0.1 0.1 0 0.1-0.1 0.1c0 0-0.1 0-0.1-0.1z"/><path class="a" d="m152 178.3q0 0.1-0.1 0.1-0.1 0-0.1-0.1 0-0.1 0.1-0.1 0.1 0 0.1 0.1z"/><path class="a" d="m140.2 185.1q0 0.1-0.1 0.1-0.1 0-0.1-0.1 0-0.1 0.1-0.1 0.1 0 0.1 0.1z"/><path class="a" d="m127.4 190.2q0-0.1 0.1-0.1 0.1 0 0.1 0.1 0 0.1-0.1 0.1-0.1 0-0.1-0.1z"/><path class="a" d="m114.4 193.5q0 0.1-0.1 0.1-0.1 0-0.1-0.1 0-0.1 0.1-0.1 0.1 0 0.1 0.1z"/><path class="a" d="m100.9 194.9q0 0.1-0.1 0.1-0.1 0-0.1-0.1 0-0.1 0.1-0.1 0.1 0 0.1 0.1z"/><path class="a" d="m87.1 194.4q0-0.1 0.1-0.1 0.1 0 0.1 0.1 0 0.1-0.1 0.1-0.1 0-0.1-0.1z"/><path class="a" d="m73.7 192.1q0-0.1 0.1-0.1 0.1 0 0.1 0.1 0 0.1-0.1 0.1c-0.1 0-0.1-0.1-0.1-0.1z"/><path class="a" d="m60.7 187.9q0-0.1 0.1-0.1 0.1 0 0.1 0.1 0 0.1-0.1 0.1c0 0-0.1-0.1-0.1-0.1z"/><path class="a" d="m48.5 181.9q0 0 0.1 0 0 0 0 0 0 0.1 0 0.1-0.1 0-0.1-0.1z"/><path class="a" d="m37.3 174.3q0 0 0 0 0.1 0 0.1 0 0 0.1-0.1 0.1c0 0-0.1-0.1 0-0.1z"/><path class="a" d="m27.1 165.2q0 0 0.1 0 0.1 0 0.1 0 0 0.1-0.1 0.1c0 0-0.1-0.1-0.1-0.1z"/><path class="a" d="m18.5 154.8q0 0-0.1 0 0 0 0 0 0-0.1 0-0.1 0.1 0 0.1 0.1z"/><path class="a" d="m11.2 143.3q0-0.1 0-0.1 0.1 0 0.1 0.1 0 0-0.1 0 0 0 0 0z"/><path class="a" d="m5.7 130.8q0 0 0 0 0.1 0 0.1 0 0 0.1-0.1 0.1 0 0 0-0.1z"/><path class="a" d="m2 117.8q0 0 0 0-0.1 0-0.1 0 0-0.1 0.1-0.1 0 0 0 0.1z"/><path class="a" d="m0 104.3q0-0.1 0.1-0.1 0 0 0 0.1 0 0 0 0-0.1 0-0.1 0z"/><path class="a" d="m0 90.7c0 0 0-0.1 0.1-0.1q0 0 0 0.1 0 0 0 0-0.1 0-0.1 0z"/><path class="a" d="m1.9 77.2q0 0 0.1 0 0 0 0 0 0 0.1 0 0.1-0.1 0-0.1-0.1z"/><path class="a" d="m5.8 64.1q0 0.1-0.1 0.1 0 0 0-0.1 0 0 0 0 0.1 0 0.1 0z"/><path class="a" d="m11.3 51.7q0 0.1-0.1 0.1 0 0 0-0.1 0 0 0 0 0.1 0 0.1 0z"/><path class="a" d="m18.5 40.2q0 0-0.1 0 0 0 0 0 0-0.1 0-0.1 0.1 0 0.1 0.1z"/><path class="a" d="m27.1 29.8q0-0.1 0.1-0.1 0.1 0 0.1 0.1 0 0-0.1 0-0.1 0-0.1 0z"/><path class="a" d="m37.4 20.7q0 0-0.1 0 0 0 0 0 0-0.1 0-0.1 0.1 0 0.1 0.1z"/><path class="a" d="m48.6 13.1q0 0 0 0-0.1 0-0.1 0 0-0.1 0.1-0.1 0 0 0 0.1z"/><path class="a" d="m60.8 7.1q0 0 0 0 0.1 0 0.1 0 0 0.1-0.1 0.1 0 0 0-0.1z"/><path class="a" d="m73.8 2.9q0 0 0 0-0.1 0-0.1 0 0-0.1 0.1-0.1 0 0 0 0.1z"/><path class="a" d="m87.1 0.5q0 0 0.1 0 0 0 0 0 0 0.1 0 0.1c-0.1 0-0.1 0-0.1-0.1z"/><path class="a" d="m100.7 0.1q0-0.1 0.1-0.1c0 0 0 0 0 0.1q0 0 0 0-0.1 0-0.1 0z"/><path class="a" d="m114.3 1.5q0-0.1 0-0.1 0.1 0 0.1 0.1 0 0-0.1 0 0 0 0 0z"/><path class="a" d="m127.5 4.8q0-0.1 0-0.1 0.1 0 0.1 0.1 0 0-0.1 0 0 0 0 0z"/><path class="a" d="m140.1 9.9q0-0.1 0-0.1 0.1 0 0.1 0.1 0 0-0.1 0c0 0 0 0 0 0z"/><path class="a" d="m151.9 16.7q0-0.1 0-0.1 0.1 0 0.1 0.1 0 0-0.1 0c0 0-0.1 0 0 0z"/><path class="a" d="m162.6 25q0 0 0 0 0.1 0 0.1 0 0 0.1-0.1 0.1 0 0 0-0.1z"/><path class="a" d="m172 34.8q0 0 0.1 0 0 0 0 0 0 0.1 0 0.1-0.1 0-0.1-0.1z"/><path class="a" d="m180 45.8q0 0 0.1 0 0.1 0 0.1 0 0 0.1-0.1 0.1c0 0-0.1 0-0.1-0.1z"/><path class="a" d="m186.4 57.8q0 0 0.1-0.1 0.1 0.1 0.1 0.1 0 0.1-0.1 0.1c-0.1 0-0.1 0-0.1-0.1z"/><path class="a" d="m191.2 70.6q0 0.1-0.1 0.1 0 0-0.1-0.1 0.1-0.1 0.1-0.1 0.1 0 0.1 0.1z"/><path class="a" d="m193.9 83.9q0-0.1 0.1-0.1 0.1 0 0.1 0.1 0 0.1-0.1 0.1-0.1 0-0.1-0.1z"/></g></svg>