<svg version="1.2" xmlns="http://www.w3.org/2000/svg" viewBox="0 0 10 294" width="10" height="294"><defs><clipPath clipPathUnits="userSpaceOnUse" id="cp1"><path d="m-1866-2567h1920v9844h-1920z"/></clipPath></defs><style>.a{fill:#272425}</style><g clip-path="url(#cp1)"><path fill-rule="evenodd" class="a" d="m3.7 39.1q1-0.2 2 0c3.1 0.5 4.7 2.9 4.2 5.3q0 0.2-0.2 0.3c-0.9 2.6-3.9 3.2-6.3 2.4-0.9-0.2-1.7-0.7-2.3-1.4q0 0-0.1-0.1c-0.6-0.7-1-1.5-1-2.5 0-1.8 1.4-3.5 3.5-3.9q0.1 0 0.1 0 0.1-0.1 0.1-0.1zm0.6 0.9q-0.8 0-1.6 0.4-0.6 0.3-1 0.8c-0.7 0.9-1 2.1-0.7 3.1 0.3 0.6 0.9 1.2 1.7 1.6 2.5 1.1 6.6 0.2 6.5-2.5q0-0.3 0-0.6c-0.4-1-1.3-2-2.5-2.5-0.7-0.2-1.5-0.3-2.4-0.3z"/><path fill-rule="evenodd" class="a" d="m4.4 33.7c0.4-0.2 0.9-0.2 1.4-0.2q0.3 0 0.5 0.1 0 0 0 0 0.1 0 0.2 0.1 0.2 0 0.4 0.2c0.5 0.3 0.7 0.7 0.9 1.2q0.3 0.6 0.2 1.2 0 0.1 0 0.2-0.1 0.4-0.4 0.8-0.3 0.4-0.8 0.6c-0.5 0.2-1.2 0.3-1.9 0.2-1.2-0.3-2.1-1.4-2-2.3q0-0.2 0-0.4c0.2-0.7 0.6-1.4 1.5-1.7zm-0.7 1.2c-0.6 0.7-0.4 1.7 0.7 2.2 0.7 0.3 1.7 0.5 2.4 0.1 0.7-0.3 0.9-0.9 0.8-1.4q-0.1-0.2-0.1-0.3c-0.2-0.4-0.7-0.8-1.2-1-0.9-0.3-2-0.1-2.6 0.4z"/><path class="a" d="m5.5 18c1 1.7 1.3 3.8 1 5.6-0.4 2.4-2.2 5.5-0.6 7.8 0 0.1 0 0.4-0.2 0.3-1.3-1-1-2.9-0.8-4.1 0.6-3 1.8-6 0.2-9-0.2-0.3 0.2-1.1 0.4-0.6z"/><path fill-rule="evenodd" class="a" d="m6 14.9c0.3 0.1 0.5 0.4 0.6 0.7q0.1 0 0.1 0.1c0.2 0.5-0.1 0.9-0.5 1.1-0.3 0.3-0.8 0.4-1.2 0.3-0.4-0.1-0.8-0.3-0.9-0.8q-0.1-0.1-0.1-0.3c-0.1-0.4 0.1-0.8 0.5-1 0.3-0.4 0.9-0.5 1.5-0.1zm-1.8 1.1q0.1 0.1 0.1 0.2 0.1 0.2 0.3 0.3c0.4 0.3 1 0.3 1.4 0.1q0.1-0.1 0.2-0.1c0.5-0.5 0.2-1.1-0.5-1.4-0.8-0.3-1.6 0.2-1.5 0.9z"/><path class="a" d="m5.9 0.3c-1.6 2.3 0.2 5.4 0.6 7.8 0.3 1.9 0 3.9-1 5.6-0.2 0.5-0.6-0.3-0.5-0.6 1.7-2.9 0.5-6-0.1-9-0.2-1.2-0.5-3.1 0.8-4.1 0.2-0.1 0.2 0.2 0.2 0.3z"/><path fill-rule="evenodd" class="a" d="m3.7 88.4q1-0.2 2 0c3.1 0.5 4.7 2.9 4.2 5.3q0 0.3-0.2 0.3c-0.9 2.6-3.9 3.2-6.3 2.4-0.9-0.2-1.7-0.7-2.3-1.4q0 0-0.1-0.1c-0.6-0.6-1-1.5-1-2.5 0-1.8 1.4-3.5 3.5-3.9q0.1 0 0.1 0 0.1 0 0.1-0.1zm0.6 0.9q-0.8 0-1.6 0.4-0.6 0.3-1 0.8c-0.7 0.9-1 2.1-0.7 3.1 0.3 0.6 0.9 1.2 1.7 1.6 2.5 1.1 6.6 0.2 6.5-2.5q0-0.3 0-0.5c-0.4-1.1-1.3-2-2.5-2.5-0.7-0.3-1.5-0.4-2.4-0.4z"/><path fill-rule="evenodd" class="a" d="m4.4 83c0.4-0.1 0.9-0.2 1.4-0.2q0.3 0 0.5 0.1 0 0 0 0 0.1 0 0.2 0.1 0.2 0.1 0.4 0.2c0.5 0.3 0.7 0.7 0.9 1.2q0.3 0.6 0.2 1.2 0 0.1 0 0.2-0.1 0.5-0.4 0.8-0.3 0.4-0.8 0.6c-0.5 0.2-1.2 0.4-1.9 0.2-1.2-0.2-2.1-1.3-2-2.3q0-0.2 0-0.4c0.2-0.7 0.6-1.4 1.5-1.7zm-0.7 1.2c-0.6 0.7-0.4 1.7 0.7 2.2 0.7 0.3 1.7 0.5 2.4 0.1 0.7-0.3 0.9-0.9 0.8-1.4q-0.1-0.1-0.1-0.2c-0.2-0.5-0.7-0.9-1.2-1.1-0.9-0.3-2-0.1-2.6 0.4z"/><path class="a" d="m5.5 67.3c1 1.7 1.3 3.8 1 5.7-0.4 2.4-2.2 5.4-0.6 7.7 0 0.1 0 0.4-0.2 0.3-1.3-1-1-2.8-0.8-4.1 0.6-3 1.8-6 0.2-9-0.2-0.3 0.2-1.1 0.4-0.6z"/><path fill-rule="evenodd" class="a" d="m6 64.2c0.3 0.2 0.5 0.4 0.6 0.7q0.1 0 0.1 0.1c0.2 0.5-0.1 0.9-0.5 1.2-0.3 0.2-0.8 0.3-1.2 0.2-0.4-0.1-0.8-0.3-0.9-0.7q-0.1-0.2-0.1-0.4c-0.1-0.4 0.1-0.8 0.5-1 0.3-0.3 0.9-0.4 1.5-0.1zm-1.8 1.1q0.1 0.1 0.1 0.2 0.1 0.2 0.3 0.3c0.4 0.3 1 0.3 1.4 0.1q0.1 0 0.2-0.1c0.5-0.4 0.2-1.1-0.5-1.4-0.8-0.3-1.6 0.2-1.5 0.9z"/><path class="a" d="m5.9 49.7c-1.6 2.3 0.2 5.3 0.6 7.7 0.3 1.9 0 3.9-1 5.6-0.2 0.5-0.6-0.3-0.5-0.6 1.7-2.9 0.5-6-0.1-9-0.2-1.2-0.5-3.1 0.8-4.1 0.2-0.1 0.2 0.3 0.2 0.4z"/><path fill-rule="evenodd" class="a" d="m3.7 137.8q1-0.2 2 0c3.1 0.5 4.7 2.9 4.2 5.3q0 0.2-0.2 0.2c-0.9 2.6-3.9 3.2-6.3 2.4-0.9-0.2-1.7-0.6-2.3-1.3q0-0.1-0.1-0.1c-0.6-0.7-1-1.6-1-2.6 0-1.8 1.4-3.4 3.5-3.9q0.1 0 0.1 0 0.1 0 0.1 0zm0.6 0.8q-0.8 0.1-1.6 0.4-0.6 0.3-1 0.9c-0.7 0.8-1 2-0.7 3 0.3 0.7 0.9 1.2 1.7 1.7 2.5 1.1 6.6 0.1 6.5-2.6q0-0.3 0-0.5c-0.4-1.1-1.3-2-2.5-2.5-0.7-0.3-1.5-0.4-2.4-0.4z"/><path fill-rule="evenodd" class="a" d="m4.4 132.3c0.4-0.1 0.9-0.2 1.4-0.2q0.3 0 0.5 0.1 0 0 0 0 0.1 0.1 0.2 0.1 0.2 0.1 0.4 0.2c0.5 0.3 0.7 0.8 0.9 1.2q0.3 0.6 0.2 1.2 0 0.1 0 0.2-0.1 0.5-0.4 0.8-0.3 0.4-0.8 0.6c-0.5 0.3-1.2 0.4-1.9 0.2-1.2-0.2-2.1-1.3-2-2.3q0-0.2 0-0.4c0.2-0.7 0.6-1.4 1.5-1.7zm-0.7 1.2c-0.6 0.8-0.4 1.7 0.7 2.2 0.7 0.4 1.7 0.6 2.4 0.2 0.7-0.4 0.9-1 0.8-1.5q-0.1-0.1-0.1-0.2c-0.2-0.5-0.7-0.9-1.2-1.1-0.9-0.3-2-0.1-2.6 0.4z"/><path class="a" d="m5.5 116.6c1 1.8 1.3 3.8 1 5.7-0.4 2.4-2.2 5.4-0.6 7.7 0 0.1 0 0.5-0.2 0.3-1.3-0.9-1-2.8-0.8-4.1 0.6-3 1.8-6 0.2-9-0.2-0.2 0.2-1 0.4-0.6z"/><path fill-rule="evenodd" class="a" d="m6 113.5c0.3 0.2 0.5 0.4 0.6 0.7q0.1 0.1 0.1 0.1c0.2 0.5-0.1 0.9-0.5 1.2-0.3 0.2-0.8 0.3-1.2 0.2-0.4-0.1-0.8-0.3-0.9-0.7q-0.1-0.2-0.1-0.4c-0.1-0.4 0.1-0.8 0.5-1 0.3-0.3 0.9-0.4 1.5-0.1zm-1.8 1.2q0.1 0 0.1 0.1 0.1 0.2 0.3 0.4c0.4 0.2 1 0.2 1.4 0q0.1 0 0.2-0.1c0.5-0.4 0.2-1.1-0.5-1.4-0.8-0.2-1.6 0.3-1.5 1z"/><path class="a" d="m5.9 99c-1.6 2.3 0.2 5.3 0.6 7.7 0.3 1.9 0 3.9-1 5.7-0.2 0.4-0.6-0.4-0.5-0.7 1.7-2.9 0.5-5.9-0.1-8.9-0.2-1.3-0.5-3.2 0.8-4.1 0.2-0.2 0.2 0.2 0.2 0.3z"/><path fill-rule="evenodd" class="a" d="m3.7 187.1q1-0.2 2 0c3.1 0.5 4.7 2.9 4.2 5.3q0 0.2-0.2 0.2c-0.9 2.7-3.9 3.2-6.3 2.4-0.9-0.2-1.7-0.6-2.3-1.3q0-0.1-0.1-0.1c-0.6-0.7-1-1.6-1-2.6 0-1.8 1.4-3.4 3.5-3.9q0.1 0 0.1 0 0.1 0 0.1 0zm0.6 0.8q-0.8 0.1-1.6 0.4-0.6 0.3-1 0.9c-0.7 0.9-1 2-0.7 3 0.3 0.7 0.9 1.3 1.7 1.7 2.5 1.1 6.6 0.1 6.5-2.6q0-0.3 0-0.5c-0.4-1.1-1.3-2-2.5-2.5-0.7-0.2-1.5-0.4-2.4-0.4z"/><path fill-rule="evenodd" class="a" d="m4.4 181.6c0.4-0.1 0.9-0.2 1.4-0.2q0.3 0 0.5 0.1 0 0 0 0 0.1 0.1 0.2 0.1 0.2 0.1 0.4 0.2c0.5 0.3 0.7 0.8 0.9 1.2q0.3 0.6 0.2 1.3 0 0.1 0 0.2-0.1 0.4-0.4 0.7-0.3 0.4-0.8 0.6c-0.5 0.3-1.2 0.4-1.9 0.2-1.2-0.2-2.1-1.3-2-2.3q0-0.2 0-0.4c0.2-0.7 0.6-1.4 1.5-1.7zm-0.7 1.2c-0.6 0.8-0.4 1.7 0.7 2.2 0.7 0.4 1.7 0.6 2.4 0.2 0.7-0.4 0.9-1 0.8-1.5q-0.1-0.1-0.1-0.2c-0.2-0.5-0.7-0.9-1.2-1.1-0.9-0.3-2-0.1-2.6 0.4z"/><path class="a" d="m5.5 165.9c1 1.8 1.3 3.8 1 5.7-0.4 2.4-2.2 5.4-0.6 7.7 0 0.1 0 0.5-0.2 0.3-1.3-0.9-1-2.8-0.8-4.1 0.6-3 1.8-6 0.2-8.9-0.2-0.3 0.2-1.1 0.4-0.7z"/><path fill-rule="evenodd" class="a" d="m6 162.8c0.3 0.2 0.5 0.5 0.6 0.8q0.1 0 0.1 0c0.2 0.5-0.1 0.9-0.5 1.2-0.3 0.2-0.8 0.3-1.2 0.2-0.4 0-0.8-0.3-0.9-0.7q-0.1-0.2-0.1-0.4c-0.1-0.4 0.1-0.8 0.5-1 0.3-0.3 0.9-0.4 1.5-0.1zm-1.8 1.2q0.1 0.1 0.1 0.1 0.1 0.2 0.3 0.4c0.4 0.2 1 0.2 1.4 0q0.1 0 0.2-0.1c0.5-0.4 0.2-1.1-0.5-1.3-0.8-0.3-1.6 0.2-1.5 0.9z"/><path class="a" d="m5.9 148.3c-1.6 2.3 0.2 5.3 0.6 7.7 0.3 1.9 0 3.9-1 5.7-0.2 0.4-0.6-0.4-0.5-0.6 1.7-3 0.5-6-0.1-9-0.2-1.3-0.5-3.1 0.8-4.1 0.2-0.2 0.2 0.2 0.2 0.3z"/><path fill-rule="evenodd" class="a" d="m3.7 236.4q1-0.2 2 0c3.1 0.5 4.7 2.9 4.2 5.3q0 0.2-0.2 0.3c-0.9 2.6-3.9 3.2-6.3 2.3-0.9-0.2-1.7-0.6-2.3-1.3q0-0.1-0.1-0.1c-0.6-0.7-1-1.6-1-2.6 0-1.8 1.4-3.4 3.5-3.9q0.1 0 0.1 0 0.1 0 0.1 0zm0.6 0.8q-0.8 0.1-1.6 0.5-0.6 0.3-1 0.8c-0.7 0.9-1 2-0.7 3 0.3 0.7 0.9 1.3 1.7 1.7 2.5 1.1 6.6 0.1 6.5-2.6q0-0.2 0-0.5c-0.4-1.1-1.3-2-2.5-2.5-0.7-0.2-1.5-0.3-2.4-0.4z"/><path fill-rule="evenodd" class="a" d="m4.4 230.9c0.4-0.1 0.9-0.2 1.4-0.1q0.3 0 0.5 0.1 0 0 0 0 0.1 0 0.2 0 0.2 0.1 0.4 0.2c0.5 0.4 0.7 0.8 0.9 1.3q0.3 0.5 0.2 1.2 0 0.1 0 0.2-0.1 0.4-0.4 0.8-0.3 0.3-0.8 0.5c-0.5 0.3-1.2 0.4-1.9 0.3-1.2-0.3-2.1-1.4-2-2.4q0-0.2 0-0.3c0.2-0.8 0.6-1.5 1.5-1.8zm-0.7 1.2c-0.6 0.8-0.4 1.8 0.7 2.3 0.7 0.3 1.7 0.5 2.4 0.1 0.7-0.4 0.9-0.9 0.8-1.5q-0.1-0.1-0.1-0.2c-0.2-0.5-0.7-0.9-1.2-1.1-0.9-0.3-2-0.1-2.6 0.4z"/><path class="a" d="m5.5 215.3c1 1.7 1.3 3.7 1 5.6-0.4 2.4-2.2 5.4-0.6 7.8 0 0 0 0.4-0.2 0.3-1.3-1-1-2.9-0.8-4.1 0.6-3 1.8-6.1 0.2-9-0.2-0.3 0.2-1.1 0.4-0.6z"/><path fill-rule="evenodd" class="a" d="m6 212.1c0.3 0.2 0.5 0.5 0.6 0.8q0.1 0 0.1 0c0.2 0.5-0.1 1-0.5 1.2-0.3 0.2-0.8 0.3-1.2 0.2-0.4 0-0.8-0.3-0.9-0.7q-0.1-0.2-0.1-0.4c-0.1-0.4 0.1-0.8 0.5-1 0.3-0.3 0.9-0.4 1.5-0.1zm-1.8 1.2q0.1 0.1 0.1 0.1 0.1 0.2 0.3 0.4c0.4 0.2 1 0.2 1.4 0q0.1 0 0.2-0.1c0.5-0.4 0.2-1.1-0.5-1.3-0.8-0.3-1.6 0.2-1.5 0.9z"/><path class="a" d="m5.9 197.6c-1.6 2.3 0.2 5.4 0.6 7.7 0.3 1.9 0 4-1 5.7-0.2 0.5-0.6-0.3-0.5-0.6 1.7-3 0.5-6-0.1-9-0.2-1.3-0.5-3.1 0.8-4.1 0.2-0.1 0.2 0.2 0.2 0.3z"/><path fill-rule="evenodd" class="a" d="m3.7 285.7q1-0.2 2 0c3.1 0.5 4.7 2.9 4.2 5.3q0 0.2-0.2 0.3c-0.9 2.6-3.9 3.2-6.3 2.3-0.9-0.2-1.7-0.6-2.3-1.3q0 0-0.1-0.1c-0.6-0.7-1-1.5-1-2.6 0-1.7 1.4-3.4 3.5-3.9q0.1 0 0.1 0 0.1 0 0.1 0zm0.6 0.8q-0.8 0.1-1.6 0.5-0.6 0.3-1 0.8c-0.7 0.9-1 2-0.7 3.1 0.3 0.6 0.9 1.2 1.7 1.6 2.5 1.1 6.6 0.2 6.5-2.5q0-0.3 0-0.6c-0.4-1.1-1.3-2-2.5-2.5-0.7-0.2-1.5-0.3-2.4-0.4z"/><path fill-rule="evenodd" class="a" d="m4.4 280.3c0.4-0.2 0.9-0.3 1.4-0.2q0.3 0 0.5 0.1 0 0 0 0 0.1 0 0.2 0 0.2 0.1 0.4 0.2c0.5 0.4 0.7 0.8 0.9 1.3q0.3 0.5 0.2 1.2 0 0.1 0 0.2-0.1 0.4-0.4 0.8-0.3 0.3-0.8 0.5c-0.5 0.3-1.2 0.4-1.9 0.3-1.2-0.3-2.1-1.4-2-2.4q0-0.1 0-0.3c0.2-0.8 0.6-1.4 1.5-1.7zm-0.7 1.2c-0.6 0.7-0.4 1.7 0.7 2.2 0.7 0.3 1.7 0.5 2.4 0.1 0.7-0.4 0.9-0.9 0.8-1.5q-0.1-0.1-0.1-0.2c-0.2-0.4-0.7-0.8-1.2-1-0.9-0.3-2-0.2-2.6 0.4z"/><path class="a" d="m5.5 264.6c1 1.7 1.3 3.7 1 5.6-0.4 2.4-2.2 5.5-0.6 7.8 0 0.1 0 0.4-0.2 0.3-1.3-1-1-2.9-0.8-4.1 0.6-3 1.8-6 0.2-9-0.2-0.3 0.2-1.1 0.4-0.6z"/><path fill-rule="evenodd" class="a" d="m6 261.5c0.3 0.1 0.5 0.4 0.6 0.7q0.1 0 0.1 0c0.2 0.6-0.1 1-0.5 1.2-0.3 0.2-0.8 0.3-1.2 0.2-0.4 0-0.8-0.2-0.9-0.7q-0.1-0.2-0.1-0.3c-0.1-0.4 0.1-0.8 0.5-1.1 0.3-0.3 0.9-0.4 1.5 0zm-1.8 1.1q0.1 0.1 0.1 0.2 0.1 0.2 0.3 0.3c0.4 0.2 1 0.2 1.4 0.1q0.1-0.1 0.2-0.1c0.5-0.5 0.2-1.2-0.5-1.4-0.8-0.3-1.6 0.2-1.5 0.9z"/><path class="a" d="m5.9 246.9c-1.6 2.3 0.2 5.4 0.6 7.8 0.3 1.8 0 3.9-1 5.6-0.2 0.5-0.6-0.3-0.5-0.6 1.7-3 0.5-6-0.1-9-0.2-1.2-0.5-3.1 0.8-4.1 0.2-0.1 0.2 0.2 0.2 0.3z"/></g></svg>