<svg version="1.2" xmlns="http://www.w3.org/2000/svg" viewBox="0 0 70 109" width="70" height="109"><defs><clipPath clipPathUnits="userSpaceOnUse" id="cp1"><path d="m0-3343h1920v9844h-1920z"/></clipPath></defs><style></style><g clip-path="url(#cp1)"><g style="opacity:.5"><path  d="m39.2 54.1c0 0.2 0 0.2-0.2 0.2-0.1 0-0.2 0-0.2-0.2 0-0.1 0.1-0.2 0.2-0.2 0.2 0 0.2 0.1 0.2 0.2z"/><path  d="m38.1 61.5c0 0.2-0.1 0.3-0.2 0.3-0.2 0-0.3-0.1-0.3-0.3 0-0.1 0.1-0.2 0.3-0.2 0.1 0 0.2 0.1 0.2 0.2z"/><path  d="m34.7 68.2c0 0.2-0.1 0.3-0.3 0.3-0.1 0-0.2-0.1-0.2-0.3 0-0.1 0.1-0.2 0.2-0.2 0.2 0 0.3 0.1 0.3 0.2z"/><path  d="m29.4 73.5c0 0.2-0.1 0.3-0.3 0.3-0.1 0-0.2-0.1-0.2-0.3 0-0.1 0.1-0.2 0.2-0.2 0.2 0 0.3 0.1 0.3 0.2z"/><path  d="m22.2 77c0-0.2 0.1-0.3 0.2-0.3 0.2 0 0.3 0.1 0.3 0.3 0 0.1-0.1 0.2-0.3 0.2-0.1 0-0.2-0.1-0.2-0.2z"/><path  d="m15.2 78.1c0 0.2 0 0.2-0.2 0.2-0.1 0-0.2 0-0.2-0.2 0-0.1 0.1-0.2 0.2-0.2 0.2 0 0.2 0.1 0.2 0.2z"/><path  d="m7.4 77c0-0.2 0.1-0.3 0.2-0.3 0.1 0 0.2 0.1 0.2 0.3 0 0.1-0.1 0.2-0.2 0.2-0.1 0-0.2-0.1-0.2-0.2z"/><path  d="m1.2 73.5c0 0.2-0.1 0.3-0.3 0.3-0.1 0-0.2-0.1-0.2-0.3 0-0.1 0.1-0.2 0.2-0.2 0.2 0 0.3 0.1 0.3 0.2z"/><path  d="m-4.6 68.2c0-0.1 0.1-0.2 0.2-0.2 0.2 0 0.3 0.1 0.3 0.2 0 0.2-0.1 0.3-0.3 0.3-0.1 0-0.2-0.1-0.2-0.3z"/><path  d="m-7.5 61.5c0 0.2-0.2 0.3-0.3 0.3-0.1 0-0.2-0.1-0.2-0.3 0-0.1 0.1-0.2 0.2-0.2 0.1 0 0.3 0.1 0.3 0.2z"/><path  d="m-9.2 54.1c0-0.1 0.1-0.2 0.2-0.2 0.2 0 0.3 0.1 0.3 0.2 0 0.2-0.1 0.3-0.3 0.3-0.1 0-0.2-0.1-0.2-0.3z"/><path  d="m-7.5 46.7c0 0.2-0.1 0.3-0.3 0.3-0.1 0-0.3-0.1-0.3-0.3 0-0.1 0.2-0.3 0.3-0.3 0.2 0 0.3 0.2 0.3 0.3z"/><path  d="m-4.7 40c0-0.1 0.2-0.3 0.3-0.3 0.2 0 0.3 0.2 0.3 0.3 0 0.2-0.1 0.3-0.3 0.3-0.1 0-0.3-0.1-0.3-0.3z"/><path  d="m1.2 34.7c0 0.2-0.1 0.3-0.3 0.3-0.1 0-0.2-0.1-0.2-0.3 0-0.1 0.1-0.3 0.2-0.3 0.2 0 0.3 0.2 0.3 0.3z"/><path  d="m7.3 31.3c0-0.2 0.2-0.3 0.3-0.3 0.2 0 0.3 0.1 0.3 0.3 0 0.1-0.1 0.3-0.3 0.3-0.1 0-0.3-0.1-0.3-0.3z"/><path  d="m14.8 30.1c0-0.1 0.1-0.2 0.2-0.2 0.2 0 0.3 0.1 0.3 0.2 0 0.2-0.1 0.3-0.3 0.3-0.1 0-0.2-0.1-0.2-0.3z"/><path  d="m22.2 31.3c0-0.1 0.1-0.2 0.2-0.2 0.2 0 0.3 0.1 0.3 0.2 0 0.1-0.1 0.3-0.3 0.3-0.1 0-0.2-0.2-0.2-0.3z"/><path  d="m28.9 34.7c0-0.1 0.1-0.2 0.2-0.2 0.2 0 0.3 0.1 0.3 0.2 0 0.2-0.1 0.3-0.3 0.3-0.1 0-0.2-0.2-0.2-0.3z"/><path  d="m34.2 40c0-0.1 0.1-0.2 0.2-0.2 0.2 0 0.3 0.1 0.3 0.2 0 0.2-0.1 0.3-0.3 0.3-0.1 0-0.2-0.1-0.2-0.3z"/><path  d="m38.1 46.7c0 0.1-0.1 0.2-0.2 0.2-0.2 0-0.3-0.1-0.3-0.2 0-0.1 0.1-0.2 0.3-0.2 0.1 0 0.2 0.1 0.2 0.2z"/><path  d="m45.8 54.1c0 0.4-0.4 0.8-0.8 0.8-0.4 0-0.7-0.4-0.7-0.8 0-0.4 0.3-0.7 0.7-0.7 0.4 0 0.8 0.3 0.8 0.7z"/><path  d="m44.8 61.6c0 0.4-0.3 0.7-0.7 0.7-0.4 0-0.8-0.3-0.8-0.7 0-0.4 0.4-0.8 0.8-0.8 0.4 0 0.7 0.4 0.7 0.8z"/><path  d="m40.6 68.6c0-0.4 0.3-0.7 0.7-0.7 0.4 0 0.7 0.3 0.7 0.7 0 0.4-0.3 0.7-0.7 0.7-0.4 0-0.7-0.3-0.7-0.7z"/><path  d="m36.2 74.7c0-0.4 0.3-0.8 0.7-0.8 0.4 0 0.7 0.4 0.7 0.8 0 0.4-0.3 0.7-0.7 0.7-0.4 0-0.7-0.3-0.7-0.7z"/><path  d="m30.4 79.5c0-0.4 0.3-0.8 0.7-0.8 0.4 0 0.7 0.4 0.7 0.8 0 0.4-0.3 0.7-0.7 0.7-0.4 0-0.7-0.3-0.7-0.7z"/><path  d="m23.6 82.7c0-0.4 0.3-0.8 0.7-0.8 0.4 0 0.7 0.4 0.7 0.8 0 0.4-0.3 0.7-0.7 0.7-0.4 0-0.7-0.3-0.7-0.7z"/><path  d="m17.7 84.1c0 0.4-0.4 0.7-0.8 0.7-0.4 0-0.7-0.3-0.7-0.7 0-0.4 0.3-0.8 0.7-0.8 0.4 0 0.8 0.4 0.8 0.8z"/><path  d="m10.2 83.6c0 0.4-0.4 0.7-0.8 0.7-0.4 0-0.7-0.3-0.7-0.7 0-0.4 0.3-0.8 0.7-0.8 0.4 0 0.8 0.4 0.8 0.8z"/><path  d="m3 81.3c0 0.4-0.3 0.7-0.7 0.7-0.5 0-0.8-0.3-0.8-0.7 0-0.4 0.3-0.8 0.8-0.8 0.4 0 0.7 0.4 0.7 0.8z"/><path  d="m-4.9 77.2c0-0.4 0.4-0.7 0.8-0.7 0.4 0 0.8 0.3 0.8 0.7 0 0.5-0.4 0.8-0.8 0.8-0.4 0-0.8-0.3-0.8-0.8z"/><path  d="m-10 71.8c0-0.5 0.3-0.8 0.8-0.8 0.4 0 0.7 0.3 0.7 0.8 0 0.4-0.3 0.7-0.7 0.7-0.5 0-0.8-0.3-0.8-0.7z"/><path  d="m-13.6 65.2c0-0.5 0.3-0.8 0.7-0.8 0.5 0 0.8 0.3 0.8 0.8 0 0.4-0.3 0.8-0.8 0.8-0.4 0-0.7-0.4-0.7-0.8z"/><path  d="m-14 57.9c0 0.4-0.3 0.8-0.7 0.8-0.5 0-0.8-0.4-0.8-0.8 0-0.4 0.3-0.8 0.8-0.8 0.4 0 0.7 0.4 0.7 0.8z"/><path  d="m-13.9 50.4c0 0.4-0.4 0.8-0.8 0.8-0.5 0-0.8-0.4-0.8-0.8 0-0.5 0.3-0.8 0.8-0.8 0.4 0 0.8 0.3 0.8 0.8z"/><path  d="m-13.7 43.1c0-0.5 0.4-0.8 0.8-0.8 0.5 0 0.8 0.3 0.8 0.8 0 0.4-0.3 0.8-0.8 0.8-0.4 0-0.8-0.4-0.8-0.8z"/><path  d="m-10 36.5c0-0.4 0.3-0.8 0.8-0.8 0.4 0 0.8 0.4 0.8 0.8 0 0.4-0.4 0.8-0.8 0.8-0.5 0-0.8-0.4-0.8-0.8z"/><path  d="m-4.9 31c0-0.4 0.4-0.8 0.8-0.8 0.4 0 0.8 0.4 0.8 0.8 0 0.5-0.4 0.8-0.8 0.8-0.4 0-0.8-0.3-0.8-0.8z"/><path  d="m3.1 27c0 0.4-0.4 0.8-0.8 0.8-0.5 0-0.8-0.4-0.8-0.8 0-0.5 0.3-0.8 0.8-0.8 0.4 0 0.8 0.3 0.8 0.8z"/><path  d="m10.2 24.7c0 0.4-0.3 0.8-0.8 0.8-0.4 0-0.8-0.4-0.8-0.8 0-0.5 0.4-0.8 0.8-0.8 0.5 0 0.8 0.3 0.8 0.8z"/><path  d="m17.7 24.2c0 0.4-0.3 0.8-0.8 0.8-0.4 0-0.8-0.4-0.8-0.8 0-0.4 0.4-0.8 0.8-0.8 0.5 0 0.8 0.4 0.8 0.8z"/><path  d="m23.5 25.6c0-0.4 0.4-0.8 0.8-0.8 0.4 0 0.8 0.4 0.8 0.8 0 0.4-0.4 0.8-0.8 0.8-0.4 0-0.8-0.4-0.8-0.8z"/><path  d="m30.3 28.8c0-0.4 0.4-0.8 0.8-0.8 0.4 0 0.8 0.4 0.8 0.8 0 0.4-0.4 0.8-0.8 0.8-0.4 0-0.8-0.4-0.8-0.8z"/><path  d="m36.1 33.6c0-0.4 0.4-0.8 0.8-0.8 0.4 0 0.8 0.4 0.8 0.8 0 0.4-0.4 0.8-0.8 0.8-0.4 0-0.8-0.4-0.8-0.8z"/><path  d="m40.5 39.7c0-0.5 0.4-0.8 0.8-0.8 0.4 0 0.8 0.3 0.8 0.8 0 0.4-0.4 0.7-0.8 0.7-0.4 0-0.8-0.3-0.8-0.7z"/><path  d="m44.8 46.7c0 0.4-0.3 0.7-0.7 0.7-0.4 0-0.8-0.3-0.8-0.7 0-0.4 0.4-0.8 0.8-0.8 0.4 0 0.7 0.4 0.7 0.8z"/><path  d="m49.8 54.1c0-0.7 0.5-1.2 1.2-1.2 0.7 0 1.3 0.5 1.3 1.2 0 0.7-0.6 1.3-1.3 1.3-0.7 0-1.2-0.6-1.2-1.3z"/><path  d="m49 61.6c0-0.7 0.5-1.2 1.2-1.2 0.7 0 1.3 0.5 1.3 1.2 0 0.7-0.6 1.3-1.3 1.3-0.7 0-1.2-0.6-1.2-1.3z"/><path  d="m49.2 68.8c0 0.7-0.6 1.2-1.3 1.2-0.7 0-1.2-0.5-1.2-1.2 0-0.7 0.5-1.3 1.2-1.3 0.7 0 1.3 0.6 1.3 1.3z"/><path  d="m42.9 75.3c0-0.7 0.6-1.3 1.3-1.3 0.6 0 1.2 0.6 1.2 1.3 0 0.7-0.5 1.3-1.2 1.3-0.7 0-1.3-0.6-1.3-1.3z"/><path  d="m37.9 80.9c0-0.7 0.5-1.3 1.2-1.3 0.7 0 1.3 0.6 1.3 1.3 0 0.7-0.6 1.2-1.3 1.2-0.7 0-1.2-0.5-1.2-1.2z"/><path  d="m31.8 85.3c0-0.7 0.5-1.3 1.2-1.3 0.7 0 1.3 0.6 1.3 1.3 0 0.7-0.6 1.3-1.3 1.3-0.7 0-1.2-0.6-1.2-1.3z"/><path  d="m24.9 88.4c0-0.7 0.6-1.3 1.3-1.3 0.6 0 1.2 0.6 1.2 1.3 0 0.7-0.5 1.2-1.2 1.2-0.7 0-1.3-0.5-1.3-1.2z"/><path  d="m17.5 89.9c0-0.7 0.6-1.2 1.3-1.2 0.7 0 1.3 0.5 1.3 1.2 0 0.7-0.6 1.3-1.3 1.3-0.7 0-1.3-0.6-1.3-1.3z"/><path  d="m12.5 89.9c0 0.7-0.5 1.3-1.2 1.3-0.7 0-1.3-0.6-1.3-1.3 0-0.7 0.6-1.2 1.3-1.2 0.7 0 1.2 0.5 1.2 1.2z"/><path  d="m2.6 88.4c0-0.7 0.6-1.3 1.3-1.3 0.7 0 1.3 0.6 1.3 1.3 0 0.7-0.6 1.2-1.3 1.2-0.7 0-1.3-0.5-1.3-1.2z"/><path  d="m-4.3 85.3c0-0.7 0.6-1.3 1.3-1.3 0.7 0 1.3 0.6 1.3 1.3 0 0.7-0.6 1.3-1.3 1.3-0.7 0-1.3-0.6-1.3-1.3z"/><path  d="m-10.4 80.9c0-0.7 0.6-1.3 1.3-1.3 0.8 0 1.3 0.6 1.3 1.3 0 0.7-0.5 1.3-1.3 1.3-0.7 0-1.3-0.6-1.3-1.3z"/><path  d="m-15.4 75.3c0-0.7 0.6-1.3 1.3-1.3 0.7 0 1.3 0.6 1.3 1.3 0 0.7-0.6 1.3-1.3 1.3-0.7 0-1.3-0.6-1.3-1.3z"/><path  d="m-19.2 68.8c0-0.8 0.6-1.3 1.3-1.3 0.8 0 1.3 0.5 1.3 1.3 0 0.7-0.5 1.3-1.3 1.3-0.7 0-1.3-0.6-1.3-1.3z"/><path  d="m-21.5 61.6c0-0.7 0.6-1.3 1.3-1.3 0.7 0 1.3 0.6 1.3 1.3 0 0.7-0.6 1.3-1.3 1.3-0.7 0-1.3-0.6-1.3-1.3z"/><path  d="m-22.3 54.1c0-0.7 0.6-1.3 1.3-1.3 0.7 0 1.3 0.6 1.3 1.3 0 0.8-0.5 1.3-1.3 1.3-0.7 0-1.3-0.5-1.3-1.3z"/><path  d="m-21.5 46.6c0-0.7 0.6-1.3 1.3-1.3 0.7 0 1.3 0.6 1.3 1.3 0 0.8-0.6 1.4-1.3 1.4-0.7 0-1.3-0.6-1.3-1.4z"/><path  d="m-19.2 39.5c0-0.7 0.6-1.3 1.3-1.3 0.8 0 1.4 0.6 1.4 1.3 0 0.7-0.6 1.3-1.4 1.3-0.7 0-1.3-0.6-1.3-1.3z"/><path  d="m-15.4 33c0-0.8 0.6-1.4 1.3-1.4 0.7 0 1.3 0.6 1.3 1.4 0 0.7-0.6 1.3-1.3 1.3-0.7 0-1.3-0.6-1.3-1.3z"/><path  d="m-10.4 27.4c0-0.8 0.6-1.4 1.3-1.4 0.8 0 1.4 0.6 1.4 1.4 0 0.7-0.6 1.3-1.4 1.3-0.7 0-1.3-0.6-1.3-1.3z"/><path  d="m-4.3 23c0-0.8 0.6-1.4 1.3-1.4 0.8 0 1.4 0.6 1.4 1.4 0 0.7-0.6 1.3-1.4 1.3-0.7 0-1.3-0.6-1.3-1.3z"/><path  d="m2.6 19.9c0-0.7 0.6-1.3 1.3-1.3 0.7 0 1.3 0.6 1.3 1.3 0 0.7-0.6 1.3-1.3 1.3-0.7 0-1.3-0.6-1.3-1.3z"/><path  d="m12.6 18.3c0 0.8-0.6 1.3-1.3 1.3-0.8 0-1.3-0.5-1.3-1.3 0-0.7 0.5-1.3 1.3-1.3 0.7 0 1.3 0.6 1.3 1.3z"/><path  d="m20.1 18.3c0 0.8-0.6 1.3-1.3 1.3-0.7 0-1.3-0.5-1.3-1.3 0-0.7 0.6-1.3 1.3-1.3 0.7 0 1.3 0.6 1.3 1.3z"/><path  d="m24.8 19.9c0-0.7 0.6-1.3 1.4-1.3 0.7 0 1.3 0.6 1.3 1.3 0 0.7-0.6 1.3-1.3 1.3-0.8 0-1.4-0.6-1.4-1.3z"/><path  d="m31.7 22.9c0-0.7 0.6-1.3 1.3-1.3 0.7 0 1.3 0.6 1.3 1.3 0 0.8-0.6 1.3-1.3 1.3-0.7 0-1.3-0.5-1.3-1.3z"/><path  d="m37.8 27.4c0-0.7 0.6-1.3 1.3-1.3 0.7 0 1.3 0.6 1.3 1.3 0 0.7-0.6 1.3-1.3 1.3-0.7 0-1.3-0.6-1.3-1.3z"/><path  d="m42.9 33c0-0.8 0.5-1.3 1.3-1.3 0.7 0 1.3 0.5 1.3 1.3 0 0.7-0.6 1.3-1.3 1.3-0.8 0-1.3-0.6-1.3-1.3z"/><path  d="m49.2 39.5c0 0.7-0.6 1.3-1.3 1.3-0.7 0-1.3-0.6-1.3-1.3 0-0.7 0.6-1.3 1.3-1.3 0.7 0 1.3 0.6 1.3 1.3z"/><path  d="m51.5 46.6c0 0.8-0.5 1.3-1.3 1.3-0.7 0-1.2-0.5-1.2-1.3 0-0.7 0.5-1.2 1.2-1.2 0.8 0 1.3 0.5 1.3 1.2z"/><path  d="m55.2 54.1c0-1 0.8-1.8 1.8-1.8 1 0 1.8 0.8 1.8 1.8 0 1-0.8 1.8-1.8 1.8-1 0-1.8-0.8-1.8-1.8z"/><path  d="m58.2 61.6c0 1-0.8 1.8-1.8 1.8-1 0-1.8-0.8-1.8-1.8 0-1 0.8-1.8 1.8-1.8 1 0 1.8 0.8 1.8 1.8z"/><path  d="m56.2 68.9c0 1-0.8 1.8-1.8 1.8-1 0-1.8-0.8-1.8-1.8 0-1 0.8-1.8 1.8-1.8 1 0 1.8 0.8 1.8 1.8z"/><path  d="m49.3 75.7c0-1 0.8-1.8 1.8-1.8 1 0 1.8 0.8 1.8 1.8 0 1-0.8 1.8-1.8 1.8-1 0-1.8-0.8-1.8-1.8z"/><path  d="m44.9 81.8c0-1 0.8-1.8 1.8-1.8 1 0 1.8 0.8 1.8 1.8 0 1-0.9 1.8-1.8 1.8-1 0-1.8-0.8-1.8-1.8z"/><path  d="m43 87c0 1-0.8 1.8-1.8 1.8-1 0-1.8-0.8-1.8-1.8 0-1 0.8-1.8 1.8-1.8 1 0 1.8 0.8 1.8 1.8z"/><path  d="m33.1 91.1c0-1 0.8-1.8 1.8-1.8 1 0 1.8 0.8 1.8 1.8 0 1-0.8 1.8-1.8 1.8-1 0-1.8-0.8-1.8-1.8z"/><path  d="m26.2 94.1c0-1 0.8-1.8 1.8-1.8 1 0 1.8 0.8 1.8 1.8 0 1-0.8 1.8-1.8 1.8-1 0-1.8-0.8-1.8-1.8z"/><path  d="m18.9 95.7c0-1 0.8-1.8 1.8-1.8 1 0 1.8 0.9 1.8 1.8 0 1-0.8 1.8-1.8 1.8-1 0-1.8-0.8-1.8-1.8z"/><path  d="m11.3 96.1c0-1 0.9-1.8 1.8-1.8 1 0 1.8 0.8 1.8 1.8 0 1-0.8 1.8-1.8 1.8-0.9 0-1.8-0.8-1.8-1.8z"/><path  d="m3.9 95.1c0-1 0.8-1.8 1.8-1.8 1 0 1.8 0.8 1.8 1.8 0 1-0.8 1.8-1.8 1.8-1 0-1.8-0.8-1.8-1.8z"/><path  d="m-3.3 92.8c0-1 0.8-1.9 1.8-1.9 1 0 1.8 0.9 1.8 1.9 0 1-0.8 1.8-1.8 1.8-1 0-1.8-0.8-1.8-1.8z"/><path  d="m-9.9 89.2c0-1 0.8-1.8 1.8-1.8 1 0 1.8 0.8 1.8 1.8 0 1-0.8 1.8-1.8 1.8-1 0-1.8-0.8-1.8-1.8z"/><path  d="m-15.8 84.5c0-1 0.8-1.8 1.8-1.8 1 0 1.8 0.8 1.8 1.8 0 1-0.8 1.8-1.8 1.8-1 0-1.8-0.8-1.8-1.8z"/><path  d="m-20.8 78.8c0-1 0.8-1.8 1.9-1.8 1 0 1.8 0.8 1.8 1.8 0 1-0.8 1.8-1.8 1.8-1.1 0-1.9-0.8-1.9-1.8z"/><path  d="m-24.6 72.4c0-1.1 0.8-1.9 1.8-1.9 1 0 1.8 0.8 1.8 1.9 0 1-0.8 1.8-1.8 1.8-1 0-1.8-0.8-1.8-1.8z"/><path  d="m-23.6 65.3c0 1-0.8 1.9-1.9 1.9-1 0-1.8-0.9-1.8-1.9 0-1 0.8-1.8 1.8-1.8 1.1 0 1.9 0.8 1.9 1.8z"/><path  d="m-25 57.9c0 1-0.8 1.8-1.8 1.8-1 0-1.9-0.8-1.9-1.8 0-1 0.9-1.9 1.9-1.9 1 0 1.8 0.9 1.8 1.9z"/><path  d="m-25 50.4c0 1-0.8 1.8-1.8 1.8-1 0-1.9-0.8-1.9-1.8 0-1.1 0.9-1.9 1.9-1.9 1 0 1.8 0.8 1.8 1.9z"/><path  d="m-23.6 43c0 1-0.8 1.8-1.9 1.8-1 0-1.8-0.8-1.8-1.8 0-1.1 0.8-1.9 1.8-1.9 1.1 0 1.9 0.8 1.9 1.9z"/><path  d="m-21 35.9c0 1-0.8 1.9-1.8 1.9-1 0-1.9-0.9-1.9-1.9 0-1 0.9-1.8 1.9-1.8 1 0 1.8 0.8 1.8 1.8z"/><path  d="m-20.8 29.4c0-1 0.8-1.8 1.9-1.8 1 0 1.8 0.8 1.8 1.8 0 1.1-0.8 1.9-1.8 1.9-1.1 0-1.9-0.8-1.9-1.9z"/><path  d="m-15.9 23.8c0-1.1 0.9-1.9 1.9-1.9 1 0 1.9 0.8 1.9 1.9 0 1-0.9 1.8-1.9 1.8-1 0-1.9-0.8-1.9-1.8z"/><path  d="m-6.2 19.1c0 1-0.9 1.8-1.9 1.8-1 0-1.9-0.8-1.9-1.8 0-1 0.9-1.9 1.9-1.9 1 0 1.9 0.9 1.9 1.9z"/><path  d="m-3.3 15.5c0-1 0.8-1.8 1.8-1.8 1.1 0 1.9 0.8 1.9 1.8 0 1-0.8 1.9-1.9 1.9-1 0-1.8-0.9-1.8-1.9z"/><path  d="m7.5 13.2c0 1-0.8 1.8-1.8 1.8-1 0-1.9-0.8-1.9-1.8 0-1 0.9-1.9 1.9-1.9 1 0 1.8 0.9 1.8 1.9z"/><path  d="m15 12.2c0 1-0.8 1.8-1.9 1.8-1 0-1.8-0.8-1.8-1.8 0-1 0.8-1.9 1.8-1.9 1.1 0 1.9 0.9 1.9 1.9z"/><path  d="m22.5 12.5c0 1-0.8 1.9-1.8 1.9-1.1 0-1.9-0.9-1.9-1.9 0-1 0.8-1.8 1.9-1.8 1 0 1.8 0.8 1.8 1.8z"/><path  d="m29.9 14.2c0 1-0.9 1.8-1.9 1.8-1 0-1.8-0.8-1.8-1.8 0-1 0.8-1.9 1.8-1.9 1 0 1.9 0.9 1.9 1.9z"/><path  d="m33.1 17.1c0-1 0.8-1.8 1.8-1.8 1 0 1.9 0.8 1.9 1.8 0 1.1-0.9 1.9-1.9 1.9-1 0-1.8-0.8-1.8-1.9z"/><path  d="m39.4 21.3c0-1 0.8-1.8 1.8-1.8 1 0 1.8 0.8 1.8 1.8 0 1-0.8 1.8-1.8 1.8-1 0-1.8-0.8-1.8-1.8z"/><path  d="m44.8 26.5c0-1 0.9-1.8 1.9-1.8 1 0 1.8 0.8 1.8 1.8 0 1-0.8 1.8-1.8 1.8-1 0-1.9-0.8-1.9-1.8z"/><path  d="m52.9 32.6c0 1-0.8 1.8-1.8 1.8-1 0-1.8-0.8-1.8-1.8 0-1 0.8-1.8 1.8-1.8 1 0 1.8 0.8 1.8 1.8z"/><path  d="m52.5 39.4c0-1 0.9-1.8 1.9-1.8 1 0 1.8 0.8 1.8 1.8 0 1-0.8 1.8-1.8 1.8-1 0-1.9-0.8-1.9-1.8z"/><path  d="m58.2 46.6c0 1-0.8 1.8-1.8 1.8-1 0-1.9-0.8-1.9-1.8 0-1 0.9-1.8 1.9-1.8 1 0 1.8 0.8 1.8 1.8z"/><path  d="m61.2 54.1c0-1 0.8-1.8 1.8-1.8 1 0 1.9 0.8 1.9 1.8 0 1-0.9 1.9-1.9 1.9-1 0-1.8-0.9-1.8-1.9z"/><path  d="m60.6 61.6c0-1 0.8-1.8 1.8-1.8 1 0 1.9 0.8 1.9 1.8 0 1-0.9 1.9-1.9 1.9-1 0-1.8-0.9-1.8-1.9z"/><path  d="m58.9 69c0-1 0.8-1.9 1.8-1.9 1 0 1.8 0.9 1.8 1.9 0 1-0.8 1.8-1.8 1.8-1 0-1.8-0.8-1.8-1.8z"/><path  d="m56 75.9c0-1 0.8-1.8 1.8-1.8 1 0 1.8 0.8 1.8 1.8 0 1-0.8 1.9-1.8 1.9-1 0-1.8-0.9-1.8-1.9z"/><path  d="m55.7 82.3c0 1.1-0.8 1.9-1.8 1.9-1.1 0-1.9-0.8-1.9-1.9 0-1 0.8-1.8 1.9-1.8 1 0 1.8 0.8 1.8 1.8z"/><path  d="m50.8 88.1c0 1-0.8 1.8-1.8 1.8-1 0-1.9-0.8-1.9-1.8 0-1.1 0.9-1.9 1.9-1.9 1 0 1.8 0.8 1.8 1.9z"/><path  d="m41.4 93c0-1.1 0.8-1.9 1.8-1.9 1.1 0 1.9 0.8 1.9 1.9 0 1-0.8 1.8-1.9 1.8-1 0-1.8-0.8-1.8-1.8z"/><path  d="m38.7 96.9c0 1-0.9 1.8-1.9 1.8-1 0-1.8-0.8-1.8-1.8 0-1 0.8-1.8 1.8-1.8 1 0 1.9 0.8 1.9 1.8z"/><path  d="m28 99.8c0-1 0.9-1.9 1.9-1.9 1 0 1.8 0.9 1.8 1.9 0 1-0.8 1.8-1.8 1.8-1 0-1.9-0.8-1.9-1.8z"/><path  d="m20.7 101.5c0-1 0.8-1.8 1.8-1.8 1 0 1.9 0.8 1.9 1.8 0 1-0.9 1.9-1.9 1.9-1 0-1.8-0.9-1.8-1.9z"/><path  d="m13.2 102.1c0-1 0.8-1.8 1.8-1.8 1 0 1.9 0.8 1.9 1.8 0 1-0.9 1.9-1.9 1.9-1 0-1.8-0.9-1.8-1.9z"/><path  d="m9.3 101.5c0 1-0.8 1.8-1.8 1.8-1 0-1.8-0.8-1.8-1.8 0-1 0.8-1.8 1.8-1.8 1 0 1.8 0.8 1.8 1.8z"/><path  d="m-1.6 99.8c0-1 0.8-1.8 1.8-1.8 1 0 1.8 0.8 1.8 1.8 0 1-0.8 1.8-1.8 1.8-1 0-1.8-0.8-1.8-1.8z"/><path  d="m-5 96.9c0 1-0.8 1.8-1.8 1.8-1 0-1.8-0.8-1.8-1.8 0-1 0.8-1.8 1.8-1.8 1 0 1.8 0.8 1.8 1.8z"/><path  d="m-15 93c0-1 0.8-1.8 1.8-1.8 1 0 1.8 0.8 1.8 1.8 0 0.9-0.8 1.7-1.8 1.7-1 0-1.8-0.8-1.8-1.7z"/><path  d="m-20.7 88.1c0-1 0.8-1.8 1.8-1.8 1 0 1.8 0.8 1.8 1.8 0 0.9-0.8 1.7-1.8 1.7-1 0-1.8-0.8-1.8-1.7z"/><path  d="m-25.6 82.3c0-0.9 0.8-1.7 1.8-1.7 1 0 1.8 0.8 1.8 1.7 0 1-0.8 1.8-1.8 1.8-1 0-1.8-0.8-1.8-1.8z"/><path  d="m-29.5 75.9c0-1 0.8-1.7 1.8-1.7 0.9 0 1.7 0.8 1.7 1.7 0 1-0.8 1.8-1.7 1.8-1 0-1.8-0.8-1.8-1.8z"/><path  d="m-32.4 69c0-1 0.8-1.8 1.8-1.8 0.9 0 1.7 0.8 1.7 1.8 0 0.9-0.8 1.7-1.7 1.7-1 0-1.8-0.8-1.8-1.7z"/><path  d="m-34.1 61.6c0-0.9 0.8-1.7 1.7-1.7 1 0 1.8 0.8 1.8 1.7 0 1-0.8 1.8-1.8 1.8-0.9 0-1.7-0.8-1.7-1.8z"/><path  d="m-31.3 54.1c0 1-0.7 1.7-1.7 1.7-0.9 0-1.7-0.7-1.7-1.7 0-0.9 0.8-1.7 1.7-1.7 1 0 1.7 0.8 1.7 1.7z"/><path  d="m-30.7 46.6c0 1-0.7 1.7-1.7 1.7-0.9 0-1.7-0.7-1.7-1.7 0-0.9 0.8-1.7 1.7-1.7 1 0 1.7 0.8 1.7 1.7z"/><path  d="m-32.3 39.3c0-0.9 0.7-1.7 1.7-1.7 0.9 0 1.7 0.8 1.7 1.7 0 0.9-0.8 1.7-1.7 1.7-1 0-1.7-0.8-1.7-1.7z"/><path  d="m-29.4 32.3c0-0.9 0.7-1.7 1.7-1.7 0.9 0 1.7 0.8 1.7 1.7 0 1-0.8 1.7-1.7 1.7-1 0-1.7-0.7-1.7-1.7z"/><path  d="m-25.5 25.9c0-0.9 0.8-1.7 1.7-1.7 0.9 0 1.7 0.8 1.7 1.7 0 1-0.8 1.7-1.7 1.7-0.9 0-1.7-0.7-1.7-1.7z"/><path  d="m-20.6 20.2c0-1 0.7-1.7 1.7-1.7 0.9 0 1.7 0.7 1.7 1.7 0 0.9-0.8 1.7-1.7 1.7-0.9 0-1.7-0.8-1.7-1.7z"/><path  d="m-14.9 15.3c0-0.9 0.8-1.7 1.7-1.7 1 0 1.7 0.8 1.7 1.7 0 0.9-0.7 1.7-1.7 1.7-0.9 0-1.7-0.8-1.7-1.7z"/><path  d="m-8.5 11.4c0-1 0.8-1.7 1.7-1.7 1 0 1.7 0.7 1.7 1.7 0 0.9-0.7 1.7-1.7 1.7-0.9 0-1.7-0.8-1.7-1.7z"/><path  d="m-1.5 8.5c0-1 0.8-1.7 1.7-1.7 0.9 0 1.7 0.7 1.7 1.7 0 0.9-0.8 1.7-1.7 1.7-0.9 0-1.7-0.8-1.7-1.7z"/><path  d="m5.8 6.7c0-0.9 0.8-1.7 1.7-1.7 1 0 1.7 0.8 1.7 1.7 0 1-0.7 1.7-1.7 1.7-0.9 0-1.7-0.7-1.7-1.7z"/><path  d="m16.7 6.1c0 1-0.7 1.7-1.7 1.7-0.9 0-1.7-0.7-1.7-1.7 0-0.9 0.8-1.7 1.7-1.7 1 0 1.7 0.8 1.7 1.7z"/><path  d="m20.8 6.7c0-0.9 0.8-1.7 1.7-1.7 1 0 1.8 0.8 1.8 1.7 0 1-0.8 1.7-1.8 1.7-0.9 0-1.7-0.7-1.7-1.7z"/><path  d="m28.1 8.5c0-1 0.8-1.8 1.8-1.8 0.9 0 1.7 0.8 1.7 1.8 0 0.9-0.8 1.7-1.7 1.7-1 0-1.8-0.8-1.8-1.7z"/><path  d="m35.1 11.4c0-1 0.8-1.8 1.7-1.8 1 0 1.8 0.8 1.8 1.8 0 0.9-0.8 1.7-1.8 1.7-0.9 0-1.7-0.8-1.7-1.7z"/><path  d="m41.5 15.3c0-1 0.8-1.8 1.7-1.8 1 0 1.8 0.8 1.8 1.8 0 1-0.8 1.8-1.8 1.8-0.9 0-1.7-0.8-1.7-1.8z"/><path  d="m47.2 20.2c0-1 0.8-1.8 1.8-1.8 1 0 1.8 0.8 1.8 1.8 0 1-0.8 1.8-1.8 1.8-1 0-1.8-0.8-1.8-1.8z"/><path  d="m52.1 25.9c0-1 0.8-1.8 1.8-1.8 0.9 0 1.7 0.8 1.7 1.8 0 1-0.8 1.8-1.7 1.8-1 0-1.8-0.8-1.8-1.8z"/><path  d="m56 32.3c0-1 0.8-1.8 1.8-1.8 1 0 1.8 0.8 1.8 1.8 0 1-0.8 1.8-1.8 1.8-1 0-1.8-0.8-1.8-1.8z"/><path  d="m58.9 39.3c0-1 0.8-1.8 1.8-1.8 1 0 1.8 0.8 1.8 1.8 0 1-0.8 1.8-1.8 1.8-1 0-1.8-0.8-1.8-1.8z"/><path  d="m60.6 46.6c0-1 0.8-1.8 1.8-1.8 1 0 1.8 0.8 1.8 1.8 0 1-0.8 1.8-1.8 1.8-1 0-1.8-0.8-1.8-1.8z"/><path  d="m68.8 54.1c0-0.1 0.1-0.2 0.2-0.2 0.2 0 0.3 0.1 0.3 0.2 0 0.2-0.1 0.3-0.3 0.3-0.1 0-0.2-0.1-0.2-0.3z"/><path  d="m68.3 61.6c0-0.1 0.1-0.2 0.2-0.2 0.1 0 0.3 0.1 0.3 0.2 0 0.2-0.2 0.3-0.3 0.3-0.1 0-0.2-0.1-0.2-0.3z"/><path  d="m67.2 69c0 0.2-0.1 0.3-0.3 0.3-0.1 0-0.2-0.1-0.2-0.3 0-0.1 0.1-0.2 0.2-0.2 0.2 0 0.3 0.1 0.3 0.2z"/><path  d="m64.6 76.1c0 0.1-0.1 0.3-0.2 0.3-0.2 0-0.3-0.2-0.3-0.3 0-0.1 0.1-0.3 0.3-0.3 0.1 0 0.2 0.2 0.2 0.3z"/><path  d="m61.1 82.7c0 0.2-0.1 0.3-0.3 0.3-0.1 0-0.2-0.1-0.2-0.3 0-0.1 0.1-0.2 0.2-0.2 0.2 0 0.3 0.1 0.3 0.2z"/><path  d="m56.7 88.8c0 0.2-0.2 0.3-0.3 0.3-0.1 0-0.3-0.1-0.3-0.3 0-0.1 0.2-0.2 0.3-0.2 0.1 0 0.3 0.1 0.3 0.2z"/><path  d="m51.4 94.3c0 0.1-0.1 0.2-0.2 0.2-0.2 0-0.3-0.1-0.3-0.2 0-0.2 0.1-0.3 0.3-0.3 0.1 0 0.2 0.1 0.2 0.3z"/><path  d="m45.5 98.9c0 0.1-0.1 0.3-0.3 0.3-0.1 0-0.2-0.2-0.2-0.3 0-0.1 0.1-0.3 0.2-0.3 0.2 0 0.3 0.2 0.3 0.3z"/><path  d="m39 102.7c0 0.1-0.1 0.2-0.3 0.2-0.1 0-0.3-0.1-0.3-0.2 0-0.2 0.2-0.3 0.3-0.3 0.2 0 0.3 0.1 0.3 0.3z"/><path  d="m32 105.5c0 0.1-0.1 0.3-0.3 0.3-0.1 0-0.3-0.2-0.3-0.3 0-0.2 0.2-0.3 0.3-0.3 0.2 0 0.3 0.1 0.3 0.3z"/><path  d="m24.2 107.3c0-0.1 0.1-0.2 0.2-0.2 0.1 0 0.3 0.1 0.3 0.2 0 0.1-0.2 0.3-0.3 0.3-0.1 0-0.2-0.2-0.2-0.3z"/><path  d="m16.7 108.1c0-0.1 0.1-0.3 0.2-0.3 0.2 0 0.3 0.2 0.3 0.3 0 0.1-0.1 0.2-0.3 0.2-0.1 0-0.2-0.1-0.2-0.2z"/><path  d="m9.2 107.8c0-0.1 0.1-0.2 0.2-0.2 0.1 0 0.2 0.1 0.2 0.2 0 0.2-0.1 0.3-0.2 0.3-0.1 0-0.2-0.1-0.2-0.3z"/><path  d="m1.7 106.5c0-0.1 0.1-0.2 0.3-0.2 0.1 0 0.2 0.1 0.2 0.2 0 0.2-0.1 0.3-0.2 0.3-0.2 0-0.3-0.1-0.3-0.3z"/><path  d="m-5 104.2c0 0.1-0.1 0.2-0.2 0.2-0.1 0-0.2-0.1-0.2-0.2 0-0.1 0.1-0.2 0.2-0.2 0.1 0 0.2 0.1 0.2 0.2z"/><path  d="m-12.2 100.9c0-0.1 0.1-0.2 0.2-0.2 0.1 0 0.2 0.1 0.2 0.2 0 0.1-0.1 0.2-0.2 0.2-0.1 0-0.2-0.1-0.2-0.2z"/><path  d="m-18 96.7c0 0.1-0.1 0.2-0.2 0.2-0.1 0-0.2-0.1-0.2-0.2 0-0.1 0.1-0.2 0.2-0.2 0.1 0 0.2 0.1 0.2 0.2z"/><path  d="m-24 91.6c0-0.1 0.1-0.2 0.2-0.2 0.1 0 0.2 0.1 0.2 0.2 0 0.1-0.1 0.2-0.2 0.2-0.1 0-0.2 0-0.2-0.2z"/><path  d="m-28.9 85.9c0-0.1 0.1-0.2 0.2-0.2 0.2 0 0.2 0.1 0.2 0.2 0 0.1 0 0.2-0.2 0.2-0.1 0-0.2-0.1-0.2-0.2z"/><path  d="m-32.8 79.5c0-0.1 0.1-0.2 0.2-0.2 0.1 0 0.1 0.1 0.1 0.2 0 0.1 0 0.2-0.1 0.2-0.2 0-0.2-0.1-0.2-0.2z"/><path  d="m-35.9 72.6c0-0.1 0.1-0.2 0.2-0.2 0.1 0 0.2 0.1 0.2 0.2 0 0.1-0.1 0.2-0.2 0.2-0.1 0-0.2-0.1-0.2-0.2z"/><path  d="m-37.6 65.4c0 0.1-0.1 0.1-0.2 0.1-0.1 0-0.2 0-0.2-0.1 0-0.1 0.1-0.2 0.2-0.2 0.1 0 0.2 0.1 0.2 0.2z"/><path  d="m-39 57.9c0-0.1 0.1-0.2 0.2-0.2q0.1 0 0.1 0.2c0 0.1 0 0.2-0.1 0.2-0.1 0-0.2-0.1-0.2-0.2z"/><path  d="m-39 50.4c0-0.1 0.1-0.2 0.2-0.2 0.1 0 0.1 0.1 0.1 0.2 0 0.1 0 0.1-0.1 0.1q-0.2 0-0.2-0.1z"/><path  d="m-38 42.9q0-0.2 0.2-0.2c0.1 0 0.2 0.1 0.2 0.2 0 0.1-0.1 0.2-0.2 0.2q-0.1 0-0.2-0.2z"/><path  d="m-35.9 35.7c0-0.1 0.1-0.2 0.2-0.2 0.1 0 0.2 0.1 0.2 0.2 0 0.1-0.1 0.1-0.2 0.1q-0.2 0-0.2-0.1z"/><path  d="m-32.8 28.8c0-0.1 0.1-0.2 0.2-0.2 0 0 0.1 0.1 0.1 0.2 0 0.1-0.1 0.1-0.1 0.1-0.1 0-0.2 0-0.2-0.1z"/><path  d="m-28.8 22.4c0-0.1 0.1-0.2 0.1-0.2 0.1 0 0.2 0.1 0.2 0.2 0 0.1-0.1 0.1-0.2 0.1 0 0-0.1 0-0.1-0.1z"/><path  d="m-24 16.6c0-0.1 0.1-0.1 0.2-0.1 0.1 0 0.1 0 0.1 0.1 0 0.1 0 0.2-0.1 0.2-0.1 0-0.2-0.1-0.2-0.2z"/><path  d="m-18.4 11.6c0-0.1 0.1-0.2 0.2-0.2 0.1 0 0.1 0.1 0.1 0.2 0 0.1 0 0.1-0.1 0.1-0.1 0-0.2 0-0.2-0.1z"/><path  d="m-12.1 7.4c0-0.1 0-0.2 0.1-0.2 0.1 0 0.2 0.1 0.2 0.2 0 0-0.1 0.1-0.2 0.1-0.1 0-0.1-0.1-0.1-0.1z"/><path  d="m-5.4 4.1q0-0.2 0.2-0.2c0.1 0 0.2 0.1 0.2 0.2 0 0.1-0.1 0.1-0.2 0.1q-0.2 0-0.2-0.1z"/><path  d="m2.1 1.7c0 0.1 0 0.2-0.1 0.2-0.1 0-0.2-0.1-0.2-0.2 0-0.1 0.1-0.1 0.2-0.1 0.1 0 0.1 0 0.1 0.1z"/><path  d="m9.6 0.4c0 0.1-0.1 0.2-0.2 0.2-0.1 0-0.2-0.1-0.2-0.2 0-0.1 0.1-0.1 0.2-0.1 0.1 0 0.2 0 0.2 0.1z"/><path  d="m16.7 0.2c0-0.1 0.1-0.2 0.2-0.2 0.1 0 0.2 0.1 0.2 0.2 0 0.1-0.1 0.1-0.2 0.1-0.1 0-0.2 0-0.2-0.1z"/><path  d="m24.2 1c0-0.1 0.1-0.2 0.2-0.2 0.1 0 0.2 0.1 0.2 0.2 0 0.1-0.1 0.1-0.2 0.1-0.1 0-0.2-0.1-0.2-0.1z"/><path  d="m31.5 2.8c0-0.1 0.1-0.2 0.2-0.2 0.1 0 0.2 0.1 0.2 0.2 0 0.1-0.1 0.2-0.2 0.2-0.1 0-0.2-0.1-0.2-0.2z"/><path  d="m38.9 5.6c0 0.1-0.1 0.2-0.2 0.2-0.1 0-0.2-0.1-0.2-0.2 0-0.1 0.1-0.2 0.2-0.2 0.1 0 0.2 0.1 0.2 0.2z"/><path  d="m45 9.4c0-0.1 0.1-0.2 0.2-0.2 0.1 0 0.2 0.1 0.2 0.2 0 0.1-0.1 0.2-0.2 0.2-0.1 0-0.2-0.1-0.2-0.2z"/><path  d="m51 14c0-0.1 0.1-0.2 0.2-0.2 0.1 0 0.2 0.1 0.2 0.2 0 0.1-0.1 0.2-0.2 0.2-0.1 0-0.2-0.1-0.2-0.2z"/><path  d="m56.2 19.4c0-0.1 0.1-0.2 0.2-0.2 0.1 0 0.2 0.1 0.2 0.2 0 0.1-0.1 0.2-0.2 0.2-0.1 0-0.2-0.1-0.2-0.2z"/><path  d="m60.6 25.5c0-0.1 0.1-0.2 0.2-0.2 0.1 0 0.2 0.1 0.2 0.2 0 0.1-0.1 0.2-0.2 0.2-0.1 0-0.2-0.1-0.2-0.2z"/><path  d="m64.6 32.2c0 0.1-0.1 0.2-0.2 0.2-0.2 0-0.3-0.1-0.3-0.2 0-0.2 0.1-0.3 0.3-0.3 0.1 0 0.2 0.1 0.2 0.3z"/><path  d="m66.7 39.2c0-0.1 0.1-0.2 0.2-0.2 0.2 0 0.3 0.1 0.3 0.2 0 0.2-0.1 0.3-0.3 0.3-0.1 0-0.2-0.1-0.2-0.3z"/><path  d="m68.3 46.6c0-0.1 0.1-0.2 0.2-0.2 0.1 0 0.2 0.1 0.2 0.2 0 0.1-0.1 0.2-0.2 0.2-0.1 0-0.2-0.1-0.2-0.2z"/></g></g></svg>