<svg version="1.2" xmlns="http://www.w3.org/2000/svg" viewBox="0 0 46 42" width="46" height="42"><defs><clipPath clipPathUnits="userSpaceOnUse" id="cp1"><path d="m-1747-122h1920v9844h-1920z"/></clipPath></defs><style>.a{fill:none;stroke:#cda861;stroke-width:3}</style><g clip-path="url(#cp1)"><path class="a" d="m19.7 38c0 0.9-0.8 1.7-1.7 1.7-0.9 0-1.7-0.8-1.7-1.7 0-0.9 0.8-1.7 1.7-1.7 0.9 0 1.7 0.8 1.7 1.7z"/><path class="a" d="m38 38c0 0.9-0.7 1.7-1.7 1.7-0.9 0-1.6-0.8-1.6-1.7 0-0.9 0.7-1.7 1.6-1.7 1 0 1.7 0.8 1.7 1.7z"/><path class="a" d="m13 13h28.3l-2.6 14c-0.2 0.8-0.6 1.4-1.2 1.9-0.6 0.5-1.4 0.8-2.2 0.8h-16.2c-0.7 0-1.5-0.3-2.1-0.8-0.6-0.5-1-1.1-1.2-1.9l-4.5-22.3h-6.6"/></g></svg>