<svg version="1.2" xmlns="http://www.w3.org/2000/svg" viewBox="0 0 146 344" width="146" height="344"><defs><clipPath clipPathUnits="userSpaceOnUse" id="cp1"><path d="m-1774-5374h1920v9844h-1920z"/></clipPath></defs><style>.a{opacity:.5}</style><g clip-path="url(#cp1)"><path class="a" d="m176.2 201.7q0 0 0 0 0 0 0 0 0 0 0 0 0 0 0 0z"/><path class="a" d="m147.7 180.7q0-0.1 0.1-0.1 0.1 0 0.1 0.1 0 0.1-0.1 0.1-0.1 0-0.1-0.1z"/><path class="a" d="m280.3 191.9q0-0.1 0-0.1 0.1 0 0.1 0.1 0 0-0.1 0 0 0 0 0z"/><path class="a" d="m273.7 197.8q0 0 0 0 0.1 0 0.1 0 0 0-0.1 0 0 0 0 0z"/><path class="a" d="m266.6 203.1q0 0 0 0 0 0 0 0 0 0 0 0.1 0-0.1 0-0.1z"/><path class="a" d="m259 207.8q0-0.1 0-0.1 0.1 0 0.1 0.1 0 0-0.1 0 0 0 0 0z"/><path class="a" d="m251 211.7c0-0.1 0-0.2 0.1-0.2 0.1 0 0.1 0.1 0.1 0.2 0 0.1 0 0.1-0.1 0.1-0.1 0-0.1 0-0.1-0.1z"/><path class="a" d="m242.7 214.8q0.1-0.1 0.1-0.1 0.1 0 0.2 0.1-0.1 0.1-0.2 0.2 0-0.1-0.1-0.2z"/><path class="a" d="m234.3 217.3q0-0.1 0.1-0.1 0.1 0 0.1 0.1 0 0.1-0.1 0.1-0.1 0-0.1-0.1z"/><path class="a" d="m225.8 218.9q0 0.1-0.1 0.1-0.1 0-0.1-0.1 0-0.1 0.1-0.1 0.1 0 0.1 0.1z"/><path class="a" d="m216.8 219.7q0-0.1 0.1-0.1 0.1 0 0.1 0.1 0 0.1-0.1 0.1-0.1 0-0.1-0.1z"/><path class="a" d="m208 219.7q0-0.1 0.1-0.1 0.1 0 0.1 0.1 0 0.1-0.1 0.1-0.1 0-0.1-0.1z"/><path class="a" d="m199.2 218.9q0.1-0.1 0.2-0.1 0 0 0.1 0.1-0.1 0.1-0.1 0.1-0.1 0-0.2-0.1z"/><path class="a" d="m190.6 217.3q0-0.1 0.1-0.1 0.1 0 0.1 0.1 0 0.1-0.1 0.1-0.1 0-0.1-0.1z"/><path class="a" d="m182.1 214.8q0-0.1 0.1-0.1 0.1 0 0.1 0.1 0 0.1-0.1 0.2-0.1-0.1-0.1-0.2z"/><path class="a" d="m173.8 211.7c0-0.1 0-0.2 0.1-0.2 0.1 0 0.2 0.1 0.2 0.2 0 0.1-0.1 0.2-0.2 0.2-0.1 0-0.1-0.1-0.1-0.2z"/><path class="a" d="m165.9 207.8c0-0.1 0-0.2 0.1-0.2 0.1 0 0.1 0.1 0.1 0.2 0 0 0 0.1-0.1 0.1-0.1 0-0.1-0.1-0.1-0.1z"/><path class="a" d="m158.3 203.1c0-0.1 0-0.2 0.1-0.2 0.1 0 0.2 0.1 0.2 0.2 0 0.1 0 0.2-0.2 0.2-0.1 0-0.1-0.1-0.1-0.2z"/><path class="a" d="m151.2 197.8q0-0.1 0.1-0.1 0.1 0 0.1 0.1 0 0.1-0.1 0.1-0.1 0-0.1-0.1z"/><path class="a" d="m144.5 191.9c0-0.2 0.1-0.3 0.2-0.3 0.1 0 0.2 0.1 0.2 0.3 0 0.1-0.1 0.2-0.2 0.2-0.1 0-0.2-0.1-0.2-0.2z"/><path class="a" d="m138.4 185.3c0-0.1 0.1-0.2 0.2-0.2 0.1 0 0.2 0.1 0.2 0.2 0 0.1-0.1 0.3-0.2 0.3-0.1 0-0.2-0.2-0.2-0.3z"/><path class="a" d="m133 178.2q0-0.1 0.1-0.1 0.1 0 0.1 0.1 0 0.1-0.1 0.2c0 0-0.1-0.1-0.1-0.2z"/><path class="a" d="m128 170.7c0-0.1 0.1-0.2 0.3-0.2 0.1 0 0.2 0.1 0.2 0.2 0 0.1-0.1 0.2-0.2 0.2-0.2 0-0.3-0.1-0.3-0.2z"/><path class="a" d="m124 162.7q0-0.1 0.1-0.1 0.1 0 0.1 0.1 0 0.1-0.1 0.1-0.1 0-0.1-0.1z"/><path class="a" d="m120.4 154.4c0-0.1 0.1-0.2 0.2-0.2 0.1 0 0.2 0.1 0.2 0.2 0 0.1-0.1 0.2-0.2 0.2-0.1 0-0.2-0.1-0.2-0.2z"/><path class="a" d="m117.8 145.8q0-0.1 0.1-0.1 0.1 0 0.1 0.1 0 0.1-0.1 0.1-0.1 0-0.1-0.1z"/><path class="a" d="m115.9 137q0 0 0.1 0 0 0 0 0 0 0 0 0-0.1 0-0.1 0z"/><path class="a" d="m120.6 83.6q0 0 0 0 0.1 0 0.1 0 0 0-0.1 0 0 0 0 0z"/><path class="a" d="m320.5 119q0 0.1 0 0.1 0 0 0-0.1 0 0 0 0 0 0 0 0z"/><path class="a" d="m320.1 128.1q0-0.1 0-0.1 0.1 0 0.1 0.1 0 0-0.1 0c0 0 0 0 0 0z"/><path class="a" d="m319 137q0 0 0.1 0 0 0 0 0 0 0.1 0 0.1-0.1 0-0.1-0.1z"/><path class="a" d="m317.2 145.9q0 0 0.1 0 0 0 0 0 0 0 0 0-0.1 0-0.1 0z"/><path class="a" d="m314.8 154.6q0-0.1 0-0.1 0 0 0 0.1 0 0 0 0-0.1 0 0 0z"/><path class="a" d="m311.6 163q0 0 0 0 0 0 0.1 0-0.1 0-0.1 0 0 0 0 0z"/><path class="a" d="m307.8 171.2q0-0.1 0-0.1 0 0 0 0.1 0 0 0 0 0 0 0 0z"/><path class="a" d="m303.3 179q0-0.1 0.1-0.1 0 0 0 0.1 0 0 0 0-0.1 0-0.1 0z"/><path class="a" d="m298.3 186.3q0 0 0 0 0 0 0 0 0 0.1 0 0.1 0 0 0-0.1z"/><path class="a" d="m292.5 193.3c0-0.1 0.1-0.2 0.2-0.2 0.1 0 0.2 0.1 0.2 0.2 0 0.1-0.1 0.2-0.2 0.2-0.1 0-0.2-0.1-0.2-0.2z"/><path class="a" d="m286.5 199.8q0-0.1 0-0.1 0 0 0 0.1 0 0 0 0 0 0 0 0z"/><path class="a" d="m279.7 205.7c0-0.1 0.1-0.2 0.1-0.2 0.1 0 0.2 0.1 0.2 0.2 0 0.1-0.1 0.1-0.2 0.1 0 0-0.1 0-0.1-0.1z"/><path class="a" d="m272.5 211c0-0.1 0.1-0.2 0.2-0.2 0.1 0 0.2 0.1 0.2 0.2 0 0.1-0.1 0.2-0.2 0.2-0.1 0-0.2-0.1-0.2-0.2z"/><path class="a" d="m265 215.8c0-0.1 0.1-0.2 0.2-0.2 0.1 0 0.2 0.1 0.2 0.2 0 0.1-0.1 0.2-0.2 0.2-0.1 0-0.2-0.1-0.2-0.2z"/><path class="a" d="m257.2 219.9c0-0.1 0.1-0.2 0.2-0.2 0 0 0.1 0.1 0.1 0.2 0 0-0.1 0.1-0.1 0.1-0.1 0-0.2-0.1-0.2-0.1z"/><path class="a" d="m248.9 223.3c0-0.2 0.1-0.4 0.3-0.4 0.2 0 0.3 0.2 0.3 0.4 0 0.1-0.1 0.3-0.3 0.3-0.2 0-0.3-0.2-0.3-0.3z"/><path class="a" d="m240.5 226c0-0.2 0.1-0.4 0.3-0.4 0.2 0 0.3 0.2 0.3 0.4 0 0.2-0.1 0.3-0.3 0.3-0.2 0-0.3-0.1-0.3-0.3z"/><path class="a" d="m232.6 228c0 0.2-0.1 0.4-0.4 0.4-0.2 0-0.4-0.2-0.4-0.4 0-0.2 0.2-0.4 0.4-0.4 0.3 0 0.4 0.2 0.4 0.4z"/><path class="a" d="m223.2 229.3c0-0.2 0.2-0.3 0.3-0.3 0.2 0 0.3 0.1 0.3 0.3 0 0.1-0.1 0.3-0.3 0.3-0.2 0-0.3-0.1-0.3-0.3z"/><path class="a" d="m214.4 229.8c0-0.1 0.1-0.3 0.3-0.3 0.2 0 0.4 0.2 0.4 0.3 0 0.2-0.2 0.4-0.4 0.4-0.2 0-0.3-0.2-0.3-0.4z"/><path class="a" d="m206.2 229.7c0 0.1-0.1 0.3-0.3 0.3-0.1 0-0.3-0.2-0.3-0.3 0-0.2 0.2-0.3 0.3-0.3 0.2 0 0.3 0.1 0.3 0.3z"/><path class="a" d="m196.8 228.7c0-0.1 0.2-0.3 0.4-0.3 0.1 0 0.3 0.2 0.3 0.3 0 0.2-0.2 0.4-0.3 0.4-0.2 0-0.4-0.2-0.4-0.4z"/><path class="a" d="m188 227.1c0-0.3 0.2-0.5 0.5-0.5 0.3 0 0.5 0.2 0.5 0.5 0 0.3-0.2 0.5-0.5 0.5-0.3 0-0.5-0.2-0.5-0.5z"/><path class="a" d="m179.4 224.7c0-0.3 0.3-0.6 0.6-0.6 0.3 0 0.6 0.3 0.6 0.6 0 0.4-0.3 0.6-0.6 0.6-0.3 0-0.6-0.2-0.6-0.6z"/><path class="a" d="m171.1 221.6c0-0.3 0.3-0.6 0.6-0.6 0.3 0 0.6 0.3 0.6 0.6 0 0.4-0.3 0.6-0.6 0.6-0.3 0-0.6-0.2-0.6-0.6z"/><path class="a" d="m163.4 217.9c0-0.2 0.1-0.3 0.3-0.3 0.2 0 0.3 0.1 0.3 0.3 0 0.2-0.1 0.3-0.3 0.3-0.2 0-0.3-0.1-0.3-0.3z"/><path class="a" d="m155.6 213.5c0-0.3 0.2-0.5 0.4-0.5 0.2 0 0.4 0.2 0.4 0.5 0 0.2-0.2 0.4-0.4 0.4-0.2 0-0.4-0.2-0.4-0.4z"/><path class="a" d="m148.3 208.4c0-0.2 0.2-0.4 0.4-0.4 0.2 0 0.4 0.2 0.4 0.4 0 0.2-0.2 0.4-0.4 0.4-0.2 0-0.4-0.2-0.4-0.4z"/><path class="a" d="m141.4 202.8c0-0.2 0.2-0.4 0.4-0.4 0.2 0 0.4 0.2 0.4 0.4 0 0.2-0.2 0.4-0.4 0.4-0.2 0-0.4-0.2-0.4-0.4z"/><path class="a" d="m135 196.6c0-0.2 0.2-0.4 0.4-0.4 0.2 0 0.4 0.2 0.4 0.4 0 0.2-0.2 0.4-0.4 0.4-0.2 0-0.4-0.2-0.4-0.4z"/><path class="a" d="m129.2 189.9c0-0.2 0.1-0.3 0.3-0.3 0.2 0 0.3 0.1 0.3 0.3 0 0.1-0.1 0.3-0.3 0.3-0.2 0-0.3-0.2-0.3-0.3z"/><path class="a" d="m123.9 182.7c0-0.2 0.1-0.3 0.2-0.3 0.2 0 0.3 0.1 0.3 0.3 0 0.2-0.1 0.3-0.3 0.3-0.1 0-0.2-0.1-0.2-0.3z"/><path class="a" d="m119 175.1c0-0.2 0.2-0.4 0.4-0.4 0.2 0 0.4 0.2 0.4 0.4 0 0.2-0.2 0.4-0.4 0.4-0.2 0-0.4-0.2-0.4-0.4z"/><path class="a" d="m114.9 167.1c0-0.2 0.2-0.3 0.4-0.3 0.1 0 0.3 0.1 0.3 0.3 0 0.2-0.2 0.3-0.3 0.3-0.2 0-0.4-0.1-0.4-0.3z"/><path class="a" d="m111.5 158.8c0-0.2 0.1-0.3 0.2-0.3 0.2 0 0.3 0.1 0.3 0.3 0 0.2-0.1 0.3-0.3 0.3-0.1 0-0.2-0.1-0.2-0.3z"/><path class="a" d="m108.7 150.2c0-0.1 0.1-0.2 0.2-0.2 0.2 0 0.3 0.1 0.3 0.2 0 0.2-0.1 0.3-0.3 0.3-0.1 0-0.2-0.1-0.2-0.3z"/><path class="a" d="m106.6 141.5c0-0.2 0.1-0.3 0.2-0.3 0.1 0 0.2 0.1 0.2 0.3 0 0.1-0.1 0.2-0.2 0.2-0.1 0-0.2-0.1-0.2-0.2z"/><path class="a" d="m105.2 132.6c0-0.1 0.1-0.2 0.2-0.2 0.1 0 0.1 0.1 0.1 0.2 0 0.1 0 0.2-0.1 0.2-0.1 0-0.2-0.1-0.2-0.2z"/><path class="a" d="m104.5 123.5c0 0 0.1-0.1 0.1-0.1 0.1 0 0.2 0.1 0.2 0.1 0 0.1-0.1 0.2-0.2 0.2 0 0-0.1-0.1-0.1-0.2z"/><path class="a" d="m104.5 114.5q0.1-0.1 0.1-0.1 0.1 0 0.2 0.1-0.1 0.1-0.2 0.1 0 0-0.1-0.1z"/><path class="a" d="m105.3 105.5q0 0 0.1 0 0 0 0 0 0 0 0 0-0.1 0-0.1 0z"/><path class="a" d="m106.8 96.6q0-0.1 0-0.1 0 0 0 0.1 0 0 0 0 0 0 0 0z"/><path class="a" d="m108.9 87.8q0 0 0 0 0.1 0 0.1 0 0 0-0.1 0 0 0 0 0z"/><path class="a" d="m111.7 79.2q0 0 0 0 0.1 0 0.1 0 0 0.1-0.1 0.1 0 0 0-0.1z"/><path class="a" d="m129.5 48.2q0-0.1 0-0.1 0 0 0 0.1 0 0 0 0 0 0 0 0z"/><path class="a" d="m319 101q0 0 0.1 0 0 0 0 0 0 0 0 0-0.1 0-0.1 0z"/><path class="a" d="m320.1 110q0 0 0 0 0.1 0 0.1 0 0 0-0.1 0c0 0 0 0 0 0z"/><path class="a" d="m329.9 128.1q0-0.1 0.1-0.1 0 0 0 0.1 0 0 0 0-0.1 0-0.1 0z"/><path class="a" d="m329 137q0 0 0 0 0 0 0 0 0 0.1 0 0.1-0.1 0 0-0.1z"/><path class="a" d="m327.3 145.9q0 0 0.1 0 0 0 0 0 0 0.1 0 0.1-0.1 0-0.1-0.1z"/><path class="a" d="m325 154.7q0-0.1 0.1-0.1 0 0 0 0.1 0 0 0 0-0.1 0-0.1 0z"/><path class="a" d="m322.1 163.2q0 0 0.1 0 0 0 0 0 0 0 0 0-0.1 0-0.1 0z"/><path class="a" d="m318.6 171.5q0 0 0 0 0.1 0 0.1 0 0 0-0.1 0 0 0 0 0z"/><path class="a" d="m314.5 179.5q0 0 0 0 0.1 0 0.1 0 0 0-0.1 0 0 0 0 0z"/><path class="a" d="m309.7 187.1q0.1-0.1 0.1-0.1 0.1 0 0.2 0.1-0.1 0.1-0.2 0.1 0 0-0.1-0.1z"/><path class="a" d="m304.5 194.4c0-0.1 0-0.1 0.1-0.1 0.1 0 0.1 0 0.1 0.1 0 0.1 0 0.2-0.1 0.2-0.1 0-0.1-0.1-0.1-0.2z"/><path class="a" d="m298.6 201.3c0-0.2 0.1-0.3 0.3-0.3 0.1 0 0.2 0.1 0.2 0.3 0 0.1-0.1 0.2-0.2 0.2-0.2 0-0.3-0.1-0.3-0.2z"/><path class="a" d="m292.4 207.7c0-0.2 0.1-0.3 0.2-0.3 0.2 0 0.3 0.1 0.3 0.3 0 0.1-0.1 0.2-0.3 0.2-0.1 0-0.2-0.1-0.2-0.2z"/><path class="a" d="m285.8 213.6c0-0.1 0.1-0.2 0.2-0.2 0.1 0 0.2 0.1 0.2 0.2 0 0.1-0.1 0.2-0.2 0.2-0.2 0-0.2-0.1-0.2-0.2z"/><path class="a" d="m278.7 218.9c0-0.1 0.1-0.2 0.2-0.2 0.1 0 0.2 0.1 0.2 0.2 0 0.1-0.1 0.2-0.2 0.2-0.1 0-0.2-0.1-0.2-0.2z"/><path class="a" d="m270.7 223.7c0-0.4 0.3-0.7 0.7-0.7 0.4 0 0.7 0.3 0.7 0.7 0 0.4-0.3 0.7-0.7 0.7-0.4 0-0.7-0.3-0.7-0.7z"/><path class="a" d="m263.1 228c0-0.3 0.3-0.5 0.5-0.5 0.3 0 0.5 0.2 0.5 0.5 0 0.2-0.2 0.5-0.5 0.5-0.2 0-0.5-0.3-0.5-0.5z"/><path class="a" d="m255.3 231.6c0-0.2 0.1-0.3 0.3-0.3 0.1 0 0.2 0.1 0.2 0.3 0 0.1-0.1 0.3-0.2 0.3-0.2 0-0.3-0.2-0.3-0.3z"/><path class="a" d="m246.8 234.6c0-0.3 0.2-0.5 0.4-0.5 0.3 0 0.5 0.2 0.5 0.5 0 0.2-0.2 0.4-0.5 0.4-0.2 0-0.4-0.2-0.4-0.4z"/><path class="a" d="m238.2 236.9c0-0.3 0.2-0.5 0.5-0.5 0.3 0 0.6 0.2 0.6 0.5 0 0.3-0.3 0.5-0.6 0.5-0.3 0-0.5-0.2-0.5-0.5z"/><path class="a" d="m229.6 238.6c0-0.3 0.2-0.5 0.5-0.5 0.3 0 0.5 0.2 0.5 0.5 0 0.3-0.2 0.5-0.5 0.5-0.3 0-0.5-0.2-0.5-0.5z"/><path class="a" d="m220.9 239.6c0-0.2 0.2-0.4 0.4-0.4 0.2 0 0.4 0.2 0.4 0.4 0 0.2-0.2 0.4-0.4 0.4-0.2 0-0.4-0.2-0.4-0.4z"/><path class="a" d="m212.1 239.9c0-0.2 0.2-0.4 0.4-0.4 0.2 0 0.4 0.2 0.4 0.4 0 0.3-0.2 0.4-0.4 0.4-0.2 0-0.4-0.1-0.4-0.4z"/><path class="a" d="m203.1 239.6c0-0.3 0.3-0.6 0.6-0.6 0.3 0 0.6 0.3 0.6 0.6 0 0.3-0.3 0.6-0.6 0.6-0.3 0-0.6-0.3-0.6-0.6z"/><path class="a" d="m194.5 238.6c0-0.3 0.2-0.5 0.5-0.5 0.2 0 0.5 0.2 0.5 0.5 0 0.3-0.3 0.5-0.5 0.5-0.3 0-0.5-0.2-0.5-0.5z"/><path class="a" d="m185.7 236.9c0-0.4 0.3-0.6 0.6-0.6 0.4 0 0.6 0.2 0.6 0.6 0 0.4-0.2 0.6-0.6 0.6-0.3 0-0.6-0.2-0.6-0.6z"/><path class="a" d="m177 234.6c0-0.5 0.3-0.9 0.8-0.9 0.5 0 0.9 0.4 0.9 0.9 0 0.4-0.4 0.8-0.9 0.8-0.5 0-0.8-0.4-0.8-0.8z"/><path class="a" d="m168.7 231.6c0-0.5 0.3-0.9 0.8-0.9 0.4 0 0.8 0.4 0.8 0.9 0 0.4-0.4 0.8-0.8 0.8-0.5 0-0.8-0.4-0.8-0.8z"/><path class="a" d="m160.8 228c0-0.4 0.3-0.6 0.6-0.6 0.3 0 0.6 0.2 0.6 0.6 0 0.3-0.3 0.6-0.6 0.6-0.3 0-0.6-0.3-0.6-0.6z"/><path class="a" d="m152.8 223.7c0-0.4 0.4-0.8 0.8-0.8 0.5 0 0.9 0.4 0.9 0.8 0 0.5-0.4 0.9-0.9 0.9-0.4 0-0.8-0.4-0.8-0.9z"/><path class="a" d="m146.8 218.9c0 0.4-0.3 0.6-0.6 0.6-0.3 0-0.6-0.2-0.6-0.6 0-0.3 0.3-0.6 0.6-0.6 0.3 0 0.6 0.3 0.6 0.6z"/><path class="a" d="m138.4 213.6c0-0.4 0.3-0.8 0.7-0.8 0.4 0 0.7 0.4 0.7 0.8 0 0.4-0.3 0.7-0.7 0.7-0.4 0-0.7-0.3-0.7-0.7z"/><path class="a" d="m131.8 207.6c0-0.3 0.3-0.6 0.6-0.6 0.4 0 0.6 0.3 0.6 0.6 0 0.4-0.2 0.7-0.6 0.7-0.3 0-0.6-0.3-0.6-0.7z"/><path class="a" d="m125.7 201.3c0-0.3 0.2-0.6 0.5-0.6 0.3 0 0.5 0.3 0.5 0.6 0 0.3-0.2 0.5-0.5 0.5-0.3 0-0.5-0.2-0.5-0.5z"/><path class="a" d="m120.1 194.4c0-0.2 0.1-0.3 0.3-0.3 0.2 0 0.4 0.1 0.4 0.3 0 0.2-0.2 0.4-0.4 0.4-0.1 0-0.3-0.2-0.3-0.4z"/><path class="a" d="m114.8 187.1c0-0.2 0.2-0.4 0.4-0.4 0.2 0 0.4 0.2 0.4 0.4 0 0.3-0.2 0.4-0.4 0.4-0.2 0-0.4-0.1-0.4-0.4z"/><path class="a" d="m110.2 179.5c0-0.2 0.1-0.3 0.3-0.3 0.2 0 0.3 0.1 0.3 0.3 0 0.2-0.1 0.3-0.3 0.3-0.2 0-0.3-0.1-0.3-0.3z"/><path class="a" d="m106.1 171.5c0-0.2 0.1-0.3 0.3-0.3 0.2 0 0.3 0.1 0.3 0.3 0 0.2-0.1 0.3-0.3 0.3-0.2 0-0.3-0.1-0.3-0.3z"/><path class="a" d="m102.6 163.2c0-0.2 0.1-0.3 0.3-0.3 0.1 0 0.3 0.1 0.3 0.3 0 0.2-0.2 0.3-0.3 0.3-0.2 0-0.3-0.1-0.3-0.3z"/><path class="a" d="m99.7 154.7c0-0.2 0.1-0.4 0.3-0.4 0.1 0 0.3 0.2 0.3 0.4 0 0.2-0.2 0.3-0.3 0.3-0.2 0-0.3-0.1-0.3-0.3z"/><path class="a" d="m97.4 145.9c0-0.2 0.1-0.3 0.3-0.3 0.2 0 0.3 0.1 0.3 0.3 0 0.2-0.1 0.4-0.3 0.4-0.2 0-0.3-0.2-0.3-0.4z"/><path class="a" d="m95.8 137c0-0.1 0.1-0.3 0.3-0.3 0.1 0 0.2 0.2 0.2 0.3 0 0.2-0.1 0.3-0.2 0.3-0.2 0-0.3-0.1-0.3-0.3z"/><path class="a" d="m94.8 128.1c0-0.2 0.1-0.3 0.3-0.3 0.1 0 0.3 0.1 0.3 0.3 0 0.1-0.2 0.3-0.3 0.3-0.2 0-0.3-0.2-0.3-0.3z"/><path class="a" d="m94.5 119c0-0.1 0.1-0.2 0.2-0.2 0.2 0 0.2 0.1 0.2 0.2 0 0.1 0 0.2-0.2 0.2-0.1 0-0.2-0.1-0.2-0.2z"/><path class="a" d="m94.9 110c0-0.1 0.1-0.1 0.2-0.1 0 0 0.1 0 0.1 0.1 0 0.1-0.1 0.1-0.1 0.1-0.1 0-0.2 0-0.2-0.1z"/><path class="a" d="m95.9 101c0-0.1 0.1-0.1 0.2-0.1 0 0 0.1 0 0.1 0.1 0 0.1-0.1 0.1-0.1 0.1-0.1 0-0.2 0-0.2-0.1z"/><path class="a" d="m97.6 92.1q0-0.1 0.1-0.1 0.1 0 0.1 0.1 0 0.1-0.1 0.1c-0.1 0-0.1 0-0.1-0.1z"/><path class="a" d="m99.9 83.4q0 0 0.1-0.1 0 0.1 0 0.1 0 0 0 0-0.1 0-0.1 0z"/><path class="a" d="m102.9 74.8q0 0 0 0 0 0 0 0 0 0.1 0 0.1 0 0 0-0.1z"/><path class="a" d="m106.4 66.6q0-0.1 0-0.1 0 0 0 0.1 0 0 0 0 0 0 0 0z"/><path class="a" d="m110.5 58.6q0-0.1 0-0.1 0.1 0 0.1 0.1 0 0-0.1 0 0 0 0 0z"/><path class="a" d="m115.2 50.9q0 0 0 0 0 0 0 0 0 0 0 0.1 0-0.1 0-0.1z"/><path class="a" d="m120.4 43.6q0 0 0 0 0.1 0 0.1 0 0 0.1-0.1 0.1 0 0 0-0.1z"/><path class="a" d="m126.2 36.8q0 0 0 0 0 0 0 0 0 0 0 0 0 0 0 0z"/><path class="a" d="m132.4 30.4q0 0 0 0 0 0 0 0 0 0 0 0 0 0 0 0z"/><path class="a" d="m139.1 24.5q0 0 0 0 0 0 0 0 0 0 0 0 0 0 0 0z"/><path class="a" d="m146.1 19.1q0.1 0 0.1 0 0 0 0 0 0 0.1 0 0.1 0 0-0.1-0.1z"/><path class="a" d="m153.6 14.3q0 0 0 0 0.1 0 0.1 0 0 0-0.1 0 0 0 0 0z"/><path class="a" d="m169.5 6.5q0-0.1 0-0.1 0 0 0 0.1 0 0 0 0 0 0 0 0z"/><path class="a" d="m329 101q0 0 0 0 0 0 0 0 0 0 0 0-0.1 0 0 0z"/><path class="a" d="m329.9 110q0 0 0.1 0 0 0 0 0 0 0 0 0-0.1 0-0.1 0z"/><path class="a" d="m340.1 119q0 0 0 0 0 0 0 0 0 0.1 0 0.1 0 0 0-0.1z"/><path class="a" d="m339.8 128.1q0-0.1 0-0.1 0.1 0 0.1 0.1 0 0-0.1 0 0 0 0 0z"/><path class="a" d="m338.9 137.1q0-0.1 0-0.1 0 0 0 0.1 0 0 0 0 0 0 0 0z"/><path class="a" d="m337.3 146q0-0.1 0.1-0.1 0.1 0 0.1 0.1 0 0.1-0.1 0.1-0.1 0-0.1-0.1z"/><path class="a" d="m335.2 154.7q0-0.1 0.1-0.1 0.1 0 0.1 0.1 0 0.1-0.1 0.1c-0.1 0-0.1 0-0.1-0.1z"/><path class="a" d="m332.5 163.4q0-0.1 0.1-0.2 0.1 0.1 0.1 0.2 0 0.1-0.1 0.1-0.1 0-0.1-0.1z"/><path class="a" d="m329.2 171.8q0-0.1 0.1-0.2 0.1 0.1 0.1 0.2 0 0.1-0.1 0.1-0.1 0-0.1-0.1z"/><path class="a" d="m325.5 179.9q0 0 0 0 0 0 0 0 0 0 0 0 0 0 0 0z"/><path class="a" d="m321 187.8q0-0.1 0.1-0.2 0.1 0.1 0.1 0.2 0 0.1-0.1 0.1 0 0-0.1-0.1z"/><path class="a" d="m316.1 195.3c0-0.1 0.1-0.2 0.2-0.2 0.1 0 0.2 0.1 0.2 0.2 0 0.1-0.1 0.2-0.2 0.2-0.1 0-0.2-0.1-0.2-0.2z"/><path class="a" d="m310.7 202.5c0-0.1 0.1-0.2 0.2-0.2 0.1 0 0.2 0.1 0.2 0.2 0 0.1-0.1 0.2-0.2 0.2-0.1 0-0.2-0.1-0.2-0.2z"/><path class="a" d="m304.8 209.2c0-0.1 0.1-0.2 0.3-0.2 0.1 0 0.2 0.1 0.2 0.2 0 0.1-0.1 0.3-0.2 0.3-0.2 0-0.3-0.2-0.3-0.3z"/><path class="a" d="m298.6 215.6c0-0.1 0.1-0.2 0.2-0.2 0.1 0 0.2 0.1 0.2 0.2 0 0.1-0.1 0.2-0.2 0.2-0.1 0-0.2-0.1-0.2-0.2z"/><path class="a" d="m291.7 221.4c0-0.2 0.1-0.4 0.4-0.4 0.2 0 0.4 0.2 0.4 0.4 0 0.3-0.2 0.5-0.4 0.5-0.3 0-0.4-0.2-0.4-0.5z"/><path class="a" d="m284.4 226.8c0-0.3 0.3-0.6 0.6-0.6 0.4 0 0.6 0.3 0.6 0.6 0 0.4-0.3 0.7-0.6 0.7-0.3 0-0.6-0.3-0.6-0.7z"/><path class="a" d="m276.5 231.7c0-0.6 0.5-1.1 1.1-1.1 0.6 0 1.1 0.5 1.1 1.1 0 0.6-0.5 1.1-1.1 1.1-0.6 0-1.1-0.5-1.1-1.1z"/><path class="a" d="m268.8 236c0-0.6 0.5-1.1 1.1-1.1 0.6 0 1 0.5 1 1.1 0 0.7-0.4 1.2-1 1.2-0.6 0-1.1-0.5-1.1-1.2z"/><path class="a" d="m261.2 239.8c0-0.4 0.3-0.7 0.7-0.7 0.4 0 0.7 0.3 0.7 0.7 0 0.4-0.3 0.8-0.7 0.8-0.4 0-0.8-0.4-0.7-0.8z"/><path class="a" d="m252.9 243c0-0.4 0.3-0.8 0.7-0.8 0.5 0 0.8 0.4 0.8 0.8 0 0.5-0.3 0.8-0.8 0.8-0.4 0-0.7-0.3-0.7-0.8z"/><path class="a" d="m244.6 245.6c0-0.3 0.2-0.6 0.6-0.6 0.3 0 0.6 0.3 0.6 0.6 0 0.4-0.3 0.7-0.6 0.7-0.3 0-0.6-0.3-0.6-0.7z"/><path class="a" d="m236.2 247.7c0-0.3 0.2-0.5 0.4-0.5 0.2 0 0.4 0.2 0.4 0.5 0 0.2-0.2 0.4-0.4 0.4-0.2 0-0.4-0.2-0.4-0.4z"/><path class="a" d="m227.2 249.1c0-0.4 0.3-0.7 0.7-0.7 0.4 0 0.7 0.3 0.7 0.7 0 0.3-0.3 0.7-0.7 0.7-0.4 0-0.7-0.4-0.7-0.7z"/><path class="a" d="m218.6 249.8c0-0.3 0.2-0.5 0.5-0.5 0.3 0 0.6 0.2 0.6 0.5 0 0.3-0.3 0.6-0.6 0.6-0.3 0-0.5-0.3-0.5-0.6z"/><path class="a" d="m209.8 250c0-0.3 0.2-0.5 0.5-0.5 0.3 0 0.5 0.2 0.5 0.5 0 0.3-0.2 0.5-0.5 0.5-0.3 0-0.5-0.2-0.5-0.5z"/><path class="a" d="m200.8 249.5c0-0.4 0.3-0.7 0.7-0.7 0.4 0 0.7 0.3 0.7 0.7 0 0.4-0.3 0.7-0.7 0.7-0.4 0-0.7-0.3-0.7-0.7z"/><path class="a" d="m191.9 248.4c0-0.4 0.4-0.8 0.9-0.8 0.4 0 0.8 0.4 0.8 0.8 0 0.5-0.4 0.9-0.8 0.9-0.5 0-0.9-0.4-0.9-0.9z"/><path class="a" d="m183.4 246.7c0-0.4 0.3-0.7 0.7-0.7 0.4 0 0.7 0.3 0.7 0.7 0 0.4-0.3 0.8-0.7 0.8-0.4 0-0.7-0.4-0.7-0.8z"/><path class="a" d="m174.5 244.4c0-0.6 0.5-1.2 1.1-1.2 0.7 0 1.2 0.6 1.2 1.2 0 0.7-0.6 1.2-1.2 1.2-0.6 0-1.1-0.5-1.1-1.2z"/><path class="a" d="m165.9 241.5c0-0.8 0.6-1.4 1.4-1.4 0.7 0 1.4 0.6 1.4 1.4 0 0.8-0.7 1.4-1.4 1.4-0.8 0-1.4-0.6-1.4-1.4z"/><path class="a" d="m158 238c0-0.7 0.5-1.2 1.2-1.2 0.6 0 1.1 0.6 1.1 1.2 0 0.7-0.5 1.2-1.1 1.2-0.7 0-1.2-0.6-1.2-1.2z"/><path class="a" d="m150.1 233.9c0-0.6 0.5-1.1 1.2-1.1 0.6 0 1.1 0.5 1.1 1.1 0 0.7-0.5 1.2-1.1 1.2-0.6 0-1.2-0.5-1.2-1.2z"/><path class="a" d="m142.4 229.3c0-0.7 0.6-1.3 1.3-1.3 0.7 0 1.3 0.6 1.3 1.3 0 0.8-0.6 1.3-1.3 1.3-0.7 0-1.3-0.5-1.3-1.3z"/><path class="a" d="m134.9 224.2c0-0.9 0.7-1.6 1.6-1.6 0.8 0 1.5 0.7 1.5 1.6 0 0.9-0.7 1.6-1.5 1.6-0.9 0-1.6-0.7-1.6-1.6z"/><path class="a" d="m128.7 218.6c0-0.5 0.4-0.9 0.9-0.9 0.4 0 0.8 0.4 0.8 0.9 0 0.4-0.4 0.8-0.8 0.8-0.5 0-0.9-0.4-0.9-0.8z"/><path class="a" d="m122.2 212.4c0-0.4 0.4-0.8 0.9-0.8 0.4 0 0.8 0.4 0.8 0.8 0 0.5-0.4 0.9-0.8 0.9-0.5 0-0.9-0.4-0.9-0.9z"/><path class="a" d="m116.3 205.9c0-0.4 0.3-0.7 0.7-0.7 0.4 0 0.7 0.3 0.7 0.7 0 0.4-0.3 0.7-0.7 0.7-0.4 0-0.7-0.3-0.7-0.7z"/><path class="a" d="m110.8 198.9c0-0.4 0.3-0.6 0.6-0.6 0.4 0 0.6 0.3 0.6 0.6 0 0.4-0.3 0.7-0.6 0.7-0.3 0-0.6-0.3-0.6-0.7z"/><path class="a" d="m105.6 191.6c0-0.4 0.3-0.7 0.7-0.7 0.3 0 0.6 0.3 0.6 0.7 0 0.3-0.3 0.6-0.6 0.6-0.4 0-0.6-0.3-0.7-0.6z"/><path class="a" d="m100.9 183.9c0-0.5 0.4-0.8 0.8-0.8 0.4 0 0.7 0.4 0.7 0.8 0 0.4-0.3 0.7-0.7 0.7-0.4 0-0.8-0.3-0.8-0.7z"/><path class="a" d="m97.1 175.9c0-0.3 0.2-0.6 0.5-0.6 0.2 0 0.5 0.3 0.5 0.6 0 0.2-0.3 0.5-0.5 0.5-0.3 0-0.5-0.3-0.5-0.5z"/><path class="a" d="m93.7 167.6c0-0.2 0.1-0.4 0.3-0.4 0.2 0 0.3 0.2 0.3 0.4 0 0.2-0.1 0.3-0.3 0.3-0.2 0-0.3-0.1-0.3-0.3z"/><path class="a" d="m90.6 159.1c0-0.3 0.2-0.4 0.4-0.4 0.3 0 0.4 0.1 0.4 0.4 0 0.2-0.1 0.4-0.4 0.4-0.2 0-0.4-0.2-0.4-0.4z"/><path class="a" d="m88.2 150.4c0-0.3 0.2-0.4 0.4-0.4 0.3 0 0.4 0.1 0.4 0.4 0 0.2-0.1 0.4-0.4 0.4-0.2 0-0.4-0.2-0.4-0.4z"/><path class="a" d="m86.4 141.5c0-0.2 0.2-0.4 0.4-0.4 0.2 0 0.4 0.2 0.4 0.4 0 0.2-0.2 0.4-0.4 0.4-0.2 0-0.4-0.2-0.4-0.4z"/><path class="a" d="m85.3 132.6c0-0.2 0.1-0.4 0.3-0.4 0.2 0 0.3 0.2 0.3 0.4 0 0.2-0.1 0.3-0.3 0.3-0.2 0-0.3-0.1-0.3-0.3z"/><path class="a" d="m84.8 123.5c0-0.1 0.1-0.1 0.2-0.1 0.1 0 0.2 0 0.2 0.1 0 0.2-0.1 0.2-0.2 0.2-0.1 0-0.2 0-0.2-0.2z"/><path class="a" d="m84.7 114.5c0-0.2 0.1-0.3 0.3-0.3 0.2 0 0.3 0.1 0.3 0.3 0 0.2-0.1 0.3-0.3 0.3-0.2 0-0.3-0.1-0.3-0.3z"/><path class="a" d="m85.3 105.5c0-0.2 0.2-0.3 0.3-0.3 0.2 0 0.3 0.1 0.3 0.3 0 0.1-0.1 0.3-0.3 0.3-0.1 0-0.3-0.2-0.3-0.3z"/><path class="a" d="m86.7 96.5c0 0 0-0.1 0.1-0.1 0.1 0 0.2 0.1 0.2 0.1 0 0.1-0.1 0.2-0.2 0.2-0.1 0-0.1-0.1-0.1-0.2z"/><path class="a" d="m88.4 87.7c0-0.1 0.1-0.2 0.2-0.2 0.1 0 0.2 0.1 0.2 0.2 0 0.1-0.1 0.2-0.2 0.2-0.1 0-0.2-0.1-0.2-0.2z"/><path class="a" d="m90.9 79c0-0.1 0.1-0.2 0.1-0.2 0.1 0 0.2 0.1 0.2 0.2 0 0.1-0.1 0.1-0.2 0.1 0 0-0.1 0-0.1-0.1z"/><path class="a" d="m94 70.5q0-0.1 0-0.1 0.1 0 0.1 0.1 0 0-0.1 0 0 0 0 0z"/><path class="a" d="m97.5 62.2q0 0 0.1 0 0 0 0 0 0 0 0 0-0.1 0-0.1 0z"/><path class="a" d="m101.6 54.2q0-0.1 0.1-0.1 0.1 0 0.1 0.1 0 0.1-0.1 0.1-0.1 0-0.1-0.1z"/><path class="a" d="m106.2 46.5q0-0.1 0.1-0.1 0.1 0 0.1 0.1 0 0.1-0.1 0.1-0.1 0-0.1-0.1z"/><path class="a" d="m111.3 39.1c0 0 0-0.1 0.1-0.1 0.1 0 0.1 0.1 0.1 0.1 0 0.1 0 0.2-0.1 0.2-0.1 0-0.1-0.1-0.1-0.2z"/><path class="a" d="m116.9 32.2q0-0.1 0.1-0.2 0.1 0.1 0.1 0.2 0 0.1-0.1 0.1-0.1 0-0.1-0.1z"/><path class="a" d="m123 25.6q0-0.1 0.1-0.1 0.1 0 0.1 0.1 0 0.1-0.1 0.1-0.1 0-0.1-0.1z"/><path class="a" d="m129.5 19.5q0-0.1 0.1-0.1 0.1 0 0.1 0.1 0 0.1-0.1 0.1-0.1 0-0.1-0.1z"/><path class="a" d="m136.4 13.8q0 0 0.1 0 0 0 0 0 0 0.1 0 0.1-0.1 0-0.1-0.1z"/><path class="a" d="m143.7 8.7q0 0 0 0 0 0 0 0 0 0 0 0 0 0 0 0z"/><path class="a" d="m151.3 4.1q0 0 0 0 0 0 0 0 0 0 0 0 0 0 0 0z"/><path class="a" d="m159.1 0q0 0 0.1 0 0 0 0 0 0 0.1 0 0.1-0.1 0-0.1-0.1z"/><path class="a" d="m335.3 83.3q0 0 0 0 0 0 0 0 0 0 0 0 0 0 0 0z"/><path class="a" d="m337.4 92.1q0 0 0 0 0 0 0 0 0 0 0 0 0 0 0 0z"/><path class="a" d="m338.9 101q0 0 0 0 0 0 0 0 0 0 0 0 0 0 0 0z"/><path class="a" d="m339.8 110q0 0 0 0 0.1 0 0.1 0 0 0-0.1 0 0 0 0 0z"/><path class="a" d="m349.8 119q0-0.1 0.1-0.1 0.1 0 0.1 0.1 0 0.1-0.1 0.1-0.1 0-0.1-0.1z"/><path class="a" d="m349.6 128.1q0-0.1 0.1-0.2 0.1 0.1 0.1 0.2 0 0.1-0.1 0.1-0.1 0-0.1-0.1z"/><path class="a" d="m348.9 137.1q0 0.1-0.1 0.1-0.1 0-0.1-0.1 0-0.1 0.1-0.1 0.1 0 0.1 0.1z"/><path class="a" d="m347.3 146c0-0.1 0-0.1 0.1-0.1 0.1 0 0.1 0 0.1 0.1 0 0.1 0 0.1-0.1 0.1-0.1 0-0.1 0-0.1-0.1z"/><path class="a" d="m345.3 154.8c0-0.1 0.1-0.1 0.1-0.1 0.1 0 0.2 0 0.2 0.1 0 0.1-0.1 0.1-0.2 0.1 0 0-0.1 0-0.1-0.1z"/><path class="a" d="m342.6 163.5c0-0.2 0.2-0.3 0.3-0.3 0.2 0 0.3 0.1 0.3 0.3 0 0.1-0.1 0.3-0.3 0.3-0.1 0-0.3-0.2-0.3-0.3z"/><path class="a" d="m339.5 172c0-0.3 0.2-0.4 0.4-0.4 0.2 0 0.4 0.1 0.4 0.4 0 0.2-0.2 0.4-0.4 0.4-0.2 0-0.4-0.2-0.4-0.4z"/><path class="a" d="m336.2 180.2q0-0.1 0.1-0.1 0.1 0 0.1 0.1 0 0.1-0.1 0.1c0 0-0.1 0-0.1-0.1z"/><path class="a" d="m332.2 188.2q0-0.1 0.1-0.1 0.1 0 0.1 0.1 0 0.1-0.1 0.2-0.1-0.1-0.1-0.2z"/><path class="a" d="m327.5 196c0-0.1 0.1-0.2 0.2-0.2 0.1 0 0.2 0.1 0.2 0.2 0 0.1-0.1 0.2-0.2 0.2-0.1 0-0.2-0.1-0.2-0.2z"/><path class="a" d="m322.5 203.4c0-0.1 0.1-0.1 0.2-0.1 0 0 0.1 0 0.1 0.1 0 0.1-0.1 0.1-0.1 0.1-0.1 0-0.2 0-0.2-0.1z"/><path class="a" d="m317 210.5c0-0.2 0-0.2 0.2-0.2 0.1 0 0.1 0.1 0.1 0.2 0 0.1 0 0.2-0.1 0.2-0.2 0-0.2-0.1-0.2-0.2z"/><path class="a" d="m310.8 217.2c0-0.3 0.2-0.5 0.4-0.5 0.3 0 0.5 0.2 0.5 0.5 0 0.2-0.2 0.4-0.5 0.4-0.2 0-0.4-0.2-0.4-0.4z"/><path class="a" d="m304.3 223.5c0-0.4 0.3-0.6 0.6-0.6 0.3 0 0.6 0.2 0.6 0.6 0 0.3-0.3 0.6-0.6 0.6-0.3 0-0.6-0.3-0.6-0.6z"/><path class="a" d="m297.8 229.3c0-0.2 0.2-0.4 0.4-0.4 0.2 0 0.4 0.2 0.4 0.4 0 0.2-0.2 0.4-0.4 0.4-0.2 0-0.4-0.2-0.4-0.4z"/><path class="a" d="m290.4 234.7c0-0.4 0.4-0.7 0.7-0.7 0.4 0 0.7 0.3 0.7 0.7 0 0.4-0.3 0.7-0.7 0.7-0.3 0-0.7-0.3-0.7-0.7z"/><path class="a" d="m284.7 239.6c0 0.6-0.4 1-0.9 1-0.6 0-1-0.4-1-1 0-0.5 0.4-0.9 1-0.9 0.5 0 0.9 0.4 0.9 0.9z"/><path class="a" d="m274.8 244.1c0-0.8 0.6-1.4 1.3-1.4 0.7 0 1.3 0.6 1.3 1.4 0 0.7-0.6 1.3-1.3 1.3-0.7 0-1.3-0.6-1.3-1.3z"/><path class="a" d="m267.2 248c0-0.5 0.4-1 0.9-1 0.6 0 1 0.5 1 1 0 0.5-0.4 1-1 1-0.5 0-0.9-0.5-0.9-1z"/><path class="a" d="m258.6 251.4c0-0.8 0.6-1.4 1.4-1.4 0.7 0 1.4 0.6 1.4 1.4 0 0.8-0.7 1.5-1.4 1.5-0.8 0-1.4-0.7-1.4-1.5z"/><path class="a" d="m250.2 254.3c0-0.8 0.7-1.5 1.4-1.5 0.8 0 1.4 0.6 1.4 1.5 0 0.8-0.6 1.4-1.4 1.4-0.7 0-1.4-0.7-1.4-1.4z"/><path class="a" d="m242.3 256.6c0-0.5 0.3-0.9 0.8-0.9 0.5 0 0.8 0.4 0.8 0.9 0 0.4-0.3 0.8-0.8 0.8-0.5 0-0.8-0.4-0.8-0.8z"/><path class="a" d="m233.5 258.3c0-0.5 0.4-1 1-1 0.5 0 0.9 0.5 0.9 1 0 0.5-0.4 0.9-0.9 0.9-0.5 0-1-0.4-1-0.9z"/><path class="a" d="m224.6 259.4c0-0.6 0.5-1.1 1.1-1.1 0.6 0 1.1 0.5 1.1 1.1 0 0.7-0.5 1.1-1.1 1.1-0.6 0-1.1-0.4-1.1-1.1z"/><path class="a" d="m216.2 260c0-0.4 0.3-0.8 0.7-0.8 0.5 0 0.8 0.4 0.8 0.8 0 0.4-0.3 0.8-0.8 0.8-0.4 0-0.7-0.4-0.7-0.8z"/><path class="a" d="m207.1 260c0-0.6 0.4-1.1 1-1.1 0.6 0 1.1 0.5 1.1 1.1 0 0.6-0.5 1.1-1.1 1.1-0.6 0-1-0.5-1-1.1z"/><path class="a" d="m198.1 259.4c0-0.6 0.6-1.2 1.2-1.2 0.7 0 1.2 0.6 1.2 1.2 0 0.7-0.5 1.3-1.2 1.3-0.6 0-1.1-0.6-1.2-1.3z"/><path class="a" d="m189.4 258.3c0-0.7 0.5-1.2 1.2-1.2 0.6 0 1.2 0.5 1.2 1.2 0 0.6-0.6 1.2-1.2 1.2-0.7 0-1.2-0.6-1.2-1.2z"/><path class="a" d="m180.7 256.6c0-0.7 0.6-1.3 1.2-1.3 0.7 0 1.3 0.6 1.3 1.3 0 0.7-0.6 1.2-1.3 1.2-0.6 0-1.2-0.5-1.2-1.2z"/><path class="a" d="m171.8 254.3c0-1 0.7-1.7 1.6-1.7 0.9 0 1.7 0.7 1.7 1.7 0 0.9-0.8 1.6-1.7 1.6-0.9 0-1.6-0.7-1.6-1.6z"/><path class="a" d="m163.2 251.4c0-1.1 0.8-1.9 1.9-1.9 1 0 1.8 0.8 1.8 1.9 0 1.1-0.8 1.9-1.8 1.9-1.1 0-1.9-0.8-1.9-1.9z"/><path class="a" d="m155.4 248c0-0.8 0.7-1.5 1.5-1.5 0.8 0 1.5 0.7 1.5 1.5 0 0.9-0.7 1.6-1.5 1.6-0.8 0-1.5-0.7-1.5-1.6z"/><path class="a" d="m146.7 244.1c0-1.3 1-2.3 2.3-2.3 1.2 0 2.2 1 2.2 2.3 0 1.3-1 2.3-2.2 2.3-1.3 0-2.3-1-2.3-2.3z"/><path class="a" d="m139.3 239.6c0-1.1 0.9-2 2-2 1.1 0 2 0.9 2 2 0 1.2-0.9 2.1-2 2.1-1.1 0-2-0.9-2-2.1z"/><path class="a" d="m131.9 234.7c0-1.1 0.9-2.1 2-2.1 1.1 0 2.1 1 2.1 2.1 0 1.2-1 2.1-2.1 2.1-1.1 0-2-0.9-2-2.1z"/><path class="a" d="m125.1 229.3c0-1 0.8-1.8 1.8-1.8 0.9 0 1.7 0.8 1.7 1.8 0 1-0.8 1.9-1.7 1.9-1 0-1.9-0.9-1.8-1.9z"/><path class="a" d="m118.3 223.5c0-1.1 0.8-2 1.8-2 1.1 0 1.9 0.9 1.9 2 0 1-0.8 1.9-1.9 1.9-1 0-1.8-0.9-1.8-1.9z"/><path class="a" d="m112.6 217.2c0-0.7 0.5-1.3 1.2-1.3 0.7 0 1.2 0.6 1.2 1.3 0 0.7-0.5 1.2-1.2 1.2-0.7 0-1.2-0.5-1.2-1.2z"/><path class="a" d="m106.8 210.5c0-0.6 0.5-1.1 1.1-1.1 0.6 0 1 0.5 1 1.1 0 0.5-0.4 1-1 1-0.6 0-1.1-0.5-1.1-1z"/><path class="a" d="m101.4 203.4c0-0.6 0.4-1.1 1-1.1 0.6 0 1.1 0.5 1.1 1.1 0 0.6-0.5 1.1-1.1 1.1-0.6 0-1-0.5-1-1.1z"/><path class="a" d="m96.4 196c0-0.5 0.4-1 1-1 0.5 0 0.9 0.5 0.9 1 0 0.5-0.4 0.9-0.9 0.9-0.5 0-0.9-0.4-1-0.9z"/><path class="a" d="m92.1 188.3c0-0.4 0.3-0.8 0.7-0.8 0.4 0 0.7 0.4 0.7 0.8 0 0.4-0.3 0.7-0.7 0.7-0.4 0-0.7-0.3-0.7-0.7z"/><path class="a" d="m87.9 180.2c0-0.4 0.4-0.8 0.8-0.8 0.5 0 0.8 0.4 0.8 0.8 0 0.5-0.3 0.9-0.8 0.9-0.4 0-0.8-0.4-0.8-0.9z"/><path class="a" d="m84.3 172c0-0.5 0.4-0.9 0.9-0.9 0.4 0 0.8 0.4 0.8 0.9 0 0.4-0.4 0.8-0.8 0.8-0.5 0-0.9-0.4-0.9-0.8z"/><path class="a" d="m81.3 163.5c0-0.5 0.4-0.9 0.8-0.9 0.5 0 0.9 0.4 0.9 0.9 0 0.4-0.4 0.8-0.9 0.8-0.5 0-0.8-0.4-0.8-0.8z"/><path class="a" d="m79 154.8c0-0.4 0.3-0.7 0.6-0.7 0.3 0 0.6 0.3 0.6 0.7 0 0.3-0.3 0.6-0.6 0.6-0.3 0-0.6-0.3-0.6-0.6z"/><path class="a" d="m78.2 146c0 0.3-0.2 0.6-0.5 0.6-0.4 0-0.6-0.3-0.6-0.6 0-0.3 0.2-0.6 0.6-0.6 0.3 0 0.5 0.3 0.5 0.6z"/><path class="a" d="m75.6 137.1c0-0.4 0.3-0.7 0.6-0.7 0.4 0 0.7 0.3 0.7 0.7 0 0.3-0.3 0.7-0.7 0.7-0.3 0-0.6-0.4-0.6-0.7z"/><path class="a" d="m74.9 128.1c0-0.3 0.2-0.6 0.5-0.6 0.3 0 0.5 0.3 0.5 0.6 0 0.3-0.2 0.5-0.5 0.5-0.3 0-0.5-0.2-0.5-0.5z"/><path class="a" d="m74.6 119c0-0.3 0.2-0.5 0.5-0.5 0.3 0 0.5 0.2 0.5 0.5 0 0.3-0.2 0.5-0.5 0.5-0.3 0-0.5-0.2-0.5-0.5z"/><path class="a" d="m75 110c0-0.3 0.2-0.4 0.4-0.4 0.2 0 0.4 0.1 0.4 0.4 0 0.2-0.2 0.4-0.4 0.4-0.2 0-0.4-0.2-0.4-0.4z"/><path class="a" d="m75.8 101c0-0.3 0.2-0.5 0.4-0.5 0.3 0 0.5 0.2 0.5 0.5 0 0.2-0.2 0.4-0.5 0.4-0.2 0-0.4-0.2-0.4-0.4z"/><path class="a" d="m77.3 92.1c0-0.2 0.2-0.4 0.4-0.4 0.1 0 0.3 0.2 0.3 0.4 0 0.1-0.2 0.3-0.3 0.3-0.2 0-0.4-0.2-0.4-0.3z"/><path class="a" d="m79.4 83.2c0-0.1 0.1-0.1 0.2-0.1 0.1 0 0.2 0 0.2 0.1 0 0.1-0.1 0.2-0.2 0.2-0.1 0-0.2-0.1-0.2-0.2z"/><path class="a" d="m82.4 74.6c0 0.1-0.1 0.3-0.3 0.3-0.2 0-0.3-0.2-0.3-0.3 0-0.2 0.1-0.4 0.3-0.4 0.2 0 0.3 0.2 0.3 0.4z"/><path class="a" d="m85 66.1c0-0.1 0.1-0.2 0.2-0.2 0 0 0.1 0.1 0.1 0.2 0 0.1-0.1 0.1-0.1 0.1-0.1 0-0.2 0-0.2-0.1z"/><path class="a" d="m88.5 57.8c0-0.1 0.1-0.2 0.2-0.2 0.1 0 0.2 0.1 0.2 0.2 0 0.1-0.1 0.2-0.2 0.2-0.1 0-0.2-0.1-0.2-0.2z"/><path class="a" d="m92.7 49.8q0-0.1 0.1-0.1 0.1 0 0.1 0.1 0 0.1-0.1 0.1-0.1 0-0.1-0.1z"/><path class="a" d="m97.2 42.1c0-0.1 0.1-0.2 0.2-0.2 0.1 0 0.1 0.1 0.1 0.2 0 0.1 0 0.2-0.1 0.2-0.1 0-0.2-0.1-0.2-0.2z"/><path class="a" d="m102.3 34.7c0-0.1 0-0.2 0.1-0.2 0.1 0 0.1 0.1 0.1 0.2 0 0 0 0.1-0.1 0.1-0.1 0-0.1-0.1-0.1-0.1z"/><path class="a" d="m107.8 27.6q0-0.1 0.1-0.1 0.1 0 0.1 0.1 0 0.1-0.1 0.1-0.1 0-0.1-0.1z"/><path class="a" d="m113.7 20.9q0-0.1 0.1-0.1 0.1 0 0.1 0.1 0 0.1-0.1 0.1-0.1 0-0.1-0.1z"/><path class="a" d="m120.1 14.6q0 0 0 0 0.1 0 0.1 0 0 0-0.1 0 0 0 0 0z"/><path class="a" d="m347.4 92.1q0-0.1 0-0.1 0 0 0 0.1 0 0 0 0 0 0 0 0z"/><path class="a" d="m348.8 101q0-0.1 0-0.1 0 0 0 0.1 0 0 0 0 0 0 0 0z"/><path class="a" d="m349.6 110q0 0 0.1 0 0 0 0 0 0 0 0 0-0.1 0-0.1 0z"/><path class="a" d="m359.6 119q0.1-0.1 0.1-0.1 0.1 0 0.2 0.1-0.1 0.1-0.2 0.1c0 0-0.1 0-0.1-0.1z"/><path class="a" d="m359.2 128.1c0-0.2 0.1-0.3 0.3-0.3 0.1 0 0.3 0.1 0.3 0.3 0 0.1-0.2 0.3-0.3 0.3-0.2 0-0.3-0.2-0.3-0.3z"/><path class="a" d="m358.5 137.1c0-0.2 0.1-0.3 0.2-0.3 0.1 0 0.2 0.1 0.2 0.3 0 0.1-0.1 0.2-0.2 0.2-0.1 0-0.2-0.1-0.2-0.2z"/><path class="a" d="m357.2 146c0-0.1 0.1-0.2 0.2-0.2 0.1 0 0.2 0.1 0.2 0.2 0 0.1-0.1 0.2-0.2 0.2-0.1 0-0.2-0.1-0.2-0.2z"/><path class="a" d="m355.4 154.9c0-0.1 0.1-0.2 0.2-0.2 0.1 0 0.2 0.1 0.2 0.2 0 0.1-0.1 0.2-0.2 0.2-0.1 0-0.2-0.1-0.2-0.2z"/><path class="a" d="m352.6 163.6c0-0.4 0.3-0.7 0.6-0.7 0.4 0 0.6 0.3 0.6 0.7 0 0.3-0.2 0.6-0.6 0.6-0.3 0-0.6-0.3-0.6-0.6z"/><path class="a" d="m349.3 172.1c0-0.6 0.5-1.1 1.1-1.1 0.6 0 1 0.5 1 1.1 0 0.6-0.4 1.1-1 1.1-0.6 0-1.1-0.5-1.1-1.1z"/><path class="a" d="m346.6 180.5c0-0.2 0.2-0.4 0.4-0.4 0.2 0 0.4 0.2 0.4 0.4 0 0.2-0.2 0.4-0.4 0.4-0.2 0-0.4-0.2-0.4-0.4z"/><path class="a" d="m342.4 188.6c0-0.4 0.3-0.8 0.8-0.8 0.5 0 0.8 0.4 0.8 0.8 0 0.5-0.3 0.9-0.8 0.9-0.5 0-0.8-0.4-0.8-0.9z"/><path class="a" d="m338.2 196.5c0-0.3 0.3-0.7 0.7-0.7 0.4 0 0.7 0.4 0.7 0.7 0 0.4-0.3 0.7-0.7 0.7-0.4 0-0.7-0.3-0.7-0.7z"/><path class="a" d="m333.9 204.2c0-0.2 0.1-0.3 0.3-0.3 0.1 0 0.3 0.1 0.3 0.3 0 0.1-0.2 0.3-0.3 0.3-0.2 0-0.3-0.2-0.3-0.3z"/><path class="a" d="m328.5 211.5c0-0.3 0.2-0.6 0.5-0.6 0.3 0 0.5 0.3 0.5 0.6 0 0.3-0.2 0.5-0.5 0.5-0.3 0-0.5-0.2-0.5-0.5z"/><path class="a" d="m322.9 218.5c0-0.3 0.2-0.5 0.5-0.5 0.3 0 0.5 0.2 0.5 0.5 0 0.3-0.2 0.5-0.5 0.5-0.3 0-0.5-0.2-0.5-0.5z"/><path class="a" d="m316.9 225.1c0-0.3 0.2-0.5 0.5-0.5 0.3 0 0.5 0.2 0.5 0.5 0 0.3-0.2 0.5-0.5 0.5-0.3 0-0.5-0.2-0.5-0.5z"/><path class="a" d="m310.2 231.3c0-0.4 0.4-0.8 0.8-0.8 0.5 0 0.9 0.4 0.9 0.8 0 0.5-0.4 0.9-0.9 0.9-0.4 0-0.8-0.4-0.8-0.9z"/><path class="a" d="m303.4 237.2c0-0.5 0.4-1 0.9-1 0.5 0 0.9 0.5 0.9 1 0 0.5-0.4 0.9-0.9 0.9-0.5 0-0.9-0.4-0.9-0.9z"/><path class="a" d="m296 242.6c0-0.7 0.6-1.2 1.3-1.2 0.7 0 1.2 0.5 1.2 1.2 0 0.7-0.5 1.3-1.2 1.3-0.7 0-1.3-0.6-1.3-1.3z"/><path class="a" d="m288.7 247.6c0-0.7 0.5-1.3 1.2-1.3 0.7 0 1.3 0.6 1.3 1.3 0 0.7-0.6 1.3-1.3 1.3-0.7 0-1.2-0.6-1.2-1.3z"/><path class="a" d="m280.4 252.1c0-1 0.9-1.9 1.9-1.9 1 0 1.8 0.9 1.8 1.9 0 1.1-0.8 1.9-1.8 1.9-1 0-1.9-0.8-1.9-1.9z"/><path class="a" d="m276.1 256.2c0 0.9-0.8 1.7-1.7 1.7-0.9 0-1.6-0.8-1.6-1.7 0-1 0.7-1.7 1.6-1.7 0.9 0 1.7 0.7 1.7 1.7z"/><path class="a" d="m264.9 259.7c0-0.8 0.6-1.4 1.4-1.4 0.8 0 1.4 0.6 1.4 1.4 0 0.8-0.6 1.5-1.4 1.5-0.8 0-1.4-0.7-1.4-1.5z"/><path class="a" d="m256.6 262.8c0-0.8 0.6-1.5 1.4-1.5 0.8 0 1.4 0.7 1.4 1.5 0 0.8-0.6 1.4-1.4 1.4-0.8 0-1.4-0.6-1.4-1.4z"/><path class="a" d="m248.2 265.3c0-0.8 0.6-1.4 1.4-1.4 0.7 0 1.4 0.6 1.4 1.4 0 0.8-0.7 1.4-1.4 1.4-0.8 0-1.4-0.6-1.4-1.4z"/><path class="a" d="m239.8 267.3c0-0.6 0.5-1.2 1.2-1.2 0.6 0 1.1 0.6 1.1 1.2 0 0.7-0.5 1.2-1.1 1.2-0.7 0-1.2-0.5-1.2-1.2z"/><path class="a" d="m231.2 268.8c0-0.6 0.5-1.1 1.1-1.1 0.6 0 1.1 0.5 1.1 1.1 0 0.6-0.5 1.1-1.1 1.1-0.6 0-1.1-0.5-1.1-1.1z"/><path class="a" d="m222.3 269.7c0-0.6 0.6-1.2 1.2-1.2 0.7 0 1.2 0.6 1.2 1.2 0 0.7-0.5 1.2-1.2 1.2-0.6 0-1.2-0.5-1.2-1.2z"/><path class="a" d="m213.4 270.2c0-0.8 0.6-1.4 1.3-1.4 0.8 0 1.3 0.6 1.3 1.4 0 0.7-0.6 1.3-1.3 1.3-0.7 0-1.3-0.6-1.3-1.3z"/><path class="a" d="m204.3 270c0-0.9 0.7-1.7 1.6-1.7 0.9 0 1.7 0.8 1.7 1.7 0 1-0.8 1.7-1.7 1.7-0.9 0-1.6-0.7-1.6-1.7z"/><path class="a" d="m195.5 269.3c0-0.9 0.7-1.7 1.6-1.7 1 0 1.7 0.8 1.7 1.7 0 1-0.7 1.7-1.7 1.7-0.9 0-1.6-0.7-1.6-1.7z"/><path class="a" d="m186.6 268.1c0-1 0.8-1.9 1.8-1.9 1 0 1.8 0.9 1.8 1.9 0 1.1-0.8 1.9-1.8 1.9-1 0-1.8-0.8-1.8-1.9z"/><path class="a" d="m177.7 266.4c0-1.2 0.9-2.1 2.1-2.1 1.1 0 2 0.9 2 2.1 0 1.1-0.9 2.1-2 2.1-1.2 0-2.1-1-2.1-2.1z"/><path class="a" d="m169.2 264.1c0-1.1 0.9-2.1 2-2.1 1.2 0 2.1 1 2.1 2.1 0 1.2-0.9 2.1-2.1 2.1-1.1 0-2-0.9-2-2.1z"/><path class="a" d="m160.6 261.3c0-1.3 1-2.3 2.3-2.3 1.2 0 2.2 1 2.2 2.3 0 1.3-1 2.4-2.2 2.4-1.3 0-2.3-1.1-2.3-2.4z"/><path class="a" d="m152.5 258c0-1.2 1-2.2 2.2-2.2 1.2 0 2.1 1 2.1 2.2 0 1.2-0.9 2.2-2.1 2.2-1.2 0-2.2-1-2.2-2.2z"/><path class="a" d="m144.1 254.2c0-1.5 1.2-2.6 2.6-2.6 1.4 0 2.5 1.1 2.5 2.6 0 1.4-1.1 2.6-2.5 2.6-1.4 0-2.6-1.2-2.6-2.6z"/><path class="a" d="m136.6 249.9c0-1.3 1-2.3 2.3-2.3 1.3 0 2.3 1 2.3 2.3 0 1.3-1 2.4-2.3 2.4-1.3 0-2.3-1.1-2.3-2.4z"/><path class="a" d="m129 245.2c0-1.4 1.1-2.5 2.4-2.5 1.4 0 2.4 1.1 2.4 2.5 0 1.3-1 2.4-2.4 2.4-1.3 0-2.4-1.1-2.4-2.4z"/><path class="a" d="m126.4 240c0 1.2-1 2.2-2.2 2.2-1.2 0-2.2-1-2.2-2.2 0-1.3 1-2.3 2.2-2.3 1.2 0 2.2 1 2.2 2.3z"/><path class="a" d="m114.7 234.3c0-1.5 1.2-2.7 2.6-2.7 1.5 0 2.7 1.2 2.7 2.7 0 1.5-1.2 2.7-2.7 2.7-1.4 0-2.6-1.2-2.6-2.7z"/><path class="a" d="m108.4 228.3c0-1.4 1-2.5 2.4-2.5 1.3 0 2.4 1.1 2.4 2.5 0 1.3-1.1 2.4-2.4 2.4-1.4 0-2.4-1.1-2.4-2.4z"/><path class="a" d="m102.2 221.8c0-1.4 1.1-2.5 2.4-2.5 1.3 0 2.4 1.1 2.4 2.5 0 1.4-1.1 2.5-2.4 2.5-1.3 0-2.4-1.1-2.4-2.5z"/><path class="a" d="m97.1 215c0-1 0.7-1.8 1.7-1.8 1 0 1.7 0.8 1.7 1.8 0 1-0.7 1.8-1.7 1.8-1 0-1.7-0.8-1.7-1.8z"/><path class="a" d="m92 207.9c0-0.8 0.6-1.5 1.4-1.5 0.8 0 1.4 0.7 1.4 1.5 0 0.8-0.6 1.4-1.4 1.4-0.8 0-1.4-0.6-1.4-1.4z"/><path class="a" d="m89.9 200.4c0 0.8-0.6 1.5-1.5 1.5-0.8 0-1.5-0.7-1.5-1.5 0-0.9 0.7-1.6 1.5-1.6 0.9 0 1.5 0.7 1.5 1.6z"/><path class="a" d="m82.4 192.6c0-0.8 0.7-1.5 1.5-1.5 0.9 0 1.5 0.7 1.5 1.5 0 0.9-0.6 1.6-1.5 1.6-0.8 0-1.5-0.7-1.5-1.6z"/><path class="a" d="m78.6 184.6c0-0.7 0.6-1.3 1.3-1.3 0.7 0 1.3 0.6 1.3 1.3 0 0.7-0.6 1.3-1.3 1.3-0.7 0-1.3-0.6-1.3-1.3z"/><path class="a" d="m75.2 176.3c0-0.6 0.5-1 1.1-1 0.6 0 1 0.4 1 1 0 0.6-0.4 1.1-1 1.1-0.6 0-1.1-0.5-1.1-1.1z"/><path class="a" d="m72.4 167.9c0-0.5 0.3-0.9 0.8-0.9 0.5 0 0.8 0.4 0.8 0.9 0 0.5-0.3 0.8-0.8 0.8-0.5 0-0.8-0.3-0.8-0.8z"/><path class="a" d="m69.6 159.2c0-0.6 0.4-1.1 1-1.1 0.6 0 1.1 0.5 1.1 1.1 0 0.6-0.5 1.1-1.1 1.1-0.6 0-1-0.5-1-1.1z"/><path class="a" d="m67.8 150.4c0-0.4 0.3-0.7 0.7-0.7 0.4 0 0.7 0.3 0.7 0.7 0 0.4-0.3 0.7-0.7 0.7-0.4 0-0.7-0.3-0.7-0.7z"/><path class="a" d="m66.3 141.6c0-0.4 0.3-0.7 0.6-0.7 0.4 0 0.7 0.3 0.7 0.7 0 0.3-0.3 0.7-0.7 0.7-0.3 0-0.6-0.4-0.6-0.7z"/><path class="a" d="m65.2 132.6c0-0.4 0.3-0.8 0.7-0.8 0.4 0 0.7 0.4 0.7 0.8 0 0.4-0.3 0.7-0.7 0.7-0.4 0-0.7-0.3-0.7-0.7z"/><path class="a" d="m64.7 123.5c0-0.3 0.3-0.7 0.7-0.7 0.3 0 0.7 0.4 0.7 0.7 0 0.4-0.4 0.8-0.7 0.8-0.4 0-0.7-0.4-0.7-0.8z"/><path class="a" d="m64.7 114.5c0-0.4 0.3-0.6 0.7-0.6 0.3 0 0.6 0.3 0.6 0.6 0 0.4-0.3 0.6-0.6 0.6-0.4 0-0.7-0.2-0.7-0.6z"/><path class="a" d="m65.4 105.5c0-0.3 0.2-0.5 0.5-0.5 0.3 0 0.5 0.2 0.5 0.5 0 0.2-0.2 0.5-0.5 0.5-0.3 0-0.5-0.3-0.5-0.5z"/><path class="a" d="m66.4 96.5c0-0.3 0.2-0.5 0.5-0.5 0.3 0 0.6 0.2 0.6 0.5 0 0.3-0.3 0.5-0.6 0.5-0.3 0-0.5-0.2-0.5-0.5z"/><path class="a" d="m68 87.6c0-0.3 0.2-0.5 0.5-0.5 0.3 0 0.5 0.2 0.5 0.5 0 0.3-0.2 0.5-0.5 0.5-0.3 0-0.5-0.2-0.5-0.5z"/><path class="a" d="m70.1 78.8c0-0.3 0.2-0.5 0.5-0.5 0.3 0 0.5 0.2 0.5 0.5 0 0.3-0.2 0.5-0.5 0.5-0.3 0-0.5-0.2-0.5-0.5z"/><path class="a" d="m72.9 70.2c0-0.2 0.1-0.4 0.3-0.4 0.2 0 0.3 0.2 0.3 0.4 0 0.1-0.1 0.3-0.3 0.3-0.2 0-0.3-0.2-0.3-0.3z"/><path class="a" d="m75.9 61.7c0-0.2 0.2-0.4 0.4-0.4 0.2 0 0.4 0.2 0.4 0.4 0 0.2-0.2 0.4-0.4 0.4-0.2 0-0.4-0.2-0.4-0.4z"/><path class="a" d="m79.3 53.4c0-0.3 0.3-0.6 0.6-0.6 0.3 0 0.6 0.3 0.6 0.6 0 0.4-0.3 0.6-0.6 0.6-0.3 0-0.6-0.2-0.6-0.6z"/><path class="a" d="m83.6 45.4c0-0.1 0.2-0.3 0.3-0.3 0.2 0 0.3 0.2 0.3 0.3 0 0.2-0.1 0.3-0.3 0.3-0.1 0-0.3-0.1-0.3-0.3z"/><path class="a" d="m88.2 37.6c0-0.1 0.1-0.3 0.2-0.3 0.2 0 0.3 0.2 0.3 0.3 0 0.2-0.1 0.3-0.3 0.3-0.1 0-0.2-0.1-0.2-0.3z"/><path class="a" d="m93.3 30.2q0-0.1 0.1-0.1 0.1 0 0.1 0.1 0 0.1-0.1 0.1-0.1 0-0.1-0.1z"/><path class="a" d="m98.7 23c0-0.1 0-0.1 0.1-0.1 0.1 0 0.1 0 0.1 0.1 0 0.1 0 0.2-0.1 0.2-0.1 0-0.1-0.1-0.1-0.2z"/><path class="a" d="m368.4 137.1c0-0.2 0.1-0.2 0.2-0.2 0.1 0 0.2 0 0.2 0.2 0 0.1-0.1 0.2-0.2 0.2-0.1 0-0.2-0.1-0.2-0.2z"/><path class="a" d="m367.1 146c0-0.1 0.1-0.3 0.2-0.3 0.2 0 0.3 0.2 0.3 0.3 0 0.2-0.1 0.3-0.3 0.3-0.1 0-0.2-0.1-0.2-0.3z"/><path class="a" d="m365.4 154.9c0-0.1 0.1-0.2 0.2-0.2 0.2 0 0.3 0.1 0.3 0.2 0 0.1-0.1 0.2-0.3 0.2-0.1 0-0.2-0.1-0.2-0.2z"/><path class="a" d="m363 163.7c0-0.3 0.2-0.5 0.4-0.5 0.2 0 0.4 0.2 0.4 0.5 0 0.2-0.2 0.4-0.4 0.4-0.2 0-0.4-0.2-0.4-0.4z"/><path class="a" d="m360 172.3c0-0.5 0.3-0.8 0.7-0.8 0.5 0 0.8 0.3 0.8 0.8 0 0.4-0.3 0.7-0.8 0.7-0.4 0-0.7-0.3-0.7-0.7z"/><path class="a" d="m356.5 180.7c0-0.6 0.5-1.2 1.1-1.2 0.6 0 1.2 0.6 1.2 1.2 0 0.7-0.6 1.2-1.2 1.2-0.6 0-1.1-0.5-1.1-1.2z"/><path class="a" d="m352.7 189c0-0.8 0.6-1.3 1.3-1.3 0.7 0 1.3 0.6 1.3 1.3 0 0.7-0.6 1.3-1.3 1.3-0.7 0-1.3-0.6-1.3-1.3z"/><path class="a" d="m348.2 197c0-1 0.8-1.8 1.8-1.8 1 0 1.8 0.8 1.8 1.8 0 1-0.8 1.9-1.8 1.9-1 0-1.8-0.9-1.8-1.9z"/><path class="a" d="m344.7 204.8c0-0.4 0.4-0.8 0.8-0.8 0.4 0 0.8 0.4 0.8 0.8 0 0.4-0.4 0.8-0.8 0.8-0.4 0-0.8-0.4-0.8-0.8z"/><path class="a" d="m339.8 212.3c0-0.5 0.3-0.8 0.8-0.8 0.5 0 0.8 0.3 0.8 0.8 0 0.5-0.3 0.9-0.8 0.9-0.5 0-0.8-0.4-0.8-0.9z"/><path class="a" d="m334.8 219.5c0-0.3 0.2-0.5 0.5-0.5 0.3 0 0.5 0.2 0.5 0.5 0 0.3-0.2 0.6-0.5 0.6-0.3 0-0.5-0.3-0.5-0.6z"/><path class="a" d="m328.8 226.5c0-0.5 0.4-0.9 0.8-0.9 0.5 0 0.9 0.4 0.9 0.9 0 0.4-0.4 0.8-0.9 0.8-0.4 0-0.8-0.4-0.8-0.8z"/><path class="a" d="m324.6 233c0 0.6-0.4 1.1-1 1.1-0.6 0-1.1-0.5-1.1-1.1 0-0.6 0.5-1.1 1.1-1.1 0.6 0 1 0.5 1 1.1z"/><path class="a" d="m316.4 239.2c0-0.4 0.3-0.8 0.8-0.8 0.4 0 0.8 0.4 0.8 0.8 0 0.5-0.4 0.9-0.8 0.9-0.5 0-0.8-0.4-0.8-0.9z"/><path class="a" d="m308.8 245.1c0-1 0.7-1.7 1.6-1.7 0.9 0 1.7 0.7 1.7 1.7 0 0.9-0.8 1.6-1.7 1.6-0.9 0-1.6-0.7-1.6-1.6z"/><path class="a" d="m301.8 250.5c0-0.9 0.7-1.7 1.6-1.7 0.9 0 1.6 0.8 1.6 1.7 0 0.9-0.7 1.7-1.6 1.7-0.9 0-1.6-0.8-1.6-1.7z"/><path class="a" d="m294.4 255.5c0-0.9 0.8-1.7 1.7-1.7 0.9 0 1.6 0.8 1.6 1.7 0 1-0.7 1.7-1.6 1.7-1 0-1.7-0.7-1.7-1.7z"/><path class="a" d="m286.6 260.1c0-1 0.8-1.9 1.9-1.9 1 0 1.8 0.9 1.8 1.9 0 1.1-0.8 1.9-1.8 1.9-1 0-1.9-0.8-1.9-1.9z"/><path class="a" d="m278.4 264.3c0-1.3 1-2.4 2.3-2.4 1.2 0 2.3 1.1 2.3 2.4 0 1.3-1.1 2.3-2.3 2.3-1.3 0-2.3-1-2.3-2.3z"/><path class="a" d="m270.7 268c0-1.1 0.9-2 1.9-2 1.1 0 1.9 0.9 1.9 2 0 1-0.8 1.9-1.9 1.9-1 0-1.9-0.9-1.9-1.9z"/><path class="a" d="m262.7 271.2c0-1 0.7-1.8 1.7-1.8 1 0 1.7 0.8 1.7 1.8 0 1-0.7 1.8-1.7 1.8-1 0-1.7-0.8-1.7-1.8z"/><path class="a" d="m254.1 274c0-1.1 0.9-2 1.9-2 1 0 1.9 0.9 1.9 2 0 1-0.9 1.9-1.9 1.9-1 0-1.9-0.9-1.9-1.9z"/><path class="a" d="m245.5 276.2c0-1.1 0.9-2.1 2-2.1 1.1 0 2 1 2 2.1 0 1.2-0.9 2.1-2 2.1-1.1 0-2.1-0.9-2-2.1z"/><path class="a" d="m236.9 278c0-1.1 0.9-2 1.9-2 1.1 0 1.9 0.9 1.9 2 0 1-0.8 1.9-1.9 1.9-1 0-1.9-0.9-1.9-1.9z"/><path class="a" d="m232 279.2c0 1.1-0.8 2-1.9 2-1 0-1.9-0.9-1.9-2 0-1 0.9-1.9 1.9-1.9 1.1 0 1.9 0.9 1.9 1.9z"/><path class="a" d="m219.1 280c0-1.2 1-2.2 2.2-2.2 1.2 0 2.2 1 2.2 2.2 0 1.2-1 2.2-2.2 2.2-1.2 0-2.2-1-2.2-2.2z"/><path class="a" d="m210.3 280.3c0-1.3 1-2.3 2.2-2.3 1.2 0 2.2 1 2.2 2.3 0 1.2-1 2.2-2.2 2.2-1.2 0-2.2-1-2.2-2.2z"/><path class="a" d="m201.4 280c0-1.3 1-2.4 2.3-2.4 1.3 0 2.3 1.1 2.3 2.4 0 1.3-1 2.4-2.3 2.4-1.3 0-2.3-1.1-2.3-2.4z"/><path class="a" d="m192.7 279.2c0-1.3 1-2.3 2.2-2.3 1.3 0 2.3 1.1 2.3 2.3 0 1.3-1 2.3-2.3 2.3-1.2 0-2.2-1-2.2-2.3z"/><path class="a" d="m183.7 278c0-1.5 1.1-2.6 2.5-2.6 1.4 0 2.6 1.1 2.6 2.6 0 1.4-1.2 2.6-2.6 2.6-1.4 0-2.5-1.2-2.5-2.6z"/><path class="a" d="m175.2 276.2c0-1.4 1.1-2.4 2.4-2.4 1.3 0 2.4 1 2.4 2.4 0 1.4-1.1 2.5-2.4 2.5-1.3 0-2.4-1.2-2.4-2.5z"/><path class="a" d="m166.6 273.9c0-1.3 1.1-2.5 2.5-2.5 1.3 0 2.4 1.2 2.4 2.5 0 1.4-1.1 2.6-2.4 2.6-1.4 0-2.5-1.2-2.5-2.6z"/><path class="a" d="m158.3 271.2c0-1.4 1-2.4 2.4-2.4 1.3 0 2.3 1 2.3 2.4 0 1.4-1 2.5-2.3 2.5-1.4 0-2.4-1.2-2.4-2.5z"/><path class="a" d="m150 268c0-1.4 1.1-2.5 2.4-2.5 1.3 0 2.4 1.1 2.4 2.5 0 1.3-1.1 2.4-2.4 2.4-1.3 0-2.4-1.1-2.4-2.4z"/><path class="a" d="m141.8 264.3c0-1.5 1.2-2.6 2.6-2.6 1.4 0 2.5 1.1 2.5 2.6 0 1.4-1.1 2.6-2.5 2.6-1.4 0-2.6-1.2-2.6-2.6z"/><path class="a" d="m134 260.1c0-1.4 1.1-2.6 2.6-2.6 1.4 0 2.5 1.2 2.5 2.6 0 1.5-1.1 2.6-2.5 2.6-1.4 0-2.6-1.1-2.6-2.6z"/><path class="a" d="m126.2 255.5c0-1.5 1.3-2.8 2.8-2.8 1.5 0 2.7 1.3 2.7 2.8 0 1.6-1.2 2.9-2.7 2.9-1.5 0-2.8-1.3-2.8-2.9z"/><path class="a" d="m119.2 250.5c0-1.4 1.1-2.5 2.4-2.5 1.4 0 2.5 1.1 2.5 2.5 0 1.4-1.1 2.5-2.5 2.5-1.3 0-2.4-1.1-2.4-2.5z"/><path class="a" d="m112.1 245.1c0-1.5 1.1-2.6 2.5-2.6 1.4 0 2.6 1.1 2.6 2.6 0 1.4-1.2 2.6-2.6 2.6-1.4 0-2.5-1.2-2.5-2.6z"/><path class="a" d="m110.6 239.2c0 1.6-1.2 2.8-2.7 2.8-1.5 0-2.7-1.2-2.7-2.8 0-1.5 1.2-2.7 2.7-2.7 1.5 0 2.7 1.2 2.7 2.7z"/><path class="a" d="m98.7 233c0-1.6 1.2-2.9 2.8-2.9 1.5 0 2.8 1.3 2.8 2.9 0 1.6-1.3 2.9-2.8 2.9-1.6 0-2.8-1.3-2.8-2.9z"/><path class="a" d="m92.7 226.5c0-1.6 1.2-2.8 2.7-2.8 1.5 0 2.7 1.2 2.7 2.8 0 1.5-1.2 2.7-2.7 2.7-1.5 0-2.7-1.2-2.7-2.7z"/><path class="a" d="m87.4 219.5c0-1.3 1.1-2.3 2.3-2.3 1.3 0 2.4 1 2.4 2.3 0 1.4-1.1 2.4-2.4 2.4-1.2 0-2.3-1-2.3-2.4z"/><path class="a" d="m82.1 212.3c0-1.3 1.1-2.4 2.3-2.4 1.3 0 2.4 1.1 2.4 2.4 0 1.3-1.1 2.4-2.4 2.4-1.2 0-2.3-1.1-2.3-2.4z"/><path class="a" d="m77.3 204.8c0-1.3 1-2.3 2.3-2.3 1.2 0 2.2 1 2.2 2.3 0 1.3-1 2.3-2.2 2.3-1.3 0-2.3-1-2.3-2.3z"/><path class="a" d="m73.4 197c0-0.9 0.8-1.7 1.7-1.7 0.9 0 1.6 0.8 1.6 1.7 0 0.9-0.7 1.7-1.6 1.7-0.9 0-1.7-0.8-1.7-1.7z"/><path class="a" d="m69.2 189c0-1 0.8-1.9 1.8-1.9 1 0 1.8 0.9 1.8 1.9 0 1-0.8 1.8-1.8 1.8-1 0-1.8-0.8-1.8-1.8z"/><path class="a" d="m65.6 180.7c0-1 0.8-1.8 1.8-1.8 1 0 1.8 0.8 1.8 1.8 0 1-0.8 1.9-1.8 1.9-1 0-1.8-0.9-1.8-1.9z"/><path class="a" d="m62.9 172.3c0-0.9 0.6-1.5 1.4-1.5 0.8 0 1.4 0.6 1.4 1.5 0 0.8-0.6 1.4-1.4 1.4-0.8 0-1.4-0.6-1.4-1.4z"/><path class="a" d="m60 163.7c0-0.9 0.7-1.7 1.6-1.7 0.9 0 1.6 0.8 1.6 1.7 0 0.8-0.7 1.6-1.6 1.6-0.8 0-1.5-0.8-1.6-1.6z"/><path class="a" d="m58.3 154.9c0-0.7 0.5-1.2 1.1-1.2 0.7 0 1.2 0.5 1.2 1.2 0 0.7-0.6 1.2-1.2 1.2-0.6 0-1.1-0.5-1.1-1.2z"/><path class="a" d="m56.7 146c0-0.6 0.4-1.1 1-1.1 0.6 0 1 0.5 1 1.1 0 0.6-0.4 1.1-1 1.1-0.6 0-1-0.5-1-1.1z"/><path class="a" d="m55.4 137.1c0-0.6 0.5-1.1 1.1-1.1 0.6 0 1 0.5 1 1.1 0 0.6-0.4 1.1-1 1.1-0.6 0-1.1-0.5-1.1-1.1z"/><path class="a" d="m54.7 128.1c0-0.6 0.5-1.1 1-1.1 0.6 0 1.1 0.5 1.1 1.1 0 0.6-0.5 1-1.1 1-0.5 0-1-0.5-1-1z"/><path class="a" d="m54.4 119c0-0.6 0.5-1.1 1.1-1.1 0.6 0 1.1 0.5 1.1 1.1 0 0.6-0.5 1.1-1.1 1.1-0.6 0-1.1-0.5-1.1-1.1z"/><path class="a" d="m54.9 110c0-0.5 0.4-0.8 0.8-0.8 0.5 0 0.8 0.3 0.8 0.8 0 0.5-0.3 0.8-0.8 0.8-0.4 0-0.8-0.3-0.8-0.8z"/><path class="a" d="m55.6 101c0-0.5 0.4-0.9 0.9-0.9 0.4 0 0.8 0.4 0.8 0.9 0 0.4-0.4 0.8-0.8 0.8-0.5 0-0.9-0.4-0.9-0.8z"/><path class="a" d="m56.9 92c0-0.5 0.3-0.8 0.8-0.8 0.5 0 0.8 0.3 0.8 0.8 0 0.5-0.3 0.8-0.8 0.8-0.5 0-0.8-0.3-0.8-0.8z"/><path class="a" d="m60 83.1c0 0.4-0.3 0.6-0.6 0.6-0.3 0-0.6-0.2-0.6-0.6 0-0.3 0.3-0.6 0.6-0.6 0.3 0 0.6 0.3 0.6 0.6z"/><path class="a" d="m60.9 74.4c0-0.4 0.3-0.7 0.7-0.7 0.4 0 0.7 0.3 0.7 0.7 0 0.4-0.3 0.7-0.7 0.7-0.4 0-0.7-0.3-0.7-0.7z"/><path class="a" d="m63.9 65.8c0-0.3 0.2-0.5 0.4-0.5 0.2 0 0.4 0.2 0.4 0.5 0 0.2-0.2 0.4-0.4 0.4-0.2 0-0.4-0.2-0.4-0.4z"/><path class="a" d="m67.1 57.3c0-0.2 0.2-0.3 0.3-0.3 0.2 0 0.4 0.1 0.4 0.3 0 0.2-0.2 0.3-0.4 0.3-0.1 0-0.3-0.1-0.3-0.3z"/><path class="a" d="m70.6 49.1c0-0.3 0.2-0.5 0.4-0.5 0.3 0 0.5 0.2 0.5 0.5 0 0.2-0.2 0.4-0.5 0.4-0.2 0-0.4-0.2-0.4-0.4z"/><path class="a" d="m74.7 41c0-0.2 0.1-0.4 0.4-0.4 0.2 0 0.4 0.2 0.4 0.4 0 0.3-0.2 0.5-0.4 0.5-0.3 0-0.4-0.2-0.4-0.5z"/><path class="a" d="m79.4 33.2c0 0 0.1-0.1 0.2-0.1 0 0 0.1 0.1 0.1 0.1 0 0.1-0.1 0.2-0.1 0.2-0.1 0-0.2-0.1-0.2-0.2z"/><path class="a" d="m84.4 25.7q0 0 0 0 0.1 0 0.1 0 0 0.1-0.1 0.1 0 0 0-0.1z"/><path class="a" d="m375.3 154.9c0-0.1 0.2-0.3 0.4-0.3 0.2 0 0.3 0.1 0.3 0.3 0 0.2-0.1 0.4-0.3 0.4-0.2 0-0.4-0.2-0.4-0.4z"/><path class="a" d="m373.3 163.7c0-0.1 0.1-0.3 0.3-0.3 0.2 0 0.3 0.2 0.3 0.3 0 0.2-0.1 0.3-0.3 0.3-0.2 0-0.3-0.1-0.3-0.3z"/><path class="a" d="m370.9 172.4c0-0.1 0.1-0.2 0.2-0.2 0.1 0 0.2 0.1 0.2 0.2 0 0.1-0.1 0.2-0.2 0.2-0.1 0-0.2-0.1-0.2-0.2z"/><path class="a" d="m367.9 180.9c0-0.1 0.1-0.2 0.2-0.2 0.1 0 0.2 0.1 0.2 0.2 0 0.1-0.1 0.2-0.2 0.2-0.1 0-0.2-0.1-0.2-0.2z"/><path class="a" d="m363.6 189.2c0-0.6 0.5-1.1 1.1-1.1 0.7 0 1.2 0.5 1.2 1.1 0 0.7-0.6 1.2-1.2 1.2-0.6 0-1.1-0.5-1.1-1.2z"/><path class="a" d="m359.1 197.4c0-1.1 0.8-1.9 1.8-1.9 1 0 1.8 0.8 1.8 1.9 0 1-0.8 1.9-1.8 1.9-1 0-1.8-0.9-1.8-1.9z"/><path class="a" d="m355.2 205.3c0-0.8 0.6-1.5 1.5-1.5 0.8 0 1.5 0.7 1.5 1.5 0 0.9-0.7 1.6-1.5 1.6-0.9 0-1.5-0.7-1.5-1.6z"/><path class="a" d="m350.5 213c0-0.8 0.7-1.5 1.5-1.5 0.8 0 1.5 0.7 1.5 1.5 0 0.9-0.7 1.5-1.5 1.5-0.8 0-1.5-0.6-1.5-1.5z"/><path class="a" d="m346.2 220.4c0-0.4 0.3-0.8 0.8-0.8 0.5 0 0.8 0.4 0.8 0.8 0 0.5-0.3 0.9-0.8 0.9-0.5 0-0.8-0.4-0.8-0.9z"/><path class="a" d="m340.3 227.6c0-0.8 0.6-1.4 1.3-1.4 0.7 0 1.3 0.6 1.3 1.4 0 0.7-0.6 1.3-1.3 1.3-0.7 0-1.3-0.6-1.3-1.3z"/><path class="a" d="m334.5 234.4c0-0.7 0.6-1.3 1.3-1.3 0.8 0 1.3 0.6 1.3 1.3 0 0.8-0.5 1.4-1.3 1.4-0.7 0-1.3-0.6-1.3-1.4z"/><path class="a" d="m328.4 240.9c0-0.7 0.6-1.3 1.3-1.3 0.8 0 1.3 0.6 1.3 1.3 0 0.8-0.5 1.4-1.3 1.4-0.7 0-1.3-0.6-1.3-1.4z"/><path class="a" d="m321.7 247.1c0-0.9 0.7-1.6 1.6-1.6 0.9 0 1.6 0.7 1.6 1.6 0 1-0.7 1.7-1.6 1.7-0.9 0-1.6-0.8-1.6-1.7z"/><path class="a" d="m314.4 252.9c0-1.2 1-2.1 2.2-2.1 1.1 0 2.1 0.9 2.1 2.1 0 1.3-1 2.2-2.1 2.2-1.2 0-2.2-0.9-2.2-2.2z"/><path class="a" d="m307.4 258.4c0-1.2 1-2.2 2.1-2.2 1.2 0 2.2 1 2.2 2.2 0 1.2-1 2.2-2.2 2.2-1.1 0-2.1-1-2.1-2.2z"/><path class="a" d="m299.8 263.5c0-1.4 1.1-2.5 2.4-2.5 1.4 0 2.4 1.1 2.4 2.5 0 1.3-1.1 2.4-2.4 2.4-1.3 0-2.4-1.1-2.4-2.4z"/><path class="a" d="m292.3 268.1c0-1.3 1-2.5 2.4-2.5 1.3 0 2.4 1.2 2.4 2.5 0 1.4-1.1 2.5-2.4 2.5-1.4 0-2.4-1.1-2.4-2.5z"/><path class="a" d="m284.3 272.4c0-1.5 1.2-2.7 2.6-2.7 1.4 0 2.6 1.2 2.6 2.7 0 1.4-1.2 2.6-2.6 2.6-1.4 0-2.6-1.2-2.6-2.6z"/><path class="a" d="m276.3 276.2c0-1.5 1.2-2.7 2.6-2.7 1.4 0 2.6 1.2 2.6 2.7 0 1.4-1.2 2.6-2.6 2.6-1.4 0-2.6-1.2-2.6-2.6z"/><path class="a" d="m268.1 279.5c0-1.4 1.2-2.6 2.6-2.6 1.5 0 2.6 1.2 2.6 2.6 0 1.5-1.1 2.7-2.6 2.7-1.4 0-2.6-1.2-2.6-2.7z"/><path class="a" d="m259.5 282.5c0-1.7 1.3-3 2.9-3 1.6 0 2.9 1.3 2.9 3 0 1.7-1.3 3-2.9 3-1.6 0-2.9-1.3-2.9-3z"/><path class="a" d="m251.2 285c0-1.6 1.2-2.9 2.7-2.9 1.6 0 2.8 1.3 2.8 2.9 0 1.5-1.2 2.8-2.8 2.8-1.5 0-2.7-1.3-2.7-2.8z"/><path class="a" d="m242.7 287c0-1.5 1.2-2.7 2.6-2.7 1.5 0 2.7 1.2 2.7 2.7 0 1.5-1.2 2.6-2.7 2.6-1.4 0-2.6-1.1-2.6-2.6z"/><path class="a" d="m234.4 288.5c0-1.3 1-2.3 2.3-2.3 1.2 0 2.2 1 2.2 2.3 0 1.3-1 2.4-2.2 2.4-1.3 0-2.3-1.1-2.3-2.4z"/><path class="a" d="m225.3 289.6c0-1.5 1.2-2.7 2.6-2.7 1.4 0 2.6 1.2 2.6 2.7 0 1.5-1.2 2.6-2.6 2.6-1.4 0-2.6-1.1-2.6-2.6z"/><path class="a" d="m216.4 290.2c0-1.5 1.2-2.8 2.7-2.8 1.5 0 2.7 1.3 2.7 2.8 0 1.5-1.2 2.7-2.7 2.7-1.5 0-2.7-1.2-2.7-2.7z"/><path class="a" d="m207.6 290.3c0-1.5 1.2-2.7 2.7-2.7 1.5 0 2.7 1.2 2.7 2.7 0 1.5-1.2 2.8-2.7 2.8-1.5 0-2.7-1.3-2.7-2.8z"/><path class="a" d="m198.7 289.9c0-1.6 1.2-2.9 2.8-2.9 1.6 0 2.9 1.3 2.9 2.9 0 1.7-1.3 3-2.9 3-1.6 0-2.8-1.3-2.8-3z"/><path class="a" d="m190.3 289.1c0-1.4 1.1-2.5 2.4-2.5 1.4 0 2.5 1.1 2.5 2.5 0 1.4-1.1 2.6-2.5 2.6-1.3 0-2.4-1.2-2.4-2.6z"/><path class="a" d="m181.6 287.8c0-1.4 1.1-2.5 2.4-2.5 1.4 0 2.5 1.1 2.5 2.5 0 1.4-1.1 2.5-2.5 2.5-1.3 0-2.4-1.1-2.4-2.5z"/><path class="a" d="m172.7 286c0-1.5 1.2-2.7 2.7-2.7 1.5 0 2.7 1.2 2.7 2.7 0 1.6-1.2 2.8-2.7 2.8-1.5 0-2.7-1.2-2.7-2.8z"/><path class="a" d="m163.8 283.8c0-1.8 1.4-3.1 3.1-3.1 1.6 0 3 1.4 3 3.1 0 1.7-1.4 3.1-3 3.1-1.7 0-3.1-1.4-3.1-3.1z"/><path class="a" d="m155.6 281.1c0-1.6 1.3-2.9 2.9-2.9 1.5 0 2.8 1.3 2.8 2.9 0 1.6-1.3 2.9-2.8 2.9-1.6 0-2.9-1.3-2.9-2.9z"/><path class="a" d="m147.4 277.9c0-1.6 1.3-2.8 2.8-2.8 1.5 0 2.8 1.2 2.8 2.8 0 1.6-1.3 2.9-2.8 2.9-1.5 0-2.8-1.3-2.8-2.9z"/><path class="a" d="m139.3 274.3c0-1.6 1.3-2.8 2.8-2.8 1.6 0 2.8 1.3 2.8 2.8 0 1.6-1.3 2.9-2.8 2.9-1.5 0-2.8-1.3-2.8-2.9z"/><path class="a" d="m131.5 270.3c0-1.5 1.2-2.8 2.7-2.8 1.5 0 2.7 1.3 2.7 2.8 0 1.5-1.2 2.8-2.7 2.8-1.5 0-2.7-1.3-2.7-2.8z"/><path class="a" d="m123.4 265.8c0-1.7 1.4-3.2 3.2-3.2 1.7 0 3.1 1.5 3.1 3.2 0 1.8-1.4 3.3-3.1 3.3-1.8 0-3.2-1.5-3.2-3.3z"/><path class="a" d="m116.2 261c0-1.7 1.3-3 2.9-3 1.7 0 3 1.3 3 3 0 1.7-1.3 3-3 3-1.6 0-2.9-1.3-2.9-3z"/><path class="a" d="m109 255.7c0-1.7 1.3-3 3-3 1.6 0 2.9 1.3 2.9 3 0 1.7-1.3 3-2.9 3-1.7 0-3-1.3-3-3z"/><path class="a" d="m102.4 250.1c0-1.5 1.2-2.7 2.7-2.7 1.5 0 2.6 1.2 2.6 2.7 0 1.5-1.2 2.7-2.6 2.7-1.5 0-2.7-1.2-2.7-2.7z"/><path class="a" d="m95.7 244.1c0-1.6 1.2-2.9 2.8-2.9 1.5 0 2.8 1.3 2.8 2.9 0 1.6-1.3 2.9-2.8 2.9-1.6 0-2.8-1.3-2.8-2.9z"/><path class="a" d="m89.4 237.7c0-1.6 1.3-2.9 2.8-2.9 1.6 0 2.8 1.3 2.8 2.9 0 1.6-1.2 2.9-2.8 2.9-1.5 0-2.8-1.3-2.8-2.9z"/><path class="a" d="m83.8 231c0-1.4 1.1-2.5 2.5-2.5 1.4 0 2.5 1.1 2.5 2.5 0 1.5-1.1 2.6-2.5 2.6-1.4 0-2.5-1.1-2.5-2.6z"/><path class="a" d="m77.9 224.1c0-1.6 1.3-2.9 2.8-2.9 1.5 0 2.8 1.3 2.8 2.9 0 1.5-1.3 2.8-2.8 2.8-1.5 0-2.8-1.3-2.8-2.8z"/><path class="a" d="m73.1 216.8c0-1.4 1.1-2.5 2.4-2.5 1.3 0 2.4 1.1 2.4 2.5 0 1.3-1.1 2.4-2.4 2.4-1.3 0-2.4-1.1-2.4-2.4z"/><path class="a" d="m68.5 209.2c0-1.2 1-2.2 2.2-2.2 1.1 0 2.1 1 2.1 2.2 0 1.2-1 2.2-2.1 2.2-1.2 0-2.2-1-2.2-2.2z"/><path class="a" d="m64.1 201.4c0-1.2 0.9-2.2 2.1-2.2 1.2 0 2.2 1 2.2 2.2 0 1.2-1 2.2-2.2 2.2-1.2 0-2.1-1-2.1-2.2z"/><path class="a" d="m60.7 193.4c0-0.9 0.7-1.6 1.5-1.6 0.8 0 1.5 0.7 1.5 1.6 0 0.8-0.7 1.5-1.5 1.5-0.8 0-1.5-0.7-1.5-1.5z"/><path class="a" d="m56.9 185.1c0-0.9 0.8-1.7 1.7-1.7 0.9 0 1.6 0.8 1.6 1.7 0 0.9-0.7 1.7-1.6 1.7-0.9 0-1.7-0.8-1.7-1.7z"/><path class="a" d="m54.2 176.7c0-0.7 0.5-1.3 1.2-1.3 0.7 0 1.2 0.6 1.2 1.3 0 0.7-0.5 1.2-1.2 1.2-0.7 0-1.3-0.5-1.2-1.2z"/><path class="a" d="m51.6 168.1c0-0.6 0.5-1.1 1.1-1.1 0.5 0 1 0.5 1 1.1 0 0.5-0.5 1-1 1-0.6 0-1.1-0.5-1.1-1z"/><path class="a" d="m49.5 159.3c0-0.4 0.4-0.8 0.9-0.8 0.4 0 0.8 0.4 0.8 0.8 0 0.5-0.4 0.9-0.8 0.9-0.5 0-0.9-0.4-0.9-0.9z"/><path class="a" d="m47.7 150.5c0-0.5 0.4-0.8 0.8-0.8 0.5 0 0.8 0.3 0.8 0.8 0 0.5-0.3 0.8-0.8 0.8-0.4 0-0.8-0.3-0.8-0.8z"/><path class="a" d="m46 141.6c0-0.7 0.5-1.2 1.1-1.2 0.7 0 1.2 0.5 1.2 1.2 0 0.6-0.6 1.1-1.2 1.1-0.6 0-1.1-0.5-1.1-1.1z"/><path class="a" d="m45.3 132.6c0-0.6 0.4-1 0.9-1 0.5 0 0.9 0.4 0.9 1 0 0.5-0.4 0.9-0.9 0.9-0.5 0-0.9-0.4-0.9-0.9z"/><path class="a" d="m44.9 123.5c0-0.4 0.4-0.8 0.8-0.8 0.5 0 0.8 0.4 0.8 0.8 0 0.5-0.3 0.9-0.8 0.9-0.4 0-0.8-0.4-0.8-0.9z"/><path class="a" d="m44.9 114.5c0-0.5 0.4-0.9 0.8-0.9 0.5 0 0.9 0.4 0.9 0.9 0 0.5-0.4 0.9-0.9 0.9-0.4 0-0.8-0.4-0.8-0.9z"/><path class="a" d="m45.5 105.5c0-0.4 0.3-0.8 0.7-0.8 0.4 0 0.7 0.4 0.7 0.8 0 0.4-0.3 0.7-0.7 0.7-0.4 0-0.7-0.3-0.7-0.7z"/><path class="a" d="m48.1 96.5c0 0.5-0.5 1-1 1-0.5 0-0.9-0.5-0.9-1 0-0.6 0.4-1 0.9-1 0.5 0 1 0.4 1 1z"/><path class="a" d="m47.7 87.5c0-0.4 0.4-0.7 0.8-0.7 0.4 0 0.8 0.3 0.8 0.7 0 0.5-0.4 0.8-0.8 0.8-0.4 0-0.7-0.3-0.8-0.8z"/><path class="a" d="m49.9 78.7c0-0.3 0.2-0.5 0.5-0.5 0.2 0 0.4 0.2 0.4 0.5 0 0.3-0.2 0.5-0.4 0.5-0.3 0-0.5-0.2-0.5-0.5z"/><path class="a" d="m52.2 70c0-0.3 0.2-0.5 0.5-0.5 0.2 0 0.4 0.2 0.4 0.5 0 0.2-0.2 0.5-0.4 0.5-0.3 0-0.5-0.3-0.5-0.5z"/><path class="a" d="m54.9 61.4c0-0.3 0.2-0.5 0.5-0.5 0.3 0 0.5 0.2 0.5 0.5 0 0.3-0.2 0.5-0.5 0.5-0.3 0-0.5-0.2-0.5-0.5z"/><path class="a" d="m58.3 52.9c0-0.1 0.1-0.2 0.3-0.2 0.1 0 0.2 0.1 0.2 0.2 0 0.2-0.1 0.3-0.2 0.3-0.1 0-0.2-0.1-0.3-0.3z"/><path class="a" d="m375.1 189.5c0-0.1 0.1-0.2 0.2-0.2 0.1 0 0.2 0.1 0.2 0.2 0 0.1-0.1 0.2-0.2 0.2-0.1 0-0.2-0.1-0.2-0.2z"/><path class="a" d="m371.5 197.7c0-0.1 0.1-0.2 0.2-0.2 0.1 0 0.2 0.1 0.2 0.2 0 0.1-0.1 0.3-0.2 0.3-0.1 0-0.2-0.2-0.2-0.3z"/><path class="a" d="m367.5 205.8c0-0.1 0.1-0.2 0.2-0.2 0.1 0 0.1 0.1 0.1 0.2 0 0 0 0.1-0.1 0.1-0.1 0-0.2-0.1-0.2-0.1z"/><path class="a" d="m362.3 213.6c0-0.5 0.5-1 1-1 0.5 0 0.9 0.5 0.9 1 0 0.5-0.4 1-0.9 1-0.5 0-1-0.5-1-1z"/><path class="a" d="m358.1 221.2c0-0.2 0.2-0.4 0.4-0.4 0.2 0 0.4 0.2 0.4 0.4 0 0.2-0.2 0.4-0.4 0.4-0.2 0-0.4-0.2-0.4-0.4z"/><path class="a" d="m351.7 228.5c0-0.9 0.7-1.7 1.7-1.7 0.9 0 1.7 0.8 1.7 1.7 0 1-0.8 1.8-1.7 1.8-1 0-1.7-0.8-1.7-1.8z"/><path class="a" d="m346.5 235.6c0-0.8 0.6-1.4 1.4-1.4 0.7 0 1.3 0.6 1.3 1.4 0 0.8-0.6 1.4-1.3 1.4-0.8 0-1.4-0.6-1.4-1.4z"/><path class="a" d="m340.2 242.4c0-1 0.8-1.9 1.8-1.9 1 0 1.8 0.9 1.8 1.9 0 1-0.8 1.8-1.8 1.8-1 0-1.8-0.8-1.8-1.8z"/><path class="a" d="m334 248.9c0-1.1 0.9-1.9 1.9-1.9 1 0 1.8 0.8 1.8 1.9 0 1-0.8 1.8-1.8 1.8-1 0-1.9-0.8-1.9-1.8z"/><path class="a" d="m327.3 255c0-1.2 1-2.2 2.1-2.2 1.2 0 2.2 1 2.2 2.2 0 1.2-1 2.2-2.2 2.2-1.1 0-2.1-1-2.1-2.2z"/><path class="a" d="m320.8 260.8c0-1 0.9-1.9 1.9-1.9 1 0 1.8 0.9 1.8 1.9 0 1.1-0.8 1.9-1.8 1.9-1 0-1.9-0.8-1.9-1.9z"/><path class="a" d="m313 266.3c0-1.5 1.2-2.8 2.7-2.8 1.4 0 2.6 1.3 2.6 2.8 0 1.5-1.2 2.7-2.6 2.7-1.5 0-2.7-1.2-2.7-2.7z"/><path class="a" d="m306.1 271.4c0-1.3 1-2.3 2.3-2.3 1.2 0 2.2 1 2.2 2.3 0 1.3-1 2.3-2.2 2.3-1.3 0-2.3-1-2.3-2.3z"/><path class="a" d="m298.2 276.1c0-1.5 1.2-2.7 2.7-2.7 1.4 0 2.6 1.2 2.6 2.7 0 1.5-1.2 2.7-2.6 2.7-1.5 0-2.7-1.2-2.7-2.7z"/><path class="a" d="m290.6 280.4c0-1.4 1.1-2.6 2.5-2.6 1.4 0 2.6 1.2 2.6 2.6 0 1.5-1.2 2.6-2.6 2.6-1.4 0-2.5-1.1-2.5-2.6z"/><path class="a" d="m282.6 284.3c0-1.5 1.1-2.6 2.6-2.6 1.4 0 2.6 1.2 2.6 2.6 0 1.5-1.2 2.7-2.6 2.7-1.5 0-2.6-1.2-2.6-2.7z"/><path class="a" d="m274.3 287.9c0-1.6 1.2-2.9 2.8-2.9 1.5 0 2.8 1.3 2.8 2.9 0 1.6-1.3 2.8-2.8 2.8-1.6 0-2.8-1.2-2.8-2.8z"/><path class="a" d="m265.9 290.9c0-1.6 1.3-3 2.9-3 1.6 0 2.9 1.4 2.9 3 0 1.7-1.3 3.1-2.9 3.1-1.6 0-2.9-1.4-2.9-3.1z"/><path class="a" d="m257.3 293.6c0-1.7 1.4-3.2 3.1-3.2 1.7 0 3.1 1.5 3.1 3.2 0 1.8-1.4 3.2-3.1 3.2-1.7 0-3.1-1.4-3.1-3.2z"/><path class="a" d="m248.7 295.8c0-1.7 1.4-3.2 3.1-3.2 1.8 0 3.2 1.5 3.2 3.2 0 1.8-1.4 3.3-3.2 3.3-1.7 0-3.1-1.5-3.1-3.3z"/><path class="a" d="m240.4 297.6c0-1.6 1.2-2.9 2.8-2.9 1.6 0 2.8 1.3 2.8 2.9 0 1.7-1.2 3-2.8 3-1.6 0-2.8-1.3-2.8-3z"/><path class="a" d="m231.6 299c0-1.6 1.3-3 2.9-3 1.6 0 2.9 1.4 2.9 3 0 1.6-1.3 2.9-2.9 2.9-1.6 0-2.9-1.3-2.9-2.9z"/><path class="a" d="m222.8 299.9c0-1.7 1.3-3 2.9-3 1.7 0 3 1.3 3 3 0 1.7-1.3 3-3 3-1.6 0-2.9-1.4-2.9-3z"/><path class="a" d="m214.1 300.3c0-1.6 1.3-2.8 2.8-2.8 1.6 0 2.8 1.2 2.8 2.8 0 1.6-1.2 2.9-2.8 2.9-1.5 0-2.8-1.3-2.8-2.9z"/><path class="a" d="m205 300.3c0-1.7 1.4-3.1 3.1-3.1 1.7 0 3.1 1.4 3.1 3.1 0 1.8-1.4 3.2-3.1 3.2-1.7 0-3.1-1.4-3.1-3.2z"/><path class="a" d="m196.5 299.9c0-1.6 1.2-2.9 2.8-2.9 1.6 0 2.9 1.3 2.9 2.9 0 1.6-1.3 2.9-2.9 2.9-1.6 0-2.9-1.3-2.8-2.9z"/><path class="a" d="m187.7 299c0-1.6 1.3-3 2.9-3 1.5 0 2.8 1.4 2.8 3 0 1.6-1.3 2.9-2.8 2.9-1.6 0-2.9-1.3-2.9-2.9z"/><path class="a" d="m179 297.6c0-1.6 1.3-2.8 2.8-2.8 1.6 0 2.9 1.2 2.9 2.8 0 1.6-1.3 2.9-2.9 2.9-1.5 0-2.8-1.3-2.8-2.9z"/><path class="a" d="m170.2 295.8c0-1.7 1.3-3.1 3-3.1 1.7 0 3.1 1.4 3.1 3.1 0 1.8-1.4 3.2-3.1 3.2-1.7 0-3-1.4-3-3.2z"/><path class="a" d="m161.7 293.6c0-1.7 1.3-3.1 3-3.1 1.6 0 3 1.4 3 3.1 0 1.7-1.4 3.1-3 3.1-1.7 0-3-1.4-3-3.1z"/><path class="a" d="m153.2 290.9c0-1.7 1.3-3.1 3.1-3.1 1.7 0 3.1 1.4 3.1 3.1 0 1.8-1.4 3.2-3.1 3.2-1.8 0-3.2-1.4-3.1-3.2z"/><path class="a" d="m144.9 287.9c0-1.8 1.4-3.2 3.1-3.2 1.7 0 3.1 1.4 3.1 3.2 0 1.7-1.4 3.1-3.1 3.1-1.7 0-3.1-1.4-3.1-3.1z"/><path class="a" d="m136.7 284.3c0-1.8 1.4-3.2 3.2-3.2 1.7 0 3.1 1.4 3.1 3.2 0 1.8-1.4 3.3-3.1 3.3-1.8 0-3.2-1.5-3.2-3.3z"/><path class="a" d="m128.9 280.4c0-1.7 1.4-3.1 3-3.1 1.7 0 3 1.4 3 3.1 0 1.7-1.3 3.1-3 3.1-1.6 0-3-1.4-3-3.1z"/><path class="a" d="m121 276.1c0-1.8 1.4-3.3 3.2-3.3 1.7 0 3.2 1.5 3.2 3.3 0 1.8-1.5 3.3-3.2 3.3-1.8 0-3.2-1.5-3.2-3.3z"/><path class="a" d="m113.5 271.4c0-1.8 1.4-3.3 3.2-3.3 1.7 0 3.2 1.5 3.2 3.3 0 1.8-1.5 3.3-3.2 3.3-1.8 0-3.2-1.5-3.2-3.3z"/><path class="a" d="m106.4 266.3c0-1.7 1.3-3.1 3-3.1 1.6 0 3 1.4 3 3.1 0 1.7-1.4 3.1-3 3.1-1.7 0-3-1.4-3-3.1z"/><path class="a" d="m99.5 260.8c0-1.6 1.3-3 2.9-3 1.6 0 2.9 1.4 2.9 3 0 1.7-1.3 3-2.9 3-1.6 0-2.9-1.3-2.9-3z"/><path class="a" d="m92.6 255c0-1.7 1.4-3.1 3-3.1 1.7 0 3 1.4 3 3.1 0 1.7-1.3 3.1-3 3.1-1.6 0-3-1.4-3-3.1z"/><path class="a" d="m86.4 248.9c0-1.6 1.2-2.9 2.8-2.9 1.5 0 2.7 1.3 2.7 2.9 0 1.5-1.2 2.8-2.7 2.8-1.6 0-2.8-1.3-2.8-2.8z"/><path class="a" d="m80.2 242.4c0-1.6 1.3-2.9 2.8-2.9 1.5 0 2.8 1.3 2.8 2.9 0 1.6-1.3 2.8-2.8 2.8-1.5 0-2.8-1.2-2.8-2.8z"/><path class="a" d="m74.2 235.6c0-1.7 1.4-3 3-3 1.6 0 2.9 1.3 2.9 3 0 1.7-1.3 3-2.9 3-1.6 0-3-1.3-3-3z"/><path class="a" d="m68.7 228.5c0-1.7 1.3-3.1 3-3.1 1.7 0 3 1.4 3 3.1 0 1.8-1.3 3.2-3 3.2-1.7 0-3-1.4-3-3.2z"/><path class="a" d="m63.5 221.2c0-1.7 1.4-3.1 3-3.1 1.7 0 3.1 1.4 3.1 3.1 0 1.7-1.4 3.1-3.1 3.1-1.6 0-3-1.4-3-3.1z"/><path class="a" d="m59.2 213.6c0-1.5 1.2-2.6 2.6-2.6 1.4 0 2.5 1.1 2.5 2.6 0 1.4-1.1 2.6-2.5 2.6-1.4 0-2.6-1.2-2.6-2.6z"/><path class="a" d="m54.9 205.8c0-1.4 1.1-2.5 2.5-2.5 1.3 0 2.4 1.1 2.4 2.5 0 1.4-1.1 2.5-2.4 2.5-1.4 0-2.5-1.1-2.5-2.5z"/><path class="a" d="m51.8 197.7c0-0.8 0.7-1.5 1.5-1.5 0.9 0 1.5 0.7 1.5 1.5 0 0.9-0.6 1.6-1.5 1.6-0.8 0-1.5-0.7-1.5-1.6z"/><path class="a" d="m48.4 189.5c0-0.8 0.6-1.4 1.3-1.4 0.7 0 1.3 0.6 1.3 1.4 0 0.7-0.6 1.3-1.3 1.3-0.7 0-1.3-0.6-1.3-1.3z"/><path class="a" d="m47.8 181.1c0 0.7-0.6 1.3-1.3 1.3-0.7 0-1.3-0.6-1.3-1.3 0-0.8 0.6-1.4 1.3-1.4 0.7 0 1.3 0.6 1.3 1.4z"/><path class="a" d="m42.4 172.5c0-0.8 0.6-1.3 1.3-1.3 0.7 0 1.3 0.6 1.3 1.3 0 0.7-0.6 1.3-1.3 1.3-0.7 0-1.3-0.6-1.3-1.3z"/><path class="a" d="m40.2 163.8c0-0.7 0.5-1.2 1.1-1.2 0.7 0 1.2 0.5 1.2 1.2 0 0.6-0.6 1.1-1.2 1.1-0.6 0-1.1-0.5-1.1-1.1z"/><path class="a" d="m38.3 155c0-0.6 0.5-1.1 1-1.1 0.6 0 1.1 0.5 1.1 1.1 0 0.5-0.5 1-1.1 1-0.5 0-1-0.5-1-1z"/><path class="a" d="m38.6 146c0 0.5-0.4 0.8-0.8 0.8-0.4 0-0.7-0.3-0.7-0.8 0-0.4 0.3-0.7 0.7-0.7 0.4 0 0.8 0.3 0.8 0.7z"/><path class="a" d="m35.9 137.1c0-0.5 0.4-0.9 0.8-0.9 0.5 0 0.8 0.4 0.8 0.9 0 0.4-0.3 0.8-0.8 0.8-0.4 0-0.8-0.4-0.8-0.8z"/><path class="a" d="m36.8 128.1c0 0.4-0.3 0.7-0.7 0.7-0.4 0-0.8-0.3-0.8-0.7 0-0.5 0.4-0.8 0.8-0.8 0.4 0 0.7 0.3 0.7 0.8z"/><path class="a" d="m35.1 119c0-0.4 0.4-0.7 0.8-0.7 0.3 0 0.7 0.3 0.7 0.7 0 0.4-0.4 0.8-0.7 0.8-0.4 0-0.8-0.4-0.8-0.8z"/><path class="a" d="m35.4 110c0-0.4 0.3-0.7 0.7-0.7 0.4 0 0.7 0.3 0.7 0.7 0 0.4-0.3 0.7-0.7 0.7-0.4 0-0.7-0.3-0.7-0.7z"/><path class="a" d="m36 101c0-0.4 0.4-0.7 0.7-0.7 0.4 0 0.7 0.3 0.7 0.7 0 0.3-0.3 0.7-0.7 0.7-0.3 0-0.7-0.4-0.7-0.7z"/><path class="a" d="m38.4 92c0 0.3-0.3 0.6-0.6 0.6-0.3 0-0.6-0.3-0.6-0.6 0-0.3 0.3-0.6 0.6-0.6 0.3 0 0.6 0.3 0.6 0.6z"/><path class="a" d="m39.1 83.1c0-0.2 0.1-0.3 0.2-0.3 0.2 0 0.3 0.1 0.3 0.3 0 0.1-0.1 0.3-0.3 0.3-0.1 0-0.2-0.2-0.2-0.3z"/><path class="a" d="m43.7 65.6q0-0.1 0-0.1 0 0 0 0.1 0 0 0 0 0 0 0 0z"/><path class="a" d="m374.4 214.1q0 0 0 0 0 0 0 0 0 0 0 0 0 0 0 0z"/><path class="a" d="m364.5 229.3c0-0.2 0.2-0.4 0.4-0.4 0.3 0 0.4 0.2 0.4 0.4 0 0.3-0.1 0.4-0.4 0.4-0.2 0-0.4-0.1-0.4-0.4z"/><path class="a" d="m359.5 236.6c0-0.1 0.1-0.2 0.2-0.2 0.1 0 0.2 0.1 0.2 0.2 0 0.1-0.1 0.3-0.2 0.3-0.1 0-0.2-0.2-0.2-0.3z"/><path class="a" d="m354.7 243.6c0 0.4-0.3 0.6-0.6 0.6-0.3 0-0.6-0.2-0.6-0.6 0-0.3 0.3-0.6 0.6-0.6 0.3 0 0.6 0.3 0.6 0.6z"/><path class="a" d="m347.6 250.3c0-0.3 0.3-0.6 0.6-0.6 0.4 0 0.6 0.3 0.6 0.6 0 0.4-0.3 0.6-0.6 0.6-0.3 0-0.6-0.2-0.6-0.6z"/><path class="a" d="m340.9 256.8c0-0.7 0.5-1.2 1.1-1.2 0.7 0 1.2 0.5 1.2 1.2 0 0.6-0.5 1.2-1.2 1.2-0.6 0-1.1-0.6-1.1-1.2z"/><path class="a" d="m334 262.9c0-0.9 0.7-1.6 1.6-1.6 0.8 0 1.5 0.7 1.5 1.6 0 0.9-0.7 1.6-1.5 1.6-0.9 0-1.6-0.7-1.6-1.6z"/><path class="a" d="m327.3 268.7c0-0.9 0.6-1.6 1.5-1.6 0.8 0 1.5 0.7 1.5 1.6 0 0.9-0.7 1.6-1.5 1.6-0.9 0-1.5-0.7-1.5-1.6z"/><path class="a" d="m319.6 274.2c0-1.3 1-2.3 2.2-2.3 1.2 0 2.2 1 2.2 2.3 0 1.2-1 2.3-2.2 2.3-1.2 0-2.2-1.1-2.2-2.3z"/><path class="a" d="m312.3 279.3c0-1.3 1-2.3 2.2-2.3 1.3 0 2.3 1 2.3 2.3 0 1.3-1 2.3-2.3 2.3-1.2 0-2.2-1-2.2-2.3z"/><path class="a" d="m304.9 284.1c0-1.2 1-2.2 2.1-2.2 1.2 0 2.1 1 2.1 2.2 0 1.2-0.9 2.1-2.1 2.1-1.1 0-2.1-1-2.1-2.1z"/><path class="a" d="m297.2 288.5c0-1.2 1-2.2 2.1-2.2 1.2 0 2.1 1 2.1 2.2 0 1.2-0.9 2.1-2.1 2.1-1.1 0-2.1-0.9-2.1-2.1z"/><path class="a" d="m289.1 292.5c0-1.3 1.1-2.4 2.4-2.4 1.2 0 2.3 1.1 2.3 2.4 0 1.3-1.1 2.4-2.3 2.4-1.3 0-2.4-1.1-2.4-2.4z"/><path class="a" d="m281.1 296.1c0-1.3 1-2.3 2.3-2.3 1.2 0 2.3 1 2.3 2.3 0 1.3-1.1 2.4-2.3 2.4-1.3 0-2.3-1.1-2.3-2.4z"/><path class="a" d="m277.9 299.3c0 1.6-1.2 2.9-2.7 2.9-1.6 0-2.8-1.3-2.8-2.9 0-1.5 1.2-2.8 2.8-2.8 1.5 0 2.7 1.3 2.7 2.8z"/><path class="a" d="m264.1 302.2c0-1.6 1.2-2.8 2.7-2.8 1.5 0 2.7 1.2 2.7 2.8 0 1.5-1.2 2.8-2.7 2.8-1.5 0-2.7-1.3-2.7-2.8z"/><path class="a" d="m255.5 304.6c0-1.6 1.3-2.9 2.8-2.9 1.5 0 2.8 1.3 2.8 2.9 0 1.6-1.3 2.9-2.8 2.9-1.5 0-2.8-1.3-2.8-2.9z"/><path class="a" d="m246.9 306.6c0-1.6 1.3-2.8 2.8-2.8 1.6 0 2.8 1.3 2.8 2.8 0 1.6-1.3 2.9-2.8 2.9-1.5 0-2.8-1.3-2.8-2.9z"/><path class="a" d="m238.2 308.2c0-1.6 1.3-2.9 2.8-2.9 1.6 0 2.9 1.3 2.9 2.9 0 1.7-1.3 3-2.9 3-1.5 0-2.8-1.4-2.8-3z"/><path class="a" d="m229.3 309.4c0-1.7 1.3-3.1 3-3.1 1.7 0 3.1 1.4 3.1 3.1 0 1.7-1.4 3.1-3.1 3.1-1.7 0-3-1.4-3-3.1z"/><path class="a" d="m220.2 310.1c0-1.9 1.5-3.4 3.3-3.4 1.9 0 3.4 1.5 3.4 3.4 0 1.9-1.5 3.5-3.4 3.5-1.8 0-3.3-1.6-3.3-3.5z"/><path class="a" d="m211.4 310.5c0-1.9 1.5-3.5 3.3-3.5 1.9 0 3.4 1.6 3.4 3.5 0 1.8-1.5 3.4-3.4 3.4-1.8 0-3.3-1.6-3.3-3.4z"/><path class="a" d="m202.8 310.4c0-1.8 1.4-3.3 3.1-3.3 1.8 0 3.2 1.5 3.2 3.3 0 1.7-1.5 3.2-3.2 3.2-1.7 0-3.1-1.5-3.1-3.2z"/><path class="a" d="m199.5 309.8c0 1.4-1.1 2.5-2.4 2.5-1.3 0-2.4-1.1-2.4-2.5 0-1.3 1.1-2.4 2.4-2.4 1.3 0 2.4 1.1 2.4 2.4z"/><path class="a" d="m185.7 308.9c0-1.6 1.2-2.8 2.7-2.8 1.4 0 2.6 1.2 2.6 2.8 0 1.5-1.2 2.7-2.6 2.7-1.5 0-2.7-1.2-2.7-2.7z"/><path class="a" d="m176.4 307.5c0-1.9 1.5-3.4 3.3-3.4 1.8 0 3.2 1.5 3.2 3.4 0 1.8-1.4 3.3-3.2 3.3-1.8 0-3.3-1.5-3.3-3.3z"/><path class="a" d="m167.8 305.7c0-1.9 1.4-3.4 3.2-3.4 1.8 0 3.3 1.5 3.3 3.4 0 1.8-1.5 3.3-3.3 3.3-1.8 0-3.2-1.5-3.2-3.3z"/><path class="a" d="m159.1 303.5c0-2 1.5-3.5 3.4-3.5 1.9 0 3.4 1.5 3.4 3.5 0 1.9-1.5 3.4-3.4 3.4-1.9 0-3.4-1.5-3.4-3.4z"/><path class="a" d="m151 300.8c0-1.7 1.4-3.1 3.1-3.1 1.7 0 3 1.4 3 3.1 0 1.8-1.3 3.2-3 3.2-1.7 0-3.1-1.4-3.1-3.2z"/><path class="a" d="m142.6 297.8c0-1.8 1.4-3.3 3.2-3.3 1.7 0 3.1 1.5 3.1 3.3 0 1.8-1.4 3.2-3.1 3.2-1.8 0-3.2-1.4-3.2-3.2z"/><path class="a" d="m134.4 294.4c0-1.9 1.4-3.4 3.2-3.4 1.8 0 3.2 1.5 3.2 3.4 0 1.8-1.4 3.3-3.2 3.3-1.8 0-3.2-1.5-3.2-3.3z"/><path class="a" d="m126.5 290.5c0-1.8 1.4-3.2 3.1-3.2 1.8 0 3.2 1.4 3.2 3.2 0 1.8-1.4 3.3-3.2 3.3-1.7 0-3.1-1.5-3.1-3.3z"/><path class="a" d="m118.7 286.3c0-1.8 1.4-3.3 3.1-3.3 1.8 0 3.2 1.5 3.2 3.3 0 1.8-1.4 3.3-3.2 3.3-1.7 0-3.1-1.5-3.1-3.3z"/><path class="a" d="m111.2 281.7c0-1.7 1.3-3.1 3-3.1 1.7 0 3.1 1.4 3.1 3.1 0 1.8-1.4 3.2-3.1 3.2-1.7 0-3-1.4-3-3.2z"/><path class="a" d="m103.7 276.8c0-1.8 1.4-3.3 3.2-3.3 1.7 0 3.1 1.5 3.1 3.3 0 1.8-1.4 3.2-3.1 3.2-1.8 0-3.2-1.4-3.2-3.2z"/><path class="a" d="m96.6 271.5c0-1.8 1.4-3.2 3.1-3.2 1.8 0 3.2 1.4 3.2 3.2 0 1.8-1.4 3.2-3.2 3.2-1.7 0-3.1-1.4-3.1-3.2z"/><path class="a" d="m89.7 265.8c0-1.7 1.4-3.1 3.1-3.1 1.7 0 3.1 1.4 3.1 3.1 0 1.8-1.3 3.2-3.1 3.2-1.7 0-3.1-1.4-3.1-3.2z"/><path class="a" d="m83.2 259.9c0-1.8 1.3-3.2 3-3.2 1.7 0 3.1 1.4 3.1 3.2 0 1.7-1.4 3.1-3.1 3.1-1.7 0-3-1.4-3-3.1z"/><path class="a" d="m83 253.6c0 1.8-1.4 3.2-3.1 3.2-1.8 0-3.2-1.4-3.2-3.2 0-1.8 1.4-3.2 3.2-3.2 1.7 0 3.1 1.4 3.1 3.2z"/><path class="a" d="m76.9 247c0 1.7-1.4 3.1-3.1 3.1-1.6 0-3-1.4-3-3.1 0-1.7 1.4-3.1 3-3.1 1.7 0 3.1 1.4 3.1 3.1z"/><path class="a" d="m71.2 240.2c0 1.7-1.4 3.2-3.1 3.2-1.7 0-3.1-1.5-3.1-3.2 0-1.8 1.4-3.3 3.1-3.3 1.7 0 3.1 1.5 3.1 3.3z"/><path class="a" d="m59.4 233c0-1.9 1.5-3.3 3.3-3.3 1.8 0 3.3 1.4 3.3 3.3 0 1.9-1.5 3.4-3.3 3.4-1.8 0-3.3-1.5-3.3-3.4z"/><path class="a" d="m54.6 225.6c0-1.7 1.3-3.1 3-3.1 1.7 0 3.1 1.4 3.1 3.1 0 1.7-1.4 3.1-3.1 3.1-1.7 0-3-1.4-3-3.1z"/><path class="a" d="m50.6 218c0-1.3 1-2.3 2.3-2.3 1.2 0 2.2 1 2.2 2.3 0 1.3-1 2.3-2.2 2.3-1.3 0-2.3-1-2.3-2.3z"/><path class="a" d="m46.7 210.1c0-1 0.8-1.8 1.8-1.8 1 0 1.8 0.8 1.8 1.8 0 1.1-0.8 1.9-1.8 1.9-1 0-1.8-0.8-1.8-1.9z"/><path class="a" d="m42.7 202.1c0-1 0.8-1.9 1.8-1.9 1 0 1.8 0.9 1.8 1.9 0 1-0.8 1.8-1.8 1.8-1 0-1.8-0.8-1.8-1.8z"/><path class="a" d="m42.2 193.8c0 0.8-0.6 1.4-1.3 1.4-0.7 0-1.3-0.6-1.3-1.4 0-0.7 0.6-1.3 1.3-1.3 0.7 0 1.3 0.6 1.3 1.3z"/><path class="a" d="m36.4 185.4c0-0.7 0.5-1.2 1.2-1.2 0.7 0 1.3 0.5 1.3 1.2 0 0.7-0.6 1.3-1.3 1.3-0.7 0-1.2-0.6-1.2-1.3z"/><path class="a" d="m33.6 176.9c0-0.7 0.5-1.2 1.2-1.2 0.6 0 1.1 0.5 1.1 1.2 0 0.6-0.5 1.2-1.1 1.2-0.7 0-1.2-0.6-1.2-1.2z"/><path class="a" d="m31.1 168.2c0-0.7 0.5-1.3 1.2-1.3 0.7 0 1.2 0.6 1.2 1.3 0 0.7-0.5 1.3-1.2 1.3-0.7 0-1.2-0.6-1.2-1.3z"/><path class="a" d="m29.1 159.4c0-0.7 0.5-1.2 1.1-1.2 0.7 0 1.2 0.6 1.2 1.2 0 0.7-0.5 1.2-1.2 1.2-0.6 0-1.1-0.5-1.1-1.2z"/><path class="a" d="m27.4 150.5c0-0.6 0.6-1.1 1.2-1.1 0.6 0 1.1 0.5 1.1 1.1 0 0.7-0.5 1.2-1.1 1.2-0.6 0-1.2-0.5-1.2-1.2z"/><path class="a" d="m26.3 141.6c0-0.6 0.5-1.1 1-1.1 0.6 0 1.1 0.5 1.1 1.1 0 0.6-0.5 1.1-1.1 1.1-0.5 0-1-0.5-1-1.1z"/><path class="a" d="m25.5 132.6c0-0.6 0.4-1.1 1-1.1 0.6 0 1 0.5 1 1.1 0 0.6-0.4 1.1-1 1.1-0.6 0-1-0.5-1-1.1z"/><path class="a" d="m25.4 123.5c0-0.3 0.3-0.7 0.7-0.7 0.4 0 0.7 0.4 0.7 0.7 0 0.4-0.3 0.8-0.7 0.8-0.4 0-0.7-0.4-0.7-0.8z"/><path class="a" d="m25.5 114.5c0-0.3 0.3-0.6 0.6-0.6 0.3 0 0.6 0.3 0.6 0.6 0 0.3-0.3 0.6-0.6 0.6-0.3 0-0.6-0.3-0.6-0.6z"/><path class="a" d="m26.2 105.5c0-0.2 0.1-0.3 0.3-0.3 0.2 0 0.3 0.1 0.3 0.3 0 0.1-0.1 0.3-0.3 0.3-0.2 0-0.3-0.2-0.3-0.3z"/><path class="a" d="m27.2 96.5q0-0.1 0.1-0.2 0.1 0.1 0.2 0.2-0.1 0.1-0.2 0.1-0.1 0-0.1-0.1z"/><path class="a" d="m354.2 258.3c0-0.2 0.1-0.3 0.2-0.3 0.1 0 0.2 0.1 0.2 0.3 0 0.1-0.1 0.2-0.2 0.2-0.1 0-0.2-0.1-0.2-0.2z"/><path class="a" d="m341.1 270.8c0-0.3 0.3-0.6 0.6-0.6 0.3 0 0.5 0.3 0.5 0.6 0 0.3-0.2 0.5-0.5 0.5-0.3 0-0.5-0.2-0.6-0.5z"/><path class="a" d="m334.1 276.6c0-0.5 0.4-0.9 0.8-0.9 0.5 0 0.9 0.4 0.9 0.9 0 0.5-0.4 0.9-0.9 0.9-0.4 0-0.8-0.4-0.8-0.9z"/><path class="a" d="m327.6 282.1c0-0.2 0.1-0.4 0.3-0.4 0.2 0 0.3 0.2 0.3 0.4 0 0.1-0.1 0.3-0.3 0.3-0.2 0-0.3-0.2-0.3-0.3z"/><path class="a" d="m319.4 287.2c0-0.7 0.5-1.3 1.3-1.3 0.7 0 1.3 0.6 1.3 1.3 0 0.8-0.6 1.4-1.3 1.4-0.8 0-1.3-0.6-1.3-1.4z"/><path class="a" d="m311.4 292c0-1 0.8-1.9 1.8-1.9 1 0 1.8 0.9 1.8 1.9 0 1.1-0.8 1.9-1.8 1.9-1 0-1.8-0.8-1.8-1.9z"/><path class="a" d="m303.8 296.5c0-1 0.8-1.8 1.7-1.8 1 0 1.7 0.8 1.7 1.8 0 0.9-0.7 1.7-1.7 1.7-0.9 0-1.7-0.8-1.7-1.7z"/><path class="a" d="m295.4 300.6c0-1.3 1-2.4 2.3-2.4 1.3 0 2.3 1.1 2.3 2.4 0 1.3-1 2.4-2.3 2.4-1.3 0-2.3-1.1-2.3-2.4z"/><path class="a" d="m291.7 304.3c0 1.2-0.9 2.1-2 2.1-1.2 0-2.1-0.9-2.1-2.1 0-1.1 0.9-2.1 2.1-2.1 1.1 0 2 1 2 2.1z"/><path class="a" d="m279.1 307.7c0-1.3 1.1-2.4 2.4-2.4 1.3 0 2.4 1.1 2.4 2.4 0 1.3-1.1 2.4-2.4 2.4-1.3 0-2.4-1.1-2.4-2.4z"/><path class="a" d="m270.7 310.7c0-1.4 1.1-2.6 2.5-2.6 1.4 0 2.5 1.2 2.5 2.6 0 1.4-1.1 2.5-2.5 2.5-1.4 0-2.5-1.1-2.5-2.5z"/><path class="a" d="m267.2 313.3c0 1.4-1.1 2.5-2.5 2.5-1.3 0-2.4-1.1-2.4-2.5 0-1.4 1.1-2.5 2.4-2.5 1.4 0 2.5 1.1 2.5 2.5z"/><path class="a" d="m253.6 315.5c0-1.5 1.2-2.7 2.6-2.7 1.5 0 2.7 1.2 2.7 2.7 0 1.5-1.2 2.7-2.7 2.7-1.5 0-2.6-1.2-2.6-2.7z"/><path class="a" d="m245.2 317.3c0-1.4 1.1-2.4 2.4-2.4 1.3 0 2.4 1 2.4 2.4 0 1.4-1.1 2.5-2.4 2.5-1.3 0-2.4-1.1-2.4-2.5z"/><path class="a" d="m236.1 318.7c0-1.6 1.2-2.9 2.8-2.9 1.5 0 2.8 1.3 2.8 2.9 0 1.6-1.3 2.9-2.8 2.9-1.6 0-2.8-1.3-2.8-2.9z"/><path class="a" d="m227.3 319.7c0-1.5 1.3-2.8 2.8-2.8 1.6 0 2.8 1.2 2.8 2.8 0 1.6-1.2 2.9-2.8 2.9-1.5 0-2.8-1.3-2.8-2.9z"/><path class="a" d="m218.4 320.4c0-1.7 1.3-3.1 2.9-3.1 1.7 0 3 1.4 3 3.1 0 1.6-1.3 3-3 3-1.6 0-2.9-1.4-2.9-3z"/><path class="a" d="m209.6 320.5c0-1.6 1.3-3 2.9-3 1.7 0 3 1.4 3 3 0 1.7-1.3 3.1-3 3.1-1.6 0-2.9-1.4-2.9-3.1z"/><path class="a" d="m201 320.4c0-1.6 1.2-2.8 2.7-2.8 1.5 0 2.7 1.2 2.7 2.8 0 1.5-1.2 2.7-2.7 2.7-1.5 0-2.7-1.2-2.7-2.7z"/><path class="a" d="m191.9 319.7c0-1.7 1.4-3.1 3-3.1 1.7 0 3 1.4 3 3.1 0 1.7-1.3 3.1-3 3.1-1.6 0-3-1.4-3-3.1z"/><path class="a" d="m183.6 318.7c0-1.4 1.2-2.6 2.6-2.6 1.4 0 2.5 1.2 2.5 2.6 0 1.5-1.1 2.6-2.5 2.6-1.4 0-2.6-1.1-2.6-2.6z"/><path class="a" d="m174.2 317.3c0-1.8 1.5-3.3 3.3-3.3 1.8 0 3.2 1.5 3.2 3.3 0 1.9-1.4 3.3-3.2 3.3-1.8 0-3.3-1.5-3.3-3.3z"/><path class="a" d="m165.2 315.5c0-2.1 1.6-3.8 3.6-3.8 2.1 0 3.7 1.7 3.7 3.8 0 2.1-1.6 3.7-3.7 3.7-2 0-3.6-1.6-3.6-3.7z"/><path class="a" d="m156.9 313.3c0-2 1.5-3.5 3.4-3.5 1.9 0 3.4 1.5 3.4 3.5 0 1.9-1.5 3.5-3.4 3.5-1.9 0-3.4-1.6-3.4-3.5z"/><path class="a" d="m155.3 310.7c0 1.9-1.5 3.5-3.4 3.5-1.9 0-3.5-1.6-3.5-3.5 0-2 1.6-3.6 3.5-3.6 1.9 0 3.4 1.6 3.4 3.6z"/><path class="a" d="m140.6 307.7c0-1.7 1.3-3 2.9-3 1.7 0 3 1.3 3 3 0 1.7-1.3 3-3 3-1.6 0-2.9-1.3-2.9-3z"/><path class="a" d="m138.8 304.3c0 2-1.5 3.5-3.4 3.5-1.9 0-3.4-1.5-3.4-3.5 0-1.9 1.5-3.4 3.4-3.4 1.9 0 3.4 1.5 3.4 3.4z"/><path class="a" d="m124.1 300.6c0-1.8 1.5-3.3 3.2-3.3 1.8 0 3.3 1.4 3.3 3.3 0 1.8-1.5 3.3-3.3 3.3-1.7 0-3.2-1.5-3.2-3.3z"/><path class="a" d="m116.7 296.5c0-1.6 1.2-2.9 2.8-2.9 1.6 0 2.8 1.3 2.8 2.9 0 1.6-1.2 2.9-2.8 2.9-1.6 0-2.8-1.3-2.8-2.9z"/><path class="a" d="m109 292c0-1.6 1.3-2.9 2.8-2.9 1.6 0 2.9 1.3 2.9 2.9 0 1.6-1.3 2.9-2.9 2.9-1.5 0-2.8-1.3-2.8-2.9z"/><path class="a" d="m101.3 287.2c0-1.7 1.4-3.1 3.1-3.1 1.7 0 3.1 1.4 3.1 3.1 0 1.8-1.4 3.2-3.1 3.2-1.7 0-3.1-1.4-3.1-3.2z"/><path class="a" d="m94 282.1c0-1.8 1.4-3.3 3.1-3.3 1.8 0 3.2 1.5 3.2 3.3 0 1.8-1.4 3.2-3.2 3.2-1.7 0-3.1-1.4-3.1-3.2z"/><path class="a" d="m86.9 276.6c0-1.9 1.4-3.3 3.2-3.3 1.8 0 3.3 1.4 3.3 3.3 0 1.8-1.5 3.3-3.3 3.3-1.8 0-3.2-1.5-3.2-3.3z"/><path class="a" d="m80.1 270.8c0-1.8 1.5-3.3 3.3-3.3 1.7 0 3.2 1.5 3.2 3.3 0 1.8-1.4 3.3-3.2 3.3-1.8 0-3.3-1.5-3.3-3.3z"/><path class="a" d="m73.5 264.7c0-1.9 1.5-3.4 3.4-3.4 1.8 0 3.3 1.5 3.3 3.4 0 1.9-1.5 3.4-3.3 3.4-1.9 0-3.4-1.5-3.4-3.4z"/><path class="a" d="m73.8 258.3c0 1.8-1.4 3.3-3.2 3.3-1.7 0-3.2-1.5-3.2-3.3 0-1.8 1.5-3.3 3.2-3.3 1.8 0 3.2 1.5 3.2 3.3z"/><path class="a" d="m61.5 251.6c0-1.8 1.4-3.3 3.2-3.3 1.8 0 3.2 1.5 3.2 3.3 0 1.8-1.4 3.3-3.2 3.3-1.8 0-3.2-1.5-3.2-3.3z"/><path class="a" d="m55.9 244.7c0-1.8 1.4-3.3 3.2-3.3 1.7 0 3.1 1.5 3.1 3.3 0 1.8-1.4 3.2-3.1 3.2-1.8 0-3.2-1.4-3.2-3.2z"/><path class="a" d="m50.5 237.5c0-1.9 1.4-3.4 3.2-3.4 1.8 0 3.3 1.5 3.3 3.4 0 1.8-1.5 3.3-3.3 3.3-1.8 0-3.3-1.5-3.2-3.3z"/><path class="a" d="m46.4 230c0-1.3 1-2.3 2.3-2.3 1.3 0 2.3 1 2.3 2.3 0 1.4-1 2.4-2.3 2.4-1.3 0-2.3-1-2.3-2.4z"/><path class="a" d="m41.7 222.4c0-1.3 1-2.4 2.3-2.4 1.3 0 2.3 1.1 2.3 2.4 0 1.3-1 2.4-2.3 2.4-1.3 0-2.3-1.1-2.3-2.4z"/><path class="a" d="m37.6 214.5c0-1.2 0.9-2.1 2.1-2.1 1.1 0 2 0.9 2 2.1 0 1.2-0.9 2.1-2 2.1-1.2 0-2.1-0.9-2.1-2.1z"/><path class="a" d="m33.8 206.5c0-1.1 0.8-2 1.9-2 1 0 1.9 0.9 1.9 2 0 1-0.9 1.9-1.9 1.9-1.1 0-1.9-0.9-1.9-1.9z"/><path class="a" d="m30.4 198.2c0-0.9 0.7-1.6 1.6-1.6 0.9 0 1.6 0.7 1.6 1.6 0 0.9-0.7 1.6-1.6 1.6-0.8 0-1.6-0.7-1.6-1.6z"/><path class="a" d="m27.1 189.8c0-0.9 0.7-1.6 1.6-1.6 0.9 0 1.7 0.7 1.7 1.6 0 1-0.8 1.7-1.7 1.7-0.9 0-1.6-0.7-1.6-1.7z"/><path class="a" d="m24.2 181.3c0-0.9 0.7-1.7 1.6-1.7 0.9 0 1.7 0.8 1.7 1.7 0 0.9-0.8 1.7-1.7 1.7-0.9 0-1.6-0.8-1.6-1.7z"/><path class="a" d="m22.9 172.6c0-0.2 0.2-0.4 0.4-0.4 0.2 0 0.4 0.2 0.4 0.4 0 0.3-0.2 0.5-0.4 0.5-0.2 0-0.4-0.2-0.4-0.5z"/><path class="a" d="m21.7 163.9c0 0.3-0.2 0.6-0.6 0.6-0.3 0-0.5-0.3-0.5-0.6 0-0.4 0.2-0.6 0.5-0.6 0.4 0 0.6 0.2 0.6 0.6z"/><path class="a" d="m19 155c0-0.2 0.2-0.4 0.4-0.4 0.2 0 0.4 0.2 0.4 0.4 0 0.2-0.2 0.4-0.4 0.4-0.2 0-0.4-0.2-0.4-0.4z"/><path class="a" d="m17.7 146.1c0-0.2 0.1-0.3 0.3-0.3 0.2 0 0.3 0.1 0.3 0.3 0 0.1-0.1 0.3-0.3 0.3-0.2 0-0.3-0.2-0.3-0.3z"/><path class="a" d="m16.8 137.1c0-0.1 0.1-0.2 0.2-0.2 0.1 0 0.2 0.1 0.2 0.2 0 0.1-0.1 0.2-0.2 0.2-0.1 0-0.2-0.1-0.2-0.2z"/><path class="a" d="m16.3 128.1q0-0.1 0.1-0.1 0.1 0 0.1 0.1 0 0.1-0.1 0.1-0.1 0-0.1-0.1z"/><path class="a" d="m333.7 289.9c0-0.1 0.2-0.3 0.3-0.3 0.2 0 0.4 0.2 0.4 0.3 0 0.2-0.2 0.4-0.4 0.4-0.1 0-0.3-0.2-0.3-0.4z"/><path class="a" d="m327.4 295.1c0 0.4-0.3 0.6-0.6 0.6-0.3 0-0.6-0.2-0.6-0.6 0-0.3 0.3-0.6 0.6-0.6 0.3 0 0.6 0.3 0.6 0.6z"/><path class="a" d="m318.8 300c0-0.4 0.3-0.6 0.6-0.6 0.3 0 0.6 0.2 0.6 0.6 0 0.3-0.3 0.6-0.6 0.6-0.4 0-0.6-0.3-0.6-0.6z"/><path class="a" d="m311.2 304.5c0-0.3 0.2-0.5 0.5-0.5 0.3 0 0.6 0.2 0.6 0.5 0 0.3-0.3 0.5-0.6 0.5-0.2 0-0.5-0.2-0.5-0.5z"/><path class="a" d="m302.4 308.7c0-0.9 0.7-1.6 1.5-1.6 0.9 0 1.5 0.7 1.5 1.6 0 0.8-0.6 1.5-1.5 1.5-0.8 0-1.5-0.7-1.5-1.5z"/><path class="a" d="m295.5 312.5c0-0.3 0.2-0.5 0.5-0.5 0.2 0 0.5 0.2 0.5 0.5 0 0.3-0.3 0.5-0.5 0.5-0.3 0-0.5-0.2-0.5-0.5z"/><path class="a" d="m286.3 316c0-0.9 0.7-1.6 1.5-1.6 0.9 0 1.6 0.7 1.6 1.6 0 0.9-0.7 1.6-1.6 1.6-0.8 0-1.5-0.7-1.5-1.6z"/><path class="a" d="m278 319.1c0-0.8 0.7-1.5 1.6-1.5 0.8 0 1.5 0.7 1.5 1.5 0 0.9-0.7 1.6-1.5 1.6-0.9 0-1.6-0.7-1.6-1.6z"/><path class="a" d="m271 321.9c0-0.1 0.1-0.2 0.2-0.2 0.1 0 0.2 0.1 0.2 0.2 0 0.1-0.1 0.2-0.2 0.2-0.1 0-0.2-0.1-0.2-0.2z"/><path class="a" d="m261.9 324.3c0-0.5 0.3-0.9 0.8-0.9 0.4 0 0.8 0.4 0.8 0.9 0 0.4-0.4 0.8-0.8 0.8-0.5 0-0.8-0.4-0.8-0.8z"/><path class="a" d="m252.5 326.3c0-0.9 0.7-1.7 1.6-1.7 0.9 0 1.6 0.8 1.6 1.7 0 0.9-0.7 1.7-1.6 1.7-0.9 0-1.6-0.8-1.6-1.7z"/><path class="a" d="m243.1 327.9c0-1.3 1-2.3 2.3-2.3 1.3 0 2.3 1 2.3 2.3 0 1.3-1 2.4-2.3 2.4-1.3 0-2.3-1.1-2.3-2.4z"/><path class="a" d="m233.8 329.2c0-1.7 1.3-3 2.9-3 1.6 0 2.9 1.3 2.9 3 0 1.6-1.3 3-2.9 3-1.6 0-2.9-1.4-2.9-3z"/><path class="a" d="m225 330c0-1.7 1.3-3 2.9-3 1.7 0 3 1.3 3 3 0 1.7-1.3 3.1-3 3.1-1.6 0-2.9-1.4-2.9-3.1z"/><path class="a" d="m216.3 330.5c0-1.6 1.3-2.8 2.8-2.8 1.6 0 2.8 1.2 2.8 2.8 0 1.6-1.2 2.9-2.8 2.9-1.5 0-2.7-1.3-2.8-2.9z"/><path class="a" d="m207.5 330.6c0-1.6 1.3-2.8 2.8-2.8 1.6 0 2.8 1.2 2.8 2.8 0 1.6-1.2 2.9-2.8 2.9-1.5 0-2.8-1.3-2.8-2.9z"/><path class="a" d="m198.5 330.3c0-1.7 1.3-3.1 3-3.1 1.7 0 3.1 1.4 3.1 3.1 0 1.8-1.4 3.1-3.1 3.1-1.7 0-3-1.3-3-3.1z"/><path class="a" d="m189.5 329.6c0-1.8 1.4-3.3 3.2-3.3 1.8 0 3.3 1.5 3.3 3.3 0 1.9-1.5 3.4-3.3 3.4-1.8 0-3.2-1.5-3.2-3.4z"/><path class="a" d="m180.9 328.6c0-1.8 1.4-3.2 3.1-3.2 1.7 0 3.1 1.4 3.1 3.2 0 1.7-1.4 3.2-3.1 3.2-1.7 0-3.1-1.5-3.1-3.2z"/><path class="a" d="m172.3 327.1c0-1.7 1.3-3 3-3 1.6 0 3 1.3 3 3 0 1.7-1.4 3.1-3 3.1-1.7 0-3-1.3-3-3.1z"/><path class="a" d="m163.3 325.3c0-1.9 1.5-3.4 3.4-3.4 1.8 0 3.3 1.5 3.3 3.4 0 1.9-1.5 3.4-3.3 3.4-1.9 0-3.4-1.5-3.4-3.4z"/><path class="a" d="m154.8 323.1c0-1.9 1.5-3.4 3.3-3.4 1.8 0 3.3 1.5 3.3 3.4 0 1.9-1.5 3.4-3.3 3.4-1.8 0-3.3-1.5-3.3-3.4z"/><path class="a" d="m146.6 320.5c0-1.7 1.4-3.1 3.1-3.1 1.7 0 3.1 1.4 3.1 3.1 0 1.8-1.4 3.2-3.1 3.2-1.7 0-3.1-1.4-3.1-3.2z"/><path class="a" d="m138.2 317.6c0-1.8 1.4-3.2 3.1-3.2 1.8 0 3.1 1.5 3.1 3.2 0 1.8-1.3 3.2-3.1 3.2-1.7 0-3.1-1.4-3.1-3.2z"/><path class="a" d="m129.8 314.3c0-1.9 1.5-3.5 3.3-3.5 1.9 0 3.4 1.6 3.4 3.5 0 1.9-1.5 3.4-3.4 3.4-1.8 0-3.3-1.5-3.3-3.4z"/><path class="a" d="m121.9 310.6c0-1.8 1.4-3.2 3.2-3.2 1.7 0 3.1 1.4 3.1 3.2 0 1.8-1.4 3.3-3.1 3.3-1.8 0-3.2-1.5-3.2-3.3z"/><path class="a" d="m113.9 306.6c0-1.8 1.5-3.3 3.3-3.3 1.8 0 3.2 1.5 3.2 3.3 0 1.9-1.4 3.4-3.2 3.4-1.8 0-3.3-1.5-3.3-3.4z"/><path class="a" d="m106.2 302.3c0-1.9 1.4-3.4 3.3-3.4 1.8 0 3.3 1.5 3.3 3.4 0 1.9-1.5 3.4-3.3 3.4-1.9 0-3.3-1.6-3.3-3.4z"/><path class="a" d="m98.5 297.6c0-1.9 1.5-3.5 3.4-3.5 1.9 0 3.4 1.6 3.4 3.5 0 1.9-1.5 3.5-3.4 3.5-1.8 0-3.4-1.6-3.4-3.5z"/><path class="a" d="m91.2 292.6c0-1.9 1.5-3.5 3.4-3.5 1.9 0 3.4 1.6 3.4 3.5 0 1.9-1.5 3.5-3.4 3.5-1.9 0-3.4-1.6-3.4-3.5z"/><path class="a" d="m84.1 287.2c0-1.9 1.5-3.5 3.4-3.5 1.9 0 3.4 1.6 3.4 3.5 0 2-1.5 3.6-3.4 3.6-1.9 0-3.4-1.6-3.4-3.6z"/><path class="a" d="m77.7 281.6c0-1.7 1.3-3 2.9-3 1.6 0 2.9 1.3 2.9 3 0 1.7-1.3 3-2.9 3-1.6 0-2.9-1.3-2.9-3z"/><path class="a" d="m70.8 275.7c0-1.8 1.4-3.3 3.2-3.3 1.7 0 3.1 1.5 3.1 3.3 0 1.8-1.4 3.2-3.1 3.2-1.8 0-3.2-1.4-3.2-3.2z"/><path class="a" d="m64.2 269.4c0-1.8 1.5-3.4 3.4-3.4 1.8 0 3.3 1.6 3.3 3.4 0 1.9-1.5 3.5-3.3 3.5-1.9 0-3.4-1.6-3.4-3.5z"/><path class="a" d="m58.9 263c0-1.5 1.1-2.7 2.5-2.7 1.4 0 2.6 1.2 2.6 2.7 0 1.4-1.2 2.6-2.6 2.6-1.4 0-2.5-1.2-2.5-2.6z"/><path class="a" d="m52.4 256.2c0-1.8 1.4-3.3 3.2-3.3 1.7 0 3.1 1.5 3.1 3.3 0 1.8-1.4 3.2-3.1 3.2-1.8 0-3.2-1.4-3.2-3.2z"/><path class="a" d="m47.4 249.2c0-1.5 1.2-2.7 2.6-2.7 1.4 0 2.6 1.2 2.6 2.7 0 1.4-1.2 2.6-2.6 2.6-1.4 0-2.6-1.2-2.6-2.6z"/><path class="a" d="m42.2 241.9c0-1.4 1.1-2.6 2.5-2.6 1.5 0 2.6 1.2 2.6 2.6 0 1.5-1.1 2.7-2.6 2.7-1.4 0-2.5-1.2-2.5-2.7z"/><path class="a" d="m38.5 234.5c0-0.8 0.6-1.4 1.3-1.4 0.7 0 1.3 0.6 1.3 1.4 0 0.7-0.6 1.3-1.3 1.3-0.7 0-1.3-0.6-1.3-1.3z"/><path class="a" d="m33.2 226.8c0-1.2 0.9-2.1 1.9-2.1 1.1 0 2 1 2 2.1 0 1.1-0.9 2-2 2-1 0-1.9-0.9-1.9-2z"/><path class="a" d="m30.2 218.9c0-0.3 0.3-0.6 0.6-0.6 0.3 0 0.6 0.3 0.6 0.6 0 0.3-0.3 0.6-0.6 0.6-0.3 0-0.6-0.3-0.6-0.6z"/><path class="a" d="m25.6 210.8c0-0.7 0.5-1.2 1.2-1.2 0.7 0 1.3 0.5 1.3 1.2 0 0.7-0.6 1.3-1.3 1.3-0.7 0-1.2-0.6-1.2-1.3z"/><path class="a" d="m23.1 202.6q0 0 0.1 0 0 0 0 0 0 0 0 0-0.1 0-0.1 0z"/><path class="a" d="m19.8 194.2q0-0.1 0.1-0.1 0.1 0 0.1 0.1 0 0.1-0.1 0.1-0.1 0-0.1-0.1z"/><path class="a" d="m16.7 185.7c0-0.1 0.1-0.2 0.2-0.2 0.1 0 0.2 0.1 0.2 0.2 0 0.1-0.1 0.2-0.2 0.2-0.1 0-0.2-0.1-0.2-0.2z"/><path class="a" d="m13.9 177.1c0-0.3 0.2-0.5 0.4-0.5 0.2 0 0.4 0.2 0.4 0.5 0 0.2-0.2 0.4-0.4 0.4-0.2 0-0.4-0.2-0.4-0.4z"/><path class="a" d="m302.2 320.7q0-0.1 0-0.1 0 0 0.1 0.1-0.1 0-0.1 0 0 0 0 0z"/><path class="a" d="m285.9 327.5q0 0 0 0 0.1 0 0.1 0 0 0-0.1 0 0 0 0 0z"/><path class="a" d="m277.4 330.4c0-0.1 0.1-0.2 0.2-0.2 0.1 0 0.2 0.1 0.2 0.2 0 0.1-0.1 0.2-0.2 0.2-0.1 0-0.2-0.1-0.2-0.2z"/><path class="a" d="m243.2 338.4q0-0.1 0.1-0.1 0.1 0 0.1 0.1 0 0.1-0.1 0.2-0.1-0.1-0.1-0.2z"/><path class="a" d="m234.4 339.6q0-0.1 0.1-0.2 0.1 0.1 0.1 0.2 0 0.1-0.1 0.1-0.1 0-0.1-0.1z"/><path class="a" d="m226.1 340.3c0 0.2-0.2 0.3-0.4 0.3-0.1 0-0.3-0.1-0.3-0.3 0-0.2 0.2-0.3 0.3-0.3 0.2 0 0.4 0.1 0.4 0.3z"/><path class="a" d="m215.9 340.7c0-0.6 0.5-1.1 1-1.1 0.6 0 1 0.5 1 1.1 0 0.5-0.4 1-1 1-0.5 0-1-0.5-1-1z"/><path class="a" d="m209.1 340.7c0 0.5-0.4 1-1 1-0.5 0-1-0.5-1-1 0-0.6 0.5-1.1 1-1.1 0.6 0 1 0.5 1 1.1z"/><path class="a" d="m198.5 340.3c0-0.5 0.4-0.8 0.8-0.8 0.5 0 0.8 0.3 0.8 0.8 0 0.5-0.3 0.8-0.8 0.8-0.4 0-0.8-0.4-0.8-0.8z"/><path class="a" d="m189.7 339.6c0-0.5 0.4-0.9 0.8-0.9 0.5 0 0.8 0.4 0.8 0.9 0 0.4-0.3 0.8-0.8 0.8-0.4 0-0.8-0.4-0.8-0.8z"/><path class="a" d="m180.9 338.4c0-0.5 0.4-0.9 0.9-0.9 0.5 0 0.9 0.4 0.9 0.9 0 0.6-0.4 1-0.9 1-0.5 0-0.9-0.4-0.9-1z"/><path class="a" d="m171.9 337c0-0.7 0.5-1.2 1.2-1.2 0.7 0 1.2 0.5 1.2 1.2 0 0.7-0.5 1.2-1.2 1.2-0.7 0-1.2-0.6-1.2-1.2z"/><path class="a" d="m162.9 335.1c0-0.9 0.7-1.6 1.6-1.6 0.8 0 1.5 0.8 1.5 1.6 0 0.9-0.7 1.7-1.5 1.7-0.9 0-1.6-0.8-1.6-1.7z"/><path class="a" d="m154.9 332.9c0-0.6 0.4-1 1-1 0.6 0 1.1 0.4 1.1 1 0 0.6-0.5 1.1-1.1 1.1-0.6 0-1-0.5-1-1.1z"/><path class="a" d="m150.9 330.4c0 1.9-1.6 3.5-3.4 3.5-1.9 0-3.4-1.6-3.4-3.5 0-1.9 1.5-3.5 3.4-3.5 1.8 0 3.4 1.6 3.4 3.5z"/><path class="a" d="m136.6 327.5c0-1.5 1.1-2.6 2.5-2.6 1.5 0 2.6 1.1 2.6 2.6 0 1.5-1.1 2.7-2.6 2.7-1.4 0-2.5-1.2-2.5-2.7z"/><path class="a" d="m129.7 324.3c0-0.7 0.5-1.3 1.2-1.3 0.7 0 1.2 0.6 1.2 1.3 0 0.7-0.5 1.2-1.2 1.2-0.7 0-1.2-0.5-1.2-1.2z"/><path class="a" d="m119.3 320.7c0-2 1.6-3.6 3.5-3.6 1.9 0 3.5 1.6 3.5 3.6 0 1.9-1.5 3.5-3.5 3.5-1.9 0-3.5-1.6-3.5-3.5z"/><path class="a" d="m112 316.7c0-1.6 1.3-2.9 2.9-2.9 1.6 0 2.9 1.3 2.9 2.9 0 1.7-1.3 3-2.9 3-1.6 0-2.9-1.3-2.9-3z"/><path class="a" d="m106.2 312.5c0-0.5 0.4-1 0.9-1 0.5 0 1 0.5 1 1 0 0.5-0.5 1-1 1-0.5 0-0.9-0.5-0.9-1z"/><path class="a" d="m97.7 307.9c0-1 0.8-1.8 1.8-1.8 1 0 1.8 0.8 1.8 1.8 0 1-0.8 1.9-1.8 1.9-1 0-1.8-0.9-1.8-1.9z"/><path class="a" d="m91.7 303c0-0.2 0.2-0.4 0.4-0.4 0.2 0 0.4 0.2 0.4 0.4 0 0.3-0.2 0.5-0.4 0.5-0.2 0-0.4-0.2-0.4-0.5z"/><path class="a" d="m81.9 297.8c0-1.7 1.3-3 3-3 1.6 0 3 1.3 3 3 0 1.7-1.3 3.1-3 3.1-1.7 0-3-1.4-3-3.1z"/><path class="a" d="m76.2 292.3c0-0.9 0.7-1.7 1.7-1.7 1 0 1.7 0.8 1.7 1.7 0 1-0.7 1.8-1.7 1.8-1 0-1.7-0.8-1.7-1.8z"/><path class="a" d="m69.1 286.6c0-1.2 0.9-2.1 2-2.1 1.1 0 2 0.9 2 2.1 0 1.1-0.9 2-2 2-1.1 0-2-0.9-2-2z"/><path class="a" d="m61.7 280.5c0-1.6 1.3-3 2.9-3 1.6 0 2.8 1.4 2.8 3 0 1.6-1.2 3-2.8 3-1.6 0-2.9-1.4-2.9-3z"/><path class="a" d="m57.5 274.2c0-0.5 0.4-0.8 0.8-0.8 0.4 0 0.7 0.3 0.7 0.8 0 0.4-0.3 0.7-0.7 0.7-0.4 0-0.8-0.3-0.8-0.7z"/><path class="a" d="m52 267.6c0-0.2 0.1-0.3 0.3-0.3 0.1 0 0.2 0.1 0.2 0.3 0 0.1-0.1 0.2-0.2 0.2-0.2 0-0.3-0.1-0.3-0.2z"/><path class="a" d="m45.3 260.7c0-0.6 0.6-1.1 1.2-1.1 0.6 0 1.1 0.5 1.1 1.1 0 0.7-0.5 1.2-1.1 1.2-0.6 0-1.2-0.5-1.2-1.2z"/><path class="a" d="m41 253.7q0-0.1 0-0.1 0 0 0 0.1 0 0 0 0-0.1 0 0 0z"/><path class="a" d="m35.5 246.4c0-0.2 0.1-0.3 0.3-0.3 0.1 0 0.3 0.1 0.3 0.3 0 0.2-0.2 0.3-0.3 0.3-0.2 0-0.3-0.1-0.3-0.3z"/><path class="a" d="m30.8 238.9q0-0.1 0.1-0.1 0.1 0 0.1 0.1 0 0.1-0.1 0.1c-0.1 0-0.1-0.1-0.1-0.1z"/><path class="a" d="m26.2 231.2q0-0.1 0.1-0.1 0.1 0 0.1 0.1 0 0.1-0.1 0.1-0.1 0-0.1-0.1z"/><path class="a" d="m14.3 207q0 0 0-0.1 0 0.1 0.1 0.1-0.1 0-0.1 0 0 0 0 0z"/><path class="a" d="m145 340.3c0-0.2 0.1-0.3 0.3-0.3 0.1 0 0.3 0.1 0.3 0.3 0 0.1-0.2 0.3-0.3 0.3-0.2 0-0.3-0.2-0.3-0.3z"/><path class="a" d="m136.8 337.4q0-0.1 0.1-0.1 0.1 0 0.1 0.1 0 0.1-0.1 0.1-0.1 0-0.1-0.1z"/><path class="a" d="m128.7 334.2q0 0 0 0 0 0 0 0 0 0 0 0 0 0 0 0z"/><path class="a" d="m120.3 330.7c0-0.2 0.1-0.3 0.3-0.3 0.1 0 0.2 0.1 0.2 0.3 0 0.1-0.1 0.2-0.2 0.2-0.2 0-0.3-0.1-0.3-0.2z"/><path class="a" d="m112.4 326.8c0-0.1 0.1-0.2 0.2-0.2 0.1 0 0.2 0.1 0.2 0.2 0 0.2-0.1 0.3-0.2 0.3-0.1 0-0.2-0.1-0.2-0.3z"/><path class="a" d="m104.7 322.7q0.1 0 0.1 0 0 0 0 0 0 0 0 0 0 0-0.1 0z"/><path class="a" d="m96.9 318.2c0-0.1 0.1-0.2 0.2-0.2 0.1 0 0.2 0.1 0.2 0.2 0 0.1-0.1 0.2-0.2 0.2-0.1 0-0.2-0.1-0.2-0.2z"/><path class="a" d="m89.5 313.4q0-0.1 0.1-0.1 0.1 0 0.1 0.1 0 0.1-0.1 0.1 0 0-0.1-0.1z"/><path class="a" d="m82.2 308.4q0-0.1 0.1-0.2 0.1 0.1 0.1 0.2 0 0.1-0.1 0.1-0.1 0-0.1-0.1z"/><path class="a" d="m75.1 303q0.1-0.1 0.2-0.1 0 0 0.1 0.1-0.1 0.1-0.1 0.1-0.1 0-0.2-0.1z"/><path class="a" d="m68.2 297.4c0-0.1 0-0.2 0.2-0.2 0.1 0 0.1 0.1 0.1 0.2 0 0.1 0 0.2-0.1 0.2-0.2 0-0.2-0.1-0.2-0.2z"/><path class="a" d="m61.7 291.5q0-0.1 0-0.1 0 0 0 0.1 0 0 0 0 0 0 0 0z"/><path class="a" d="m55.2 285.3q0 0 0 0 0.1 0 0.1 0 0 0-0.1 0 0 0 0 0z"/><path class="a" d="m49 278.9q0-0.1 0.1-0.1 0 0 0 0.1 0 0 0 0c-0.1 0-0.1 0-0.1 0z"/><path class="a" d="m43.1 272.2q0 0 0 0 0 0 0 0 0 0 0 0 0 0 0 0z"/><path class="a" d="m32 258.2q0-0.1 0-0.1 0 0 0 0.1 0 0 0 0 0 0 0 0z"/><path class="a" d="m110.3 336.9q0 0 0 0 0 0 0.1 0-0.1 0-0.1 0 0 0 0 0z"/><path class="a" d="m102.4 332.8q0 0 0 0 0.1 0 0.1 0 0 0.1-0.1 0.1 0 0 0-0.1z"/><path class="a" d="m94.7 328.5c0 0 0-0.1 0-0.1q0.1 0 0.1 0.1 0 0-0.1 0 0 0 0 0z"/><path class="a" d="m87.2 323.8q0 0 0 0 0 0 0 0 0 0 0 0 0 0 0 0z"/><path class="a" d="m79.8 318.8q0 0 0 0 0.1 0 0.1 0 0 0.1-0.1 0.1 0 0 0-0.1z"/><path class="a" d="m72.6 313.6q0 0 0 0 0.1 0 0.1 0 0 0-0.1 0 0 0 0 0z"/><path class="a" d="m65.6 308.1q0 0 0.1 0 0 0 0 0 0 0 0 0-0.1 0-0.1 0z"/><path class="a" d="m39.8 283.5q0 0 0 0 0.1 0 0.1 0 0 0-0.1 0 0 0 0 0z"/><path class="a" d="m34 276.8q0-0.1 0-0.1 0 0 0 0.1 0 0 0 0-0.1 0 0 0z"/><path class="a" d="m28.3 269.8q0 0 0.1 0 0 0 0 0 0 0 0 0-0.1 0-0.1 0z"/><path class="a" d="m100.1 343q0-0.1 0-0.1 0.1 0 0.1 0.1 0 0-0.1 0 0 0 0 0z"/><path class="a" d="m56 313.1c0-0.1 0-0.1 0.1-0.1 0.1 0 0.2 0 0.2 0.1 0 0.1-0.1 0.2-0.2 0.2-0.1 0-0.1-0.1-0.1-0.2z"/><path class="a" d="m30.6 288.1q0 0 0.1 0 0 0 0 0 0 0.1 0 0.1-0.1 0-0.1-0.1z"/><path class="a" d="m24.8 281.3q0 0 0.1 0 0 0 0 0 0 0.1 0 0.1-0.1 0-0.1-0.1z"/><path class="a" d="m60.4 329.4q0-0.1 0-0.1 0 0 0 0.1 0 0 0 0 0 0 0 0z"/><path class="a" d="m53.4 323.8q0 0 0 0 0.1 0 0.1 0 0 0.1-0.1 0.1 0 0 0-0.1z"/><path class="a" d="m5 271.5q0 0 0 0 0.1 0 0.1 0 0 0.1-0.1 0.1 0 0 0-0.1z"/><path class="a" d="m0 264.1q0 0 0 0 0.1 0 0.1 0 0 0-0.1 0 0 0 0 0z"/></g></svg>