<svg version="1.2" xmlns="http://www.w3.org/2000/svg" viewBox="0 0 61 63" width="61" height="63"><defs><clipPath clipPathUnits="userSpaceOnUse" id="cp1"><path d="m-869-4045h1920v9844h-1920z"/></clipPath></defs><style></style><g clip-path="url(#cp1)"><path fill-rule="evenodd" d="m46.2 62c-1.2-0.2-2.3-0.7-3.1-1.7q-1.1-1.3-1.1-3-0.1-9.6 0-19.2c0-2 1-3.5 2.8-4.3 1.9-0.8 3.6-0.5 5.1 0.9 1.1 0.9 1.5 2.1 1.6 3.5 0.8 0.3 1.5 0.7 2.3 1 0 0 0 0 0 0 0-3.1 0.1-6.2-0.2-9.3-0.3-3.3-1.6-6.3-3.4-9-0.1-0.2-0.4-0.3-0.5-0.3-1.7-0.1-3.1-0.7-4.3-1.9-3-2.9-6.6-4.6-10.7-5.4-5.2-1-10.2-0.1-14.9 2.3-1.7 1-3.2 2.3-4.7 3.6q-1.5 1.3-3.5 1.3c-0.5 0-0.7 0.2-0.9 0.6-1.8 3.1-2.6 6.6-3.2 10.1-0.4 2.6-0.4 5.3-0.3 8 0.8-0.3 1.5-0.7 2.3-1 0.1-1.4 0.5-2.6 1.6-3.5 1.5-1.4 3.2-1.7 5.1-0.9 1.9 0.8 2.8 2.4 2.9 4.4 0 1.6 0 3.1 0 4.7 0 4.5-0.1 8.9 0 13.4 0.1 2.8-1.2 5.1-4.3 5.7q-0.5 0-1 0 0 0-0.1-0.1c-2.3-0.3-4-2.2-4.2-4.5 0-0.1-0.2-0.3-0.4-0.4-2.1-0.7-3.4-2-4.1-4.1-0.1-0.3-0.2-0.4-0.5-0.5-2.9-0.3-4.5-2.2-4.5-5q0-7 0-14c0-2.6 0.3-5 0.9-7.5q1.3-5.1 4.2-9.5c0.2-0.2 0.3-0.6 0.3-0.9-0.3-2 0.3-3.8 1.8-5.2 5.2-5.1 11.5-7.9 18.7-9q1.4-0.1 2.8-0.3 1.8 0 3.6 0 0.2 0.1 0.4 0.1c1.8 0.2 3.5 0.4 5.2 0.8 6 1.3 11.3 4 15.8 8.3 1.5 1.4 2.2 3.1 1.9 5.2 0 0.5 0.1 0.8 0.3 1.2 2.4 3.5 3.9 7.3 4.6 11.4 0.2 1.2 0.3 2.4 0.5 3.6q0 8.4 0 16.7 0 0.1-0.1 0.1c-0.3 2.3-2.1 3.9-4.4 4-0.3 0.1-0.4 0.2-0.5 0.5q-1 3.1-4.1 4.1c-0.3 0.1-0.4 0.2-0.5 0.6q-0.1 1.4-1 2.6c-0.8 1-1.9 1.5-3.2 1.8q-0.5 0-1 0zm-15.1-58.6c-6.8 0.1-12.5 1.7-17.8 5-1.7 1.1-3.4 2.4-4.8 4-1.7 2-0.7 5 1.9 5.7 1.3 0.3 2.5-0.2 3.5-1.1 1.1-0.9 2.3-1.9 3.5-2.7q7.5-4.6 16.3-3.5 4.6 0.6 8.6 2.7c1.9 1.1 3.6 2.4 5.2 3.9 1.1 0.9 2.4 1 3.7 0.5 2.4-1.1 2.8-4.1 0.9-6-6.1-5.7-13.4-8.3-21-8.5zm-14.4 44.3q0-0.7 0-1.3 0-4.1 0-8.2c0-1.5-1.2-2.5-2.6-2.4-1.3 0.1-2.2 1.2-2.2 2.6q0 6.2 0 12.5 0 3.1 0 6.2c0 1.2 0.7 2.1 1.7 2.4 1.6 0.5 3.1-0.7 3.1-2.4q0-4.7 0-9.4zm32.4 0q0-4.7 0-9.4c0-1.5-1.1-2.6-2.6-2.5-1.3 0.1-2.2 1.1-2.2 2.6q0 9.1 0 18.2 0 0.4 0 0.8c0.1 1 0.8 1.8 1.7 2.1 1.6 0.5 3.1-0.7 3.1-2.4q0-4.7 0-9.4zm-42.5-29.2c-2.1 3.4-3.5 7-3.9 10.9-0.6 4.7-0.2 9.4-0.3 14q0 0.1 0 0 1.1-0.3 2.3-0.6c0 0.1 0.1 0 0.1 0q0-0.5 0-0.9c0-3.7-0.2-7.3 0.3-10.9 0.5-3.2 1.3-6.3 2.6-9.2 0.2-0.6 0.6-1.2 0.8-1.8-0.6-0.5-1.2-1-1.9-1.5zm45.9 1.5q0.1 0.2 0.2 0.4c2.5 4.1 3.6 8.6 3.5 13.3q0 4.3 0 8.6c0 0.2 0 0.4 0 0.5 0.9 0.2 1.6 0.4 2.4 0.7q0-0.2 0-0.4 0-5 0-10.1 0-5.8-2.4-11.1c-0.5-1.1-1.2-2.3-1.8-3.4-0.7 0.5-1.3 1-1.9 1.5zm-43 20.8c-1.4 0.5-2.3 1.7-2.3 3.1q-0.1 3.8 0 7.6c0 1.4 1 2.7 2.3 3.1q0-6.9 0-13.8zm42 0q0 6.9 0 13.8c1.4-0.5 2.3-1.7 2.3-3.1q0.1-3.8 0-7.6c0-1.4-1-2.7-2.3-3.1zm-46.8 4.5c-1.3 0.1-2.3 1.1-2.3 2.5 0 1.2 1.1 2.2 2.3 2.2q0-2.3 0-4.7zm51.6 4.8c1.4-0.1 2.4-1.2 2.3-2.5-0.1-1.3-1.1-2.3-2.3-2.2q0 2.3 0 4.7z"/><path  d="m28.1 49.4q1.4-5 2.9-10.1 0.3-1.2 0.7-2.4c0.2-0.8 0.6-1.1 1.2-1.1 0.6 0 1 0.4 1.2 1.1q1 4 2 7.9 0 0.3 0.1 0.5 1 0 2 0c0.8 0 1.3 0.5 1.3 1.2 0.1 0.7-0.5 1.2-1.3 1.2q-1.4 0-2.8 0c-0.7 0-1.1-0.3-1.3-1.1-0.4-1.6-0.8-3.2-1.3-4.9-0.1 0.2-0.1 0.4-0.2 0.5q-1.6 5.6-3.2 11.2 0 0.1 0 0.2c-0.3 0.8-0.7 1.2-1.3 1.2-0.6 0-1-0.3-1.3-1.2q-0.9-2.7-1.8-5.5c-0.1-0.3-0.2-0.4-0.6-0.4q-0.8 0-1.7 0c-0.7 0-1.3-0.5-1.2-1.2 0-0.7 0.5-1.2 1.3-1.2q1.4 0 2.8 0c0.7 0 1.1 0.3 1.3 1q0.5 1.6 1.1 3.1 0 0 0.1 0z"/><path  d="m30.6 5.6c2.2 0.3 4.5 0.5 6.7 0.9 0.8 0.1 1.3 0.7 1.1 1.4-0.1 0.7-0.7 1-1.6 0.9-2.8-0.6-5.7-0.8-8.7-0.5-2.4 0.2-4.8 0.6-7.1 1.4q-0.4 0.2-0.7 0.3c-0.7 0.1-1.2-0.1-1.5-0.7-0.2-0.6 0-1.2 0.7-1.5q1.3-0.5 2.6-0.9 4.2-1.1 8.5-1.1 0-0.1 0-0.2z"/><path  d="m41 10c-0.6-0.1-1.1-0.6-1.1-1.2 0-0.7 0.5-1.2 1.1-1.2 0.7 0 1.2 0.6 1.2 1.2 0 0.6-0.5 1.2-1.2 1.2z"/></g></svg>