<svg version="1.2" xmlns="http://www.w3.org/2000/svg" viewBox="0 0 59 59" width="59" height="59"><defs><clipPath clipPathUnits="userSpaceOnUse" id="cp1"><path d="m-1258-4047h1920v9844h-1920z"/></clipPath></defs><style></style><g clip-path="url(#cp1)"><path fill-rule="evenodd" d="m4.5 59c-0.5-0.3-0.8-0.8-0.9-1.4q-1.8-10.2-3.6-20.4c-0.1-0.8 0.2-1.4 1-1.5 2.1-0.4 4.1-0.8 6.2-1.1 2-0.3 3.6 1 4.1 3q0 0.3 0.1 0.7 2-0.7 3.8-1.3c-0.1-1.3-0.3-2.6-0.4-3.8-0.1-2.8 0.7-5.3 1.9-7.8q3.5-6.7 7-13.5c0.2-0.4 0.2-0.7 0-1.2q-1.7-3.2-3.3-6.5c-0.6-1.3-0.5-2.5 0.4-3.3 0.8-0.8 2-1.1 3.1-0.5 0.5 0.2 1 0.5 1.5 0.8 1 0.6 1.4 0.6 2.2-0.2 1.2-1 2.6-1.3 4.1-0.6 0.4 0.2 0.7 0.5 1.1 0.7 0.7 0.5 1.2 0.5 1.8 0 1.8-1.4 3.2-1.4 5-0.1 0.9 0.7 1.7 0.8 2.6 0.2 0.4-0.3 0.9-0.5 1.3-0.8 1.2-0.6 2.4-0.5 3.3 0.4 0.9 0.8 1.1 2 0.5 3.2q-1.6 3.4-3.3 6.8c-0.2 0.4-0.2 0.7 0 1.1q3.7 7.2 7.3 14.5 0.4 0.7 0.6 1.4c0.2 0.7-0.1 1.3-0.6 1.5-0.6 0.3-1.2 0-1.5-0.6q-3.9-7.8-7.7-15.6c-0.3-0.4-0.5-0.6-1-0.6q-7.2 0-14.5 0c-0.5 0-0.7 0.1-0.9 0.6q-3.5 6.7-7 13.5c-1.4 2.9-1.9 5.9-1.3 9.1q0 0.1 0.1 0.3c0 0.1 0 0.1 0 0.1 1.3-0.3 2.6-0.7 4-0.8 2.9-0.3 5.5 0.5 7.8 2.2 2.6 1.9 5.1 3.8 7.7 5.7 1.3 0.9 2.3 1.9 2.3 3.5 1.7 0.2 3.2-0.2 4.4-1.4q4.1-4.1 8.1-8.2c1.5-1.4 3.3-1.8 5-0.9q1.5 0.8 2 2.5 0.1 0.2 0.2 0.5 0 0.6 0 1.1c-0.2 0.9-0.6 1.7-1.2 2.4-1.4 1.7-2.7 3.3-4.1 5-1.3 1.5-2.6 3.1-4 4.4-3.3 3.2-7.3 4.6-11.8 4.6q-7.7 0-15.5 0-1.6 0-1.6-1.2 0-1.1 1.6-1.1 7.8 0 15.6 0c4.3 0 8-1.5 10.9-4.7 1.5-1.6 2.8-3.3 4.2-5 1.1-1.2 2.1-2.4 3.1-3.7 0.9-1.1 0.4-2.6-0.9-2.9-0.8-0.2-1.4 0.2-1.9 0.7q-4 4.1-8.1 8.1c-1 1.1-2.2 1.8-3.6 2-0.9 0.2-2 0.1-3 0.2-0.2 0-0.4 0-0.5 0.1-1.4 1.3-2.9 1.3-4.5 0.5-1.9-1-3.9-1.9-5.8-2.9-1.3-0.7-2.6-1.2-4.1-1q-0.2 0-0.4 0c-0.6-0.1-1-0.6-1-1.1-0.1-0.6 0.3-1.1 0.9-1.2 1.5-0.1 2.9-0.2 4.3 0.6q3.6 1.8 7.2 3.5c0.4 0.2 1 0.3 1.4 0.2 1-0.3 1-1.6 0.1-2.3q-4.3-3.1-8.5-6.2c-2.2-1.6-4.6-2.2-7.2-1.6-1.4 0.3-2.7 0.8-4 1.2q-2.4 0.8-4.8 1.7 0.3 2 0.7 3.9c0.5 3.1 1.1 6.2 1.6 9.3 0.3 1.7-0.7 3.3-2.3 3.9-0.7 0.2-1.5 0.3-2.3 0.5q-2.1 0.4-4.2 0.8-0.4 0-0.8 0zm29.4-48.8q3.6 0 7.3 0c0.4 0 0.6-0.1 0.8-0.5q1.2-2.5 2.5-5.1c0.2-0.5 0.5-0.9 0.7-1.4 0-0.2 0-0.5 0-0.8-0.3 0.1-0.5 0-0.7 0.1-0.6 0.3-1.1 0.7-1.7 0.9-0.5 0.3-1.1 0.5-1.7 0.5-1.1 0.2-2-0.4-2.8-1-1-0.7-1.4-0.7-2.3 0-1.4 1.1-3 1.2-4.5 0.1-1.3-0.9-1.4-0.9-2.7 0q-1.9 1.6-4.1 0.4c-0.5-0.2-1-0.6-1.5-0.8-0.2-0.1-0.5-0.1-0.8-0.1 0.1 0.3 0 0.6 0.1 0.8 1.1 2.1 2.2 4.3 3.2 6.4 0.2 0.4 0.4 0.5 0.8 0.5q3.7 0 7.4 0zm-31.4 27.5c1.1 6.3 2.2 12.5 3.3 18.8 1.7-0.3 3.4-0.6 5-0.9 0.8-0.2 1.1-0.9 1-1.7q-1-5.5-1.9-11-0.4-2.3-0.8-4.6c-0.2-1-0.8-1.5-1.6-1.4-1.7 0.2-3.3 0.5-5 0.8z"/><path  d="m29 31.3c0-0.8 0.3-1.3 1-1.4 0.7-0.1 1.2 0.3 1.3 1.1 0.1 1.6 1.9 2.4 3.1 2.1 1.1-0.3 1.9-1.2 1.9-2.1-0.1-1.1-1-1.9-2.1-2.1-0.9-0.1-1.8-0.2-2.6-0.6-1.8-0.8-2.7-2.4-2.6-4.2 0.1-1.7 1.4-3.3 3.1-3.9 0.3-0.1 0.5-0.1 0.5-0.5 0.1-0.8 0.6-1.3 1.2-1.2 0.7 0 1.1 0.4 1.1 1.2 0 0.4 0.3 0.4 0.5 0.5 1.8 0.7 2.9 1.9 3.2 3.9 0.1 0.8-0.4 1.4-1.1 1.4-0.6 0.1-1.1-0.3-1.2-1.1-0.2-1.1-0.8-1.8-1.8-2-1-0.3-2.2 0-2.8 0.8-1 1.3-0.1 3.1 1.6 3.3 0.9 0.2 1.9 0.3 2.7 0.6 1.7 0.8 2.7 2.5 2.6 4.1-0.2 1.9-1.3 3.4-3.1 4-0.4 0.1-0.6 0.2-0.6 0.6 0 0.6-0.5 1-1.1 1.1-0.5 0-1-0.4-1.1-1-0.1-0.4-0.3-0.6-0.7-0.8-1.7-0.5-2.9-2.1-3-3.8z"/><path  d="m52.7 32.6c0 0.6-0.5 1.2-1.1 1.2-0.6-0.1-1.1-0.6-1.1-1.2 0-0.6 0.5-1.1 1.1-1.1 0.6 0 1.2 0.5 1.1 1.1z"/><path  d="m17.6 54.4c0.6 0 1.2 0.6 1.2 1.2 0 0.6-0.6 1.1-1.2 1.1-0.6 0-1.1-0.6-1.1-1.2 0-0.6 0.5-1.1 1.1-1.1z"/><path  d="m8.2 51.3c0.7 0 1.2 0.6 1.2 1.2 0 0.6-0.5 1.1-1.2 1.1-0.6 0-1.1-0.5-1.1-1.2 0-0.6 0.5-1.1 1.1-1.1z"/></g></svg>