<svg version="1.2" xmlns="http://www.w3.org/2000/svg" viewBox="0 0 95 68" width="95" height="68"><defs><clipPath clipPathUnits="userSpaceOnUse" id="cp1"><path d="m-443-4042h1920v9844h-1920z"/></clipPath></defs><style></style><g clip-path="url(#cp1)"><path fill-rule="evenodd" d="m1 8.1c0.5-0.7 1.3-0.9 2.2-0.9q29.1 0 58.3 0c1.7 0 2.1 0.4 2.1 2.1 0.1 2.9 0 5.7 0 8.7 0.5 0 0.8 0.1 1.2 0.1 4.6 0 9.2 0 13.8 0 1.1-0.1 1.8 0.3 2.4 1.3 4.5 6.9 9 13.8 13.4 20.7 0.3 0.6 0.6 1.3 0.6 2 0 5.3 0 10.6 0 16 0 1.6-0.5 2.1-2.2 2.1q-3.6 0-7.3 0c-0.2 0.6-0.3 1.1-0.5 1.6-1.4 3.9-5.1 6.4-9.1 6.2-4.2-0.2-7.7-3-8.8-7-0.1-0.5-0.3-0.8-0.9-0.8q-16.8 0-33.5 0-0.2 0-0.4 0.1c-1.4 4.8-4.5 7.8-9.8 7.6-4.8-0.1-7.6-3.1-8.9-7.7-3.5 0-6.9 0-10.4 0-0.9 0.1-1.7-0.2-2.2-1q0-25.6 0-51.1zm3.2 2.2c0 13.6 0 27 0 40.6 2.6 0 5.2 0 7.7 0 0 1.1 0 2 0 3.1q-3.9 0-7.7 0c0 1.1 0 2.1 0 3.1 1.6 0 3.2 0 4.7 0q2.4 0 4.7 0c1.8-5.2 4.7-7.7 9-7.8q3-0.1 5.4 1.5c2.3 1.5 3.7 3.6 4.2 6.2 9.5 0 18.9 0 28.2 0 0-1 0-1.9 0-3q-13.2 0-26.5 0c0-1.1 0-2.1 0-3.1 8.9 0 17.7 0 26.6 0 0-11.5 0-22.9 0-34.4q-26.6 0-53.2 0c0-1.1 0-2.1 0-3.1 17.8 0 35.4 0 53.2 0 0-1.1 0-2.1 0-3.1-18.8 0-37.5 0-56.3 0zm83 40.5c1.6 0 3.1 0 4.7 0 0-2.8 0-5.4 0-8 0-1.3-0.1-1.3-1.3-1.3q-10.9 0-21.7 0c-1.6 0-2.1-0.5-2.1-2.2q0-6.4 0-12.8c0-1.7 0.5-2.2 2.1-2.2q5.2 0 10.4 0c0.3 0 0.6 0 1.2 0-0.6-0.9-1.1-1.6-1.6-2.4-0.3-0.5-0.6-0.7-1.2-0.7q-6.5 0-13.1 0-0.4 0-0.8 0 0 18 0 35.9c1.1 0 2.1 0 3.1 0 1.9-5.3 4.7-7.8 9-7.8 5.2 0 8.3 2.9 9.6 7.8q3.2 0 6.3 0c0-1.1 0-2.1 0-3.2-1.6 0-3.1 0-4.6 0 0-1 0-1.9 0-3.1zm2.2-12.5c-0.1-0.2-0.1-0.3-0.1-0.3-2.2-3.4-4.3-6.7-6.5-10.1-0.2-0.2-0.7-0.4-1.1-0.4q-5.4-0.1-10.8 0-0.4 0-0.9 0c0 3.7 0 7.2 0 10.8 6.5 0 12.9 0 19.4 0zm-13.2 26.6c3.4 0 6.2-2.8 6.3-6.2 0-3.4-2.8-6.3-6.2-6.3-3.5 0-6.4 2.8-6.4 6.3 0 3.4 2.8 6.2 6.3 6.2zm-53.3 0c3.4 0 6.2-2.7 6.3-6.2 0.1-3.4-2.8-6.3-6.3-6.3-3.4 0-6.2 2.8-6.2 6.2-0.1 3.4 2.7 6.3 6.2 6.3z"/><path  d="m1 1c1 0 2 0 3.1 0 0 1 0 1.9 0 3.1q-1.6 0-3.1 0 0-1.5 0-3.1z"/><path  d="m29.2 1c0 0.9 0 1.7 0 2.5 0 0.2-0.3 0.4-0.6 0.5-0.1 0.1-0.4 0-0.6 0q-9.8 0-19.5 0-0.6 0-1.2 0c0-1 0-1.9 0-3 7.3 0 14.5 0 21.9 0z"/><path  d="m77.7 57.2c0 1 0 2 0 3-1 0-2 0-3 0 0-1 0-2 0-3 1 0 1.9 0 3 0z"/><path  d="m24.5 57.2c0 1 0 2 0 3-1 0-2 0-3.1 0q0-1.5 0-3 1.5 0 3.1 0z"/></g></svg>