<svg version="1.2" xmlns="http://www.w3.org/2000/svg" viewBox="0 0 1749 289" width="1749" height="289"><defs><clipPath clipPathUnits="userSpaceOnUse" id="cp1"><path d="m-171-4542h1920v9844h-1920z"/></clipPath></defs><style>.a{opacity:.2;fill:#3f3e3e}</style><g clip-path="url(#cp1)"><path fill-rule="evenodd" class="a" d="m2.7 191.4c28.9-21.7 57.5-43.6 86.1-65.3 4.8-3.6 14.8-4.9 20.8-2.3 5.7 0.6 10.9 3.1 10.8 6.9-0.1 5.2-0.1 10.2 0.2 15.4 2.1 5.7 4.2 11.4 6.2 17.1 91.1-13.5 186.9-13.2 280.1-3.7 60.1 6.1 119 15.9 176 28.4 57.3 12.5 112.8 27.9 171.9 37.5 73.6 12.1 154.6 10.6 221.1-8.8-21.7-16.3-37.2-34.7-43-54.6-8.4-28.8 13.2-58.5 61.7-70.5 43.3-10.8 89.1 0.7 106.8 25.5 29.9 41.9-20.7 78.9-86.2 102.9 47.5 28.9 116.2 48.5 181 53.4 73 5.5 145.8-8.6 197.6-36.8-36.1-6.5-68.6-18.2-93.5-36.6-60.5-45-35.1-119.1 77-123.5 122.9-4.9 125.4 86.6 85.4 131.4-6.4 7.1-13.6 13.9-21.7 20.1 100.9 8.1 209-16.8 281.9-55.9 80.1-43 120.7-105.2 116.3-167.6-0.3-5.9 15.1-5.8 15.8 0 10.3 82.2-60.3 162.1-183.4 205.2-67.5 23.6-164.7 39.3-248.8 30.9-59.9 37-150.8 54.8-240 46.5-67.3-6.3-140.6-28-190.8-59.4-33.9 10.4-69.7 17.3-99 19.7-138 11.4-264.4-37.6-391.9-59.3-119.9-20.3-247.9-27.4-368.6-9.3 3.9 10.9 7.9 21.8 11.9 32.8 2 5.5-6.4 11.6-17.1 9.7-35.1-6.5-70.2-12.9-105.4-19.3-11.6 3.5-28.5-3.5-19.2-10.5zm1410.1 33.3c10.7-7.4 20-15.5 27.8-24.3 21.3-24 30.8-54.5 13.6-80.3-19.9-29.8-76.3-36.8-121.3-20.4-42 15.4-50.6 45.2-33.8 70.7 18.9 28.8 63.5 46.7 113.7 54.3zm-413.9-15.8c21.3-8.1 40.9-18.3 57.4-30.8 17.9-13.5 31.6-30.6 25-47.9-5.6-14.7-25-28.4-53.1-28.2-61.5 0.3-80.1 41.1-65 68.5 7.6 13.8 20 26.7 35.7 38.4z"/></g></svg>